%TF.GenerationSoftware,KiCad,Pcbnew,9.0.2-9.0.2-0~ubuntu22.04.1*%
%TF.CreationDate,2025-05-12T22:54:36+03:00*%
%TF.ProjectId,endpoint-driver,656e6470-6f69-46e7-942d-647269766572,rev?*%
%TF.SameCoordinates,Original*%
%TF.FileFunction,Soldermask,Top*%
%TF.FilePolarity,Negative*%
%FSLAX46Y46*%
G04 Gerber Fmt 4.6, Leading zero omitted, Abs format (unit mm)*
G04 Created by KiCad (PCBNEW 9.0.2-9.0.2-0~ubuntu22.04.1) date 2025-05-12 22:54:36*
%MOMM*%
%LPD*%
G01*
G04 APERTURE LIST*
G04 Aperture macros list*
%AMRoundRect*
0 Rectangle with rounded corners*
0 $1 Rounding radius*
0 $2 $3 $4 $5 $6 $7 $8 $9 X,Y pos of 4 corners*
0 Add a 4 corners polygon primitive as box body*
4,1,4,$2,$3,$4,$5,$6,$7,$8,$9,$2,$3,0*
0 Add four circle primitives for the rounded corners*
1,1,$1+$1,$2,$3*
1,1,$1+$1,$4,$5*
1,1,$1+$1,$6,$7*
1,1,$1+$1,$8,$9*
0 Add four rect primitives between the rounded corners*
20,1,$1+$1,$2,$3,$4,$5,0*
20,1,$1+$1,$4,$5,$6,$7,0*
20,1,$1+$1,$6,$7,$8,$9,0*
20,1,$1+$1,$8,$9,$2,$3,0*%
%AMRotRect*
0 Rectangle, with rotation*
0 The origin of the aperture is its center*
0 $1 length*
0 $2 width*
0 $3 Rotation angle, in degrees counterclockwise*
0 Add horizontal line*
21,1,$1,$2,0,0,$3*%
G04 Aperture macros list end*
%ADD10RoundRect,0.250000X-0.600000X-0.725000X0.600000X-0.725000X0.600000X0.725000X-0.600000X0.725000X0*%
%ADD11O,1.700000X1.950000*%
%ADD12RoundRect,0.250000X0.600000X0.725000X-0.600000X0.725000X-0.600000X-0.725000X0.600000X-0.725000X0*%
%ADD13O,1.950000X1.700000*%
%ADD14RoundRect,0.250000X-0.725000X0.600000X-0.725000X-0.600000X0.725000X-0.600000X0.725000X0.600000X0*%
%ADD15RoundRect,0.250000X0.725000X-0.600000X0.725000X0.600000X-0.725000X0.600000X-0.725000X-0.600000X0*%
%ADD16RoundRect,0.225000X0.017678X-0.335876X0.335876X-0.017678X-0.017678X0.335876X-0.335876X0.017678X0*%
%ADD17RoundRect,0.250000X0.159099X-0.512652X0.512652X-0.159099X-0.159099X0.512652X-0.512652X0.159099X0*%
%ADD18C,3.200000*%
%ADD19RoundRect,0.225000X-0.017678X0.335876X-0.335876X0.017678X0.017678X-0.335876X0.335876X-0.017678X0*%
%ADD20RoundRect,0.135000X0.035355X-0.226274X0.226274X-0.035355X-0.035355X0.226274X-0.226274X0.035355X0*%
%ADD21R,1.700000X1.700000*%
%ADD22C,1.700000*%
%ADD23RoundRect,0.250000X-0.565685X0.070711X0.070711X-0.565685X0.565685X-0.070711X-0.070711X0.565685X0*%
%ADD24RoundRect,0.135000X0.135000X0.185000X-0.135000X0.185000X-0.135000X-0.185000X0.135000X-0.185000X0*%
%ADD25RoundRect,0.225000X0.225000X0.250000X-0.225000X0.250000X-0.225000X-0.250000X0.225000X-0.250000X0*%
%ADD26RoundRect,0.062500X-0.220971X-0.309359X0.309359X0.220971X0.220971X0.309359X-0.309359X-0.220971X0*%
%ADD27RoundRect,0.062500X0.220971X-0.309359X0.309359X-0.220971X-0.220971X0.309359X-0.309359X0.220971X0*%
%ADD28RotRect,5.600000X5.600000X45.000000*%
%ADD29RoundRect,0.200000X0.053033X-0.335876X0.335876X-0.053033X-0.053033X0.335876X-0.335876X0.053033X0*%
%ADD30RotRect,1.700000X1.700000X135.000000*%
%ADD31RoundRect,0.150000X-0.825000X-0.150000X0.825000X-0.150000X0.825000X0.150000X-0.825000X0.150000X0*%
G04 APERTURE END LIST*
D10*
%TO.C,J8*%
X21410000Y34287500D03*
D11*
X23910000Y34287500D03*
X26410000Y34287500D03*
X28910000Y34287500D03*
%TD*%
%TO.C,J5*%
X11550000Y5670000D03*
X14050000Y5670000D03*
D12*
X16550000Y5670000D03*
%TD*%
D13*
%TO.C,J7*%
X34320000Y10510000D03*
X34320000Y13010000D03*
D14*
X34320000Y15510000D03*
%TD*%
D15*
%TO.C,J2*%
X5720000Y21500000D03*
D13*
X5720000Y24000000D03*
X5720000Y26500000D03*
X5720000Y29000000D03*
%TD*%
D16*
%TO.C,C11*%
X16374144Y13783180D03*
X15278128Y12687164D03*
%TD*%
D17*
%TO.C,C8*%
X25648148Y15088249D03*
X26991650Y16431751D03*
%TD*%
D16*
%TO.C,C5*%
X24711891Y18711992D03*
X25807907Y19808008D03*
%TD*%
%TO.C,C4*%
X24511891Y16421992D03*
X25607907Y17518008D03*
%TD*%
D18*
%TO.C,H1*%
X4500000Y4500000D03*
%TD*%
D19*
%TO.C,C9*%
X17887907Y13018008D03*
X16791891Y11921992D03*
%TD*%
D20*
%TO.C,R11*%
X14219325Y21259426D03*
X14940573Y21980674D03*
%TD*%
D14*
%TO.C,J3*%
X34357500Y28980000D03*
D13*
X34357500Y26480000D03*
X34357500Y23980000D03*
X34357500Y21480000D03*
%TD*%
D21*
%TO.C,J4*%
X30520000Y22085000D03*
D22*
X30520000Y19545000D03*
%TD*%
D23*
%TO.C,X1*%
X12427278Y15461949D03*
X13982913Y13906314D03*
X15184994Y15108395D03*
X13629359Y16664030D03*
%TD*%
D18*
%TO.C,H2*%
X35500000Y4500000D03*
%TD*%
%TO.C,H3*%
X4500000Y35500000D03*
%TD*%
D24*
%TO.C,R5*%
X28510000Y30040000D03*
X29530000Y30040000D03*
%TD*%
D16*
%TO.C,C10*%
X11168128Y16777164D03*
X12264144Y17873180D03*
%TD*%
D25*
%TO.C,C6*%
X20085000Y25270000D03*
X18535000Y25270000D03*
%TD*%
D26*
%TO.C,U2*%
X14374777Y18693813D03*
X14728330Y18340260D03*
X15081884Y17986706D03*
X15435437Y17633153D03*
X15788990Y17279600D03*
X16142544Y16926046D03*
X16496097Y16572493D03*
X16849651Y16218939D03*
X17203204Y15865386D03*
X17556757Y15511833D03*
X17910311Y15158279D03*
X18263864Y14804726D03*
D27*
X19236136Y14804726D03*
X19589689Y15158279D03*
X19943243Y15511833D03*
X20296796Y15865386D03*
X20650349Y16218939D03*
X21003903Y16572493D03*
X21357456Y16926046D03*
X21711010Y17279600D03*
X22064563Y17633153D03*
X22418116Y17986706D03*
X22771670Y18340260D03*
X23125223Y18693813D03*
D26*
X23125223Y19666085D03*
X22771670Y20019638D03*
X22418116Y20373192D03*
X22064563Y20726745D03*
X21711010Y21080298D03*
X21357456Y21433852D03*
X21003903Y21787405D03*
X20650349Y22140959D03*
X20296796Y22494512D03*
X19943243Y22848065D03*
X19589689Y23201619D03*
X19236136Y23555172D03*
D27*
X18263864Y23555172D03*
X17910311Y23201619D03*
X17556757Y22848065D03*
X17203204Y22494512D03*
X16849651Y22140959D03*
X16496097Y21787405D03*
X16142544Y21433852D03*
X15788990Y21080298D03*
X15435437Y20726745D03*
X15081884Y20373192D03*
X14728330Y20019638D03*
X14374777Y19666085D03*
D28*
X18750000Y19179949D03*
%TD*%
D19*
%TO.C,C7*%
X13047957Y20788058D03*
X11951941Y19692042D03*
%TD*%
D29*
%TO.C,R4*%
X17846536Y10806637D03*
X19013262Y11973363D03*
%TD*%
D30*
%TO.C,J1*%
X13000000Y24340000D03*
D22*
X14796051Y26136051D03*
X16592102Y27932102D03*
X18388154Y29728154D03*
%TD*%
D24*
%TO.C,R6*%
X27250000Y23315000D03*
X28270000Y23315000D03*
%TD*%
D18*
%TO.C,H4*%
X35500000Y35500000D03*
%TD*%
D31*
%TO.C,U3*%
X29545000Y28580000D03*
X29545000Y27310000D03*
X29545000Y26040000D03*
X29545000Y24770000D03*
X24595000Y24770000D03*
X24595000Y26040000D03*
X24595000Y27310000D03*
X24595000Y28580000D03*
%TD*%
D12*
%TO.C,J6*%
X28450000Y5642500D03*
D11*
X25950000Y5642500D03*
X23450000Y5642500D03*
%TD*%
M02*
