%TF.GenerationSoftware,KiCad,Pcbnew,9.0.2-9.0.2-0~ubuntu22.04.1*%
%TF.CreationDate,2025-05-12T22:54:36+03:00*%
%TF.ProjectId,endpoint-driver,656e6470-6f69-46e7-942d-647269766572,rev?*%
%TF.SameCoordinates,Original*%
%TF.FileFunction,Copper,L2,Bot*%
%TF.FilePolarity,Positive*%
%FSLAX46Y46*%
G04 Gerber Fmt 4.6, Leading zero omitted, Abs format (unit mm)*
G04 Created by KiCad (PCBNEW 9.0.2-9.0.2-0~ubuntu22.04.1) date 2025-05-12 22:54:36*
%MOMM*%
%LPD*%
G01*
G04 APERTURE LIST*
G04 Aperture macros list*
%AMRoundRect*
0 Rectangle with rounded corners*
0 $1 Rounding radius*
0 $2 $3 $4 $5 $6 $7 $8 $9 X,Y pos of 4 corners*
0 Add a 4 corners polygon primitive as box body*
4,1,4,$2,$3,$4,$5,$6,$7,$8,$9,$2,$3,0*
0 Add four circle primitives for the rounded corners*
1,1,$1+$1,$2,$3*
1,1,$1+$1,$4,$5*
1,1,$1+$1,$6,$7*
1,1,$1+$1,$8,$9*
0 Add four rect primitives between the rounded corners*
20,1,$1+$1,$2,$3,$4,$5,0*
20,1,$1+$1,$4,$5,$6,$7,0*
20,1,$1+$1,$6,$7,$8,$9,0*
20,1,$1+$1,$8,$9,$2,$3,0*%
%AMRotRect*
0 Rectangle, with rotation*
0 The origin of the aperture is its center*
0 $1 length*
0 $2 width*
0 $3 Rotation angle, in degrees counterclockwise*
0 Add horizontal line*
21,1,$1,$2,0,0,$3*%
G04 Aperture macros list end*
%TA.AperFunction,SMDPad,CuDef*%
%ADD10RoundRect,0.135000X0.135000X0.185000X-0.135000X0.185000X-0.135000X-0.185000X0.135000X-0.185000X0*%
%TD*%
%TA.AperFunction,ComponentPad*%
%ADD11RoundRect,0.250000X-0.600000X-0.725000X0.600000X-0.725000X0.600000X0.725000X-0.600000X0.725000X0*%
%TD*%
%TA.AperFunction,ComponentPad*%
%ADD12O,1.700000X1.950000*%
%TD*%
%TA.AperFunction,ComponentPad*%
%ADD13RoundRect,0.250000X0.600000X0.725000X-0.600000X0.725000X-0.600000X-0.725000X0.600000X-0.725000X0*%
%TD*%
%TA.AperFunction,ComponentPad*%
%ADD14O,1.950000X1.700000*%
%TD*%
%TA.AperFunction,ComponentPad*%
%ADD15RoundRect,0.250000X-0.725000X0.600000X-0.725000X-0.600000X0.725000X-0.600000X0.725000X0.600000X0*%
%TD*%
%TA.AperFunction,ComponentPad*%
%ADD16RoundRect,0.250000X0.725000X-0.600000X0.725000X0.600000X-0.725000X0.600000X-0.725000X-0.600000X0*%
%TD*%
%TA.AperFunction,SMDPad,CuDef*%
%ADD17RoundRect,0.135000X-0.135000X-0.185000X0.135000X-0.185000X0.135000X0.185000X-0.135000X0.185000X0*%
%TD*%
%TA.AperFunction,ComponentPad*%
%ADD18R,1.700000X1.700000*%
%TD*%
%TA.AperFunction,ComponentPad*%
%ADD19C,1.700000*%
%TD*%
%TA.AperFunction,ComponentPad*%
%ADD20RotRect,1.700000X1.700000X135.000000*%
%TD*%
%TA.AperFunction,SMDPad,CuDef*%
%ADD21R,1.000000X0.800000*%
%TD*%
%TA.AperFunction,SMDPad,CuDef*%
%ADD22RoundRect,0.250000X0.475000X-0.250000X0.475000X0.250000X-0.475000X0.250000X-0.475000X-0.250000X0*%
%TD*%
%TA.AperFunction,SMDPad,CuDef*%
%ADD23RoundRect,0.200000X0.275000X-0.200000X0.275000X0.200000X-0.275000X0.200000X-0.275000X-0.200000X0*%
%TD*%
%TA.AperFunction,SMDPad,CuDef*%
%ADD24RoundRect,0.120000X-1.230000X-0.280000X1.230000X-0.280000X1.230000X0.280000X-1.230000X0.280000X0*%
%TD*%
%TA.AperFunction,SMDPad,CuDef*%
%ADD25RoundRect,0.250000X-0.475000X0.250000X-0.475000X-0.250000X0.475000X-0.250000X0.475000X0.250000X0*%
%TD*%
%TA.AperFunction,SMDPad,CuDef*%
%ADD26RoundRect,0.225000X0.225000X0.250000X-0.225000X0.250000X-0.225000X-0.250000X0.225000X-0.250000X0*%
%TD*%
%TA.AperFunction,SMDPad,CuDef*%
%ADD27RoundRect,0.200000X0.200000X0.275000X-0.200000X0.275000X-0.200000X-0.275000X0.200000X-0.275000X0*%
%TD*%
%TA.AperFunction,ViaPad*%
%ADD28C,0.600000*%
%TD*%
%TA.AperFunction,Conductor*%
%ADD29C,0.240000*%
%TD*%
%TA.AperFunction,Conductor*%
%ADD30C,0.600000*%
%TD*%
%TA.AperFunction,Conductor*%
%ADD31C,0.310000*%
%TD*%
%TA.AperFunction,Conductor*%
%ADD32C,0.200000*%
%TD*%
%ADD33C,0.300000*%
%ADD34C,0.350000*%
G04 APERTURE END LIST*
D10*
%TO.P,R7,2*%
%TO.N,/MCU/SDA*%
X26160000Y31530000D03*
%TO.P,R7,1*%
%TO.N,+3.3V*%
X27180000Y31530000D03*
%TD*%
D11*
%TO.P,J8,1,Pin_1*%
%TO.N,GND*%
X21410000Y34287500D03*
D12*
%TO.P,J8,2,Pin_2*%
%TO.N,/MCU/SCL*%
X23910000Y34287500D03*
%TO.P,J8,3,Pin_3*%
%TO.N,/MCU/SDA*%
X26410000Y34287500D03*
%TO.P,J8,4,Pin_4*%
%TO.N,+3.3V*%
X28910000Y34287500D03*
%TD*%
%TO.P,J5,3,Pin_3*%
%TO.N,GND*%
X11550000Y5670000D03*
%TO.P,J5,2,Pin_2*%
%TO.N,+3.3V*%
X14050000Y5670000D03*
D13*
%TO.P,J5,1,Pin_1*%
%TO.N,/MCU/EXTI_BTN1*%
X16550000Y5670000D03*
%TD*%
D14*
%TO.P,J7,3,Pin_3*%
%TO.N,GND*%
X34320000Y10510000D03*
%TO.P,J7,2,Pin_2*%
%TO.N,+3.3V*%
X34320000Y13010000D03*
D15*
%TO.P,J7,1,Pin_1*%
%TO.N,/MCU/EXTI_BTN3*%
X34320000Y15510000D03*
%TD*%
D16*
%TO.P,J2,1,Pin_1*%
%TO.N,VCC*%
X5720000Y21500000D03*
D14*
%TO.P,J2,2,Pin_2*%
%TO.N,/CAN/CAN_P*%
X5720000Y24000000D03*
%TO.P,J2,3,Pin_3*%
%TO.N,/CAN/CAN_N*%
X5720000Y26500000D03*
%TO.P,J2,4,Pin_4*%
%TO.N,GND*%
X5720000Y29000000D03*
%TD*%
D17*
%TO.P,R8,1*%
%TO.N,+3.3V*%
X22530000Y31530000D03*
%TO.P,R8,2*%
%TO.N,/MCU/SCL*%
X23550000Y31530000D03*
%TD*%
D15*
%TO.P,J3,1,Pin_1*%
%TO.N,VCC*%
X34357500Y28980000D03*
D14*
%TO.P,J3,2,Pin_2*%
%TO.N,/CAN/CAN_P*%
X34357500Y26480000D03*
%TO.P,J3,3,Pin_3*%
%TO.N,/CAN/CAN_N*%
X34357500Y23980000D03*
%TO.P,J3,4,Pin_4*%
%TO.N,GND*%
X34357500Y21480000D03*
%TD*%
D18*
%TO.P,J4,1,Pin_1*%
%TO.N,/CAN/CAN_P*%
X30520000Y22085000D03*
D19*
%TO.P,J4,2,Pin_2*%
%TO.N,Net-(J4-Pin_2)*%
X30520000Y19545000D03*
%TD*%
D20*
%TO.P,J1,1,Pin_1*%
%TO.N,GND*%
X13000000Y24340000D03*
D19*
%TO.P,J1,2,Pin_2*%
%TO.N,/MCU/SWCLK*%
X14796051Y26136051D03*
%TO.P,J1,3,Pin_3*%
%TO.N,/MCU/SWDIO*%
X16592102Y27932102D03*
%TO.P,J1,4,Pin_4*%
%TO.N,+3.3V*%
X18388154Y29728154D03*
%TD*%
D21*
%TO.P,U1,1,BST*%
%TO.N,Net-(U1-BST)*%
X24620000Y18300000D03*
%TO.P,U1,2,GND*%
%TO.N,GND*%
X24620000Y19250000D03*
%TO.P,U1,3,FB*%
%TO.N,Net-(U1-FB)*%
X24620000Y20200000D03*
%TO.P,U1,4,EN*%
%TO.N,Net-(U1-EN)*%
X27120000Y20250000D03*
%TO.P,U1,5,VIN*%
%TO.N,VCC*%
X27120000Y19250000D03*
%TO.P,U1,6,SW*%
%TO.N,Net-(U1-SW)*%
X27120000Y18300000D03*
%TD*%
D22*
%TO.P,C3,1*%
%TO.N,+3.3V*%
X21130000Y18520000D03*
%TO.P,C3,2*%
%TO.N,GND*%
X21130000Y20420000D03*
%TD*%
D23*
%TO.P,R1,1*%
%TO.N,+3.3V*%
X23030000Y18560000D03*
%TO.P,R1,2*%
%TO.N,Net-(U1-FB)*%
X23030000Y20210000D03*
%TD*%
D24*
%TO.P,L1,1,1*%
%TO.N,+3.3V*%
X23030000Y17080000D03*
%TO.P,L1,2,2*%
%TO.N,Net-(U1-SW)*%
X23030000Y14780000D03*
%TD*%
D25*
%TO.P,C2,1*%
%TO.N,VCC*%
X28860000Y20060000D03*
%TO.P,C2,2*%
%TO.N,GND*%
X28860000Y18160000D03*
%TD*%
D26*
%TO.P,C1,1*%
%TO.N,Net-(U1-SW)*%
X27155000Y16730000D03*
%TO.P,C1,2*%
%TO.N,Net-(U1-BST)*%
X25605000Y16730000D03*
%TD*%
D27*
%TO.P,R2,1*%
%TO.N,VCC*%
X28755000Y21820000D03*
%TO.P,R2,2*%
%TO.N,Net-(U1-EN)*%
X27105000Y21820000D03*
%TD*%
%TO.P,R3,1*%
%TO.N,Net-(U1-FB)*%
X23970000Y21920000D03*
%TO.P,R3,2*%
%TO.N,GND*%
X22320000Y21920000D03*
%TD*%
D13*
%TO.P,J6,1,Pin_1*%
%TO.N,/MCU/EXTI_BTN2*%
X28450000Y5642500D03*
D12*
%TO.P,J6,2,Pin_2*%
%TO.N,+3.3V*%
X25950000Y5642500D03*
%TO.P,J6,3,Pin_3*%
%TO.N,GND*%
X23450000Y5642500D03*
%TD*%
D28*
%TO.N,+3.3V*%
X26580000Y14250000D03*
X23030000Y16000000D03*
X16819899Y10280000D03*
%TO.N,GND*%
X25860000Y20190000D03*
X25870000Y19250000D03*
%TO.N,+3.3V*%
X13784899Y20255000D03*
X20079899Y24010000D03*
X26250000Y26040000D03*
%TD*%
D29*
%TO.N,/CAN/CAN_P*%
X33600000Y26480000D02*
X30510000Y23390000D01*
X34357500Y26480000D02*
X33600000Y26480000D01*
X30510000Y23390000D02*
X30520000Y23380000D01*
X30520000Y23380000D02*
X30520000Y22085000D01*
%TO.N,+3.3V*%
X26580000Y14250000D02*
X26580000Y14240000D01*
X26580000Y14240000D02*
X27810000Y13010000D01*
X27810000Y13010000D02*
X34320000Y13010000D01*
%TO.N,/CAN/CAN_P*%
X8471482Y25005000D02*
X7700000Y25005000D01*
X37358205Y25914687D02*
X37358205Y28725313D01*
X7700000Y25005000D02*
X6695000Y24000000D01*
%TO.N,/CAN/CAN_N*%
X34357500Y23980000D02*
X35332500Y23980000D01*
%TO.N,/CAN/CAN_P*%
X19601482Y36135000D02*
X8471482Y25005000D01*
X29948518Y36135000D02*
X19601482Y36135000D01*
X36918518Y25475000D02*
X37358205Y25914687D01*
%TO.N,/CAN/CAN_N*%
X35332500Y23980000D02*
X36337500Y24985000D01*
%TO.N,/CAN/CAN_P*%
X35332500Y26480000D02*
X36337500Y25475000D01*
X37358205Y28725313D02*
X29948518Y36135000D01*
X34357500Y26480000D02*
X35332500Y26480000D01*
X36337500Y25475000D02*
X36918518Y25475000D01*
%TO.N,/CAN/CAN_N*%
X19398518Y36625000D02*
X8268518Y25495000D01*
%TO.N,/CAN/CAN_P*%
X6695000Y24000000D02*
X5720000Y24000000D01*
%TO.N,/CAN/CAN_N*%
X36337500Y24985000D02*
X37121482Y24985000D01*
X37121482Y24985000D02*
X37848205Y25711723D01*
X37848205Y25711723D02*
X37848205Y28928277D01*
X37848205Y28928277D02*
X30151482Y36625000D01*
X30151482Y36625000D02*
X19398518Y36625000D01*
X8268518Y25495000D02*
X7700000Y25495000D01*
X7700000Y25495000D02*
X6695000Y26500000D01*
X6695000Y26500000D02*
X5720000Y26500000D01*
D30*
%TO.N,VCC*%
X34357500Y28980000D02*
X32340000Y28980000D01*
X32340000Y28980000D02*
X28740000Y25380000D01*
X28740000Y25380000D02*
X28740000Y24710000D01*
X28740000Y24710000D02*
X28755000Y24695000D01*
X28755000Y24695000D02*
X28755000Y21820000D01*
D29*
%TO.N,+3.3V*%
X16819899Y10280000D02*
X21312500Y10280000D01*
X21312500Y10280000D02*
X25950000Y5642500D01*
X16819899Y10280000D02*
X14050000Y7510101D01*
X14050000Y7510101D02*
X14050000Y5670000D01*
%TO.N,/MCU/SCL*%
X23550000Y32380000D02*
X23550000Y33927500D01*
%TO.N,/MCU/SDA*%
X26160000Y32330000D02*
X26160000Y34037500D01*
D31*
%TO.N,+3.3V*%
X23030000Y16000000D02*
X23030000Y15990000D01*
X23030000Y15990000D02*
X23040000Y15980000D01*
X23030000Y17080000D02*
X23030000Y16000000D01*
X23030000Y18560000D02*
X23030000Y17080000D01*
D29*
X27180000Y31530000D02*
X27180000Y26970000D01*
X27180000Y26970000D02*
X26250000Y26040000D01*
X28910000Y34287500D02*
X27180000Y32557500D01*
X27180000Y32557500D02*
X27180000Y31530000D01*
%TO.N,/MCU/SDA*%
X26160000Y31530000D02*
X26160000Y32330000D01*
X26160000Y34037500D02*
X26410000Y34287500D01*
%TO.N,/MCU/SCL*%
X23550000Y31530000D02*
X23550000Y32380000D01*
X23550000Y33927500D02*
X23910000Y34287500D01*
%TO.N,+3.3V*%
X20079899Y24010000D02*
X24220000Y24010000D01*
X24220000Y24010000D02*
X26250000Y26040000D01*
X22530000Y31530000D02*
X20190000Y31530000D01*
X20190000Y31530000D02*
X18388154Y29728154D01*
X18388154Y29728154D02*
X20079899Y28036409D01*
X20079899Y28036409D02*
X20079899Y24010000D01*
D31*
X20330000Y18520000D02*
X19840000Y19010000D01*
X21130000Y18520000D02*
X20330000Y18520000D01*
X19840000Y19010000D02*
X19840000Y23770101D01*
X19840000Y23770101D02*
X20079899Y24010000D01*
D29*
X16819899Y10280000D02*
X16819899Y10960000D01*
X16819899Y10960000D02*
X13784899Y13995000D01*
X13784899Y13995000D02*
X13784899Y20255000D01*
%TO.N,GND*%
X22227913Y21890000D02*
X22227913Y22030750D01*
%TO.N,+3.3V*%
X20079899Y24010000D02*
X17539899Y24010000D01*
X17539899Y24010000D02*
X13784899Y20255000D01*
D31*
X21170000Y18560000D02*
X21130000Y18520000D01*
X22990000Y18520000D02*
X23030000Y18560000D01*
X21130000Y18520000D02*
X22990000Y18520000D01*
D29*
%TO.N,Net-(U1-SW)*%
X23984000Y15934000D02*
X23030000Y14980000D01*
X26062396Y15934000D02*
X23984000Y15934000D01*
X27120000Y16765000D02*
X27155000Y16730000D01*
X26620000Y16730000D02*
X26376000Y16486000D01*
X26376000Y16247604D02*
X26062396Y15934000D01*
X27120000Y18300000D02*
X27120000Y16765000D01*
X26376000Y16486000D02*
X26376000Y16247604D01*
X23030000Y14980000D02*
X23030000Y14780000D01*
X27155000Y16730000D02*
X26620000Y16730000D01*
%TO.N,Net-(U1-BST)*%
X24620000Y18300000D02*
X25360000Y18300000D01*
X25605000Y18055000D02*
X25605000Y16730000D01*
X25360000Y18300000D02*
X25605000Y18055000D01*
%TO.N,Net-(U1-FB)*%
X24620000Y20200000D02*
X23040000Y20200000D01*
X23040000Y20200000D02*
X23030000Y20210000D01*
X24620000Y20640000D02*
X24620000Y20200000D01*
X23970000Y21290000D02*
X24620000Y20640000D01*
X23970000Y21920000D02*
X23970000Y21290000D01*
%TO.N,Net-(U1-EN)*%
X27105000Y21820000D02*
X27105000Y20265000D01*
X27105000Y20265000D02*
X27120000Y20250000D01*
D32*
%TO.N,/CAN/CAN_N*%
X35335000Y23270000D02*
X34360000Y23270000D01*
X34360000Y23270000D02*
X34485000Y23270000D01*
%TO.N,/CAN/CAN_P*%
X34360000Y25770000D02*
X34485000Y25770000D01*
D30*
%TO.N,VCC*%
X28860000Y20830000D02*
X28860000Y20060000D01*
X28860000Y20060000D02*
X28860000Y19430000D01*
X28860000Y19430000D02*
X28680000Y19250000D01*
X28755000Y21820000D02*
X28755000Y20935000D01*
X28680000Y19250000D02*
X27120000Y19250000D01*
X28755000Y20935000D02*
X28860000Y20830000D01*
%TD*%
%TA.AperFunction,Conductor*%
%TO.N,GND*%
G36*
X29831440Y35794815D02*
G01*
X29852082Y35778181D01*
X35469378Y30160884D01*
X35502863Y30099561D01*
X35497879Y30029869D01*
X35456007Y29973936D01*
X35390543Y29949519D01*
X35322270Y29964371D01*
X35308066Y29973431D01*
X35295382Y29982793D01*
X35209926Y30012695D01*
X35167200Y30027646D01*
X35136770Y30030500D01*
X35136766Y30030500D01*
X33578234Y30030500D01*
X33578230Y30030500D01*
X33547800Y30027646D01*
X33547798Y30027646D01*
X33476846Y30002818D01*
X33419618Y29982793D01*
X33310350Y29902150D01*
X33229708Y29792883D01*
X33229707Y29792882D01*
X33229706Y29792880D01*
X33184853Y29664701D01*
X33184853Y29664699D01*
X33182000Y29634269D01*
X33182000Y29604500D01*
X33162315Y29537461D01*
X33109511Y29491706D01*
X33058000Y29480500D01*
X32405893Y29480500D01*
X32274108Y29480500D01*
X32146814Y29446392D01*
X32032686Y29380500D01*
X28432686Y25780500D01*
X28339500Y25687314D01*
X28326053Y25664023D01*
X28273608Y25573187D01*
X28239500Y25445892D01*
X28239500Y24644106D01*
X28250275Y24603893D01*
X28254500Y24571801D01*
X28254500Y22411551D01*
X28234815Y22344512D01*
X28230819Y22338666D01*
X28226949Y22333340D01*
X28169352Y22220301D01*
X28154500Y22126524D01*
X28154500Y21513482D01*
X28166739Y21436208D01*
X28169354Y21419696D01*
X28226950Y21306658D01*
X28226953Y21306653D01*
X28230821Y21301329D01*
X28254298Y21235522D01*
X28254500Y21228448D01*
X28254500Y20869106D01*
X28255955Y20863678D01*
X28254290Y20793828D01*
X28215125Y20735967D01*
X28212980Y20734236D01*
X28196704Y20721396D01*
X28172118Y20712793D01*
X28062850Y20632150D01*
X28033963Y20593009D01*
X28020886Y20582693D01*
X28003302Y20575622D01*
X27988208Y20564162D01*
X27971557Y20562857D01*
X27956062Y20556626D01*
X27937447Y20560183D01*
X27918552Y20558703D01*
X27903838Y20566607D01*
X27887434Y20569743D01*
X27873697Y20582800D01*
X27857002Y20591770D01*
X27848898Y20606374D01*
X27836793Y20617881D01*
X27832296Y20636292D01*
X27823101Y20652864D01*
X27820681Y20667907D01*
X27820499Y20669755D01*
X27808868Y20728229D01*
X27808867Y20728230D01*
X27808867Y20728231D01*
X27764552Y20794552D01*
X27698231Y20838867D01*
X27698229Y20838867D01*
X27698229Y20838868D01*
X27654568Y20847552D01*
X27639751Y20850499D01*
X27639751Y20850500D01*
X27639748Y20850500D01*
X27549500Y20850500D01*
X27540814Y20853050D01*
X27531853Y20851762D01*
X27507812Y20862740D01*
X27482461Y20870185D01*
X27476533Y20877025D01*
X27468297Y20880787D01*
X27454007Y20903021D01*
X27436706Y20922989D01*
X27434418Y20933503D01*
X27430523Y20939565D01*
X27425500Y20974500D01*
X27425500Y21080919D01*
X27445185Y21147958D01*
X27493204Y21191403D01*
X27543340Y21216949D01*
X27543342Y21216950D01*
X27543343Y21216951D01*
X27543347Y21216954D01*
X27633045Y21306652D01*
X27633046Y21306654D01*
X27633050Y21306658D01*
X27690646Y21419696D01*
X27690646Y21419697D01*
X27690647Y21419698D01*
X27705499Y21513475D01*
X27705500Y21513481D01*
X27705499Y22126518D01*
X27690646Y22220304D01*
X27633050Y22333342D01*
X27543342Y22423050D01*
X27430304Y22480646D01*
X27430302Y22480646D01*
X27430301Y22480647D01*
X27363147Y22491282D01*
X27336519Y22495500D01*
X26873482Y22495499D01*
X26779696Y22480646D01*
X26666658Y22423050D01*
X26666654Y22423046D01*
X26666652Y22423045D01*
X26576954Y22333347D01*
X26576952Y22333344D01*
X26576950Y22333342D01*
X26537805Y22256517D01*
X26519352Y22220301D01*
X26504500Y22126524D01*
X26504500Y21513482D01*
X26516739Y21436208D01*
X26519354Y21419696D01*
X26576950Y21306658D01*
X26576951Y21306657D01*
X26576954Y21306652D01*
X26666652Y21216954D01*
X26666659Y21216949D01*
X26716796Y21191403D01*
X26727859Y21180954D01*
X26741703Y21174632D01*
X26752744Y21157451D01*
X26767591Y21143429D01*
X26771832Y21127749D01*
X26779477Y21115854D01*
X26784500Y21080919D01*
X26784500Y20974500D01*
X26764815Y20907461D01*
X26712011Y20861706D01*
X26660500Y20850500D01*
X26600249Y20850500D01*
X26600247Y20850499D01*
X26541770Y20838868D01*
X26541769Y20838867D01*
X26475447Y20794552D01*
X26431132Y20728230D01*
X26431131Y20728229D01*
X26419500Y20669752D01*
X26419500Y19830252D01*
X26430651Y19774190D01*
X26430651Y19725810D01*
X26419500Y19669747D01*
X26419500Y18830250D01*
X26425678Y18799188D01*
X26425678Y18750812D01*
X26419500Y18719749D01*
X26419500Y17880247D01*
X26431131Y17821770D01*
X26431132Y17821769D01*
X26475447Y17755447D01*
X26541769Y17711132D01*
X26541770Y17711131D01*
X26600247Y17699500D01*
X26600252Y17699500D01*
X26675500Y17699500D01*
X26684185Y17696949D01*
X26693147Y17698238D01*
X26717187Y17687259D01*
X26742539Y17679815D01*
X26748466Y17672974D01*
X26756703Y17669213D01*
X26770992Y17646978D01*
X26788294Y17627011D01*
X26790581Y17616496D01*
X26794477Y17610435D01*
X26799500Y17575500D01*
X26799500Y17467044D01*
X26779815Y17400005D01*
X26731796Y17356560D01*
X26676780Y17328528D01*
X26676776Y17328524D01*
X26676774Y17328523D01*
X26581476Y17233225D01*
X26581474Y17233222D01*
X26581472Y17233220D01*
X26549511Y17170493D01*
X26520279Y17113123D01*
X26517222Y17093817D01*
X26516304Y17091881D01*
X26516508Y17089749D01*
X26501406Y17060454D01*
X26487292Y17030683D01*
X26485165Y17028952D01*
X26484492Y17027646D01*
X26456749Y17005829D01*
X26429722Y16990225D01*
X26361822Y16973752D01*
X26295795Y16996605D01*
X26252604Y17051526D01*
X26245249Y17078215D01*
X26239720Y17113121D01*
X26239719Y17113121D01*
X26239719Y17113126D01*
X26178528Y17233220D01*
X26083220Y17328528D01*
X25993202Y17374394D01*
X25942409Y17422366D01*
X25925500Y17484877D01*
X25925500Y18097191D01*
X25925500Y18097195D01*
X25903659Y18178709D01*
X25861464Y18251792D01*
X25801792Y18311464D01*
X25801791Y18311464D01*
X25616465Y18496790D01*
X25616464Y18496792D01*
X25603944Y18509311D01*
X25570459Y18570631D01*
X25575442Y18640323D01*
X25575443Y18640325D01*
X25613596Y18742620D01*
X25613598Y18742627D01*
X25619999Y18802155D01*
X25620000Y18802172D01*
X25620000Y19697827D01*
X25619999Y19697844D01*
X25613598Y19757376D01*
X25577557Y19854004D01*
X25532182Y19808629D01*
X25470859Y19775144D01*
X25401167Y19780128D01*
X25345233Y19821999D01*
X25320816Y19887463D01*
X25320500Y19896310D01*
X25320500Y20619750D01*
X25320499Y20619752D01*
X25308868Y20678229D01*
X25308867Y20678230D01*
X25308867Y20678231D01*
X25264552Y20744552D01*
X25198231Y20788867D01*
X25198229Y20788867D01*
X25198229Y20788868D01*
X25154568Y20797552D01*
X25139751Y20800499D01*
X25139751Y20800500D01*
X25139748Y20800500D01*
X24964118Y20800500D01*
X24934677Y20809144D01*
X24904693Y20815667D01*
X24899676Y20819422D01*
X24897079Y20820185D01*
X24876439Y20836817D01*
X24866592Y20846664D01*
X24816792Y20896464D01*
X24816789Y20896465D01*
X24490002Y21223251D01*
X24456519Y21284572D01*
X24461503Y21354264D01*
X24490004Y21398611D01*
X24498045Y21406652D01*
X24498046Y21406654D01*
X24498050Y21406658D01*
X24555646Y21519696D01*
X24555647Y21519698D01*
X24570499Y21613475D01*
X24570500Y21613481D01*
X24570499Y22226518D01*
X24555646Y22320304D01*
X24498050Y22433342D01*
X24408342Y22523050D01*
X24295304Y22580646D01*
X24295302Y22580646D01*
X24295301Y22580647D01*
X24228147Y22591282D01*
X24201519Y22595500D01*
X23738482Y22595499D01*
X23644696Y22580646D01*
X23531658Y22523050D01*
X23531654Y22523046D01*
X23531652Y22523045D01*
X23441954Y22433347D01*
X23441949Y22433340D01*
X23417005Y22384386D01*
X23369030Y22333590D01*
X23301209Y22316796D01*
X23235074Y22339334D01*
X23191623Y22394050D01*
X23188135Y22403792D01*
X23163017Y22484399D01*
X23075072Y22629877D01*
X22954877Y22750072D01*
X22809395Y22838019D01*
X22809396Y22838019D01*
X22647105Y22888590D01*
X22647106Y22888590D01*
X22576591Y22894998D01*
X22576573Y22894999D01*
X22570000Y22894998D01*
X22570000Y22044000D01*
X22550315Y21976961D01*
X22497511Y21931206D01*
X22446000Y21920000D01*
X22320000Y21920000D01*
X22320000Y21794000D01*
X22300315Y21726961D01*
X22247511Y21681206D01*
X22196000Y21670000D01*
X21420001Y21670000D01*
X21420001Y21588425D01*
X21425442Y21528529D01*
X21411903Y21459984D01*
X21389631Y21429630D01*
X21380000Y21419999D01*
X21380000Y20544000D01*
X21360315Y20476961D01*
X21307511Y20431206D01*
X21256000Y20420000D01*
X21004000Y20420000D01*
X20936961Y20439685D01*
X20891206Y20492489D01*
X20880000Y20544000D01*
X20880000Y21419999D01*
X20605028Y21419999D01*
X20605013Y21419998D01*
X20502302Y21409505D01*
X20358504Y21361855D01*
X20288676Y21359453D01*
X20228634Y21395185D01*
X20197441Y21457705D01*
X20195500Y21479561D01*
X20195500Y22251572D01*
X21420000Y22251572D01*
X21420000Y22170000D01*
X22070000Y22170000D01*
X22070000Y22894999D01*
X22063417Y22894999D01*
X21992897Y22888591D01*
X21992892Y22888590D01*
X21830603Y22838018D01*
X21685122Y22750072D01*
X21564927Y22629877D01*
X21476980Y22484395D01*
X21426409Y22322106D01*
X21420000Y22251572D01*
X20195500Y22251572D01*
X20195500Y23428617D01*
X20215185Y23495656D01*
X20249244Y23530794D01*
X20264556Y23541322D01*
X20273085Y23543608D01*
X20387213Y23609500D01*
X20438943Y23661230D01*
X20448319Y23667677D01*
X20471141Y23675157D01*
X20492217Y23686666D01*
X20513100Y23688911D01*
X20514713Y23689440D01*
X20515679Y23689188D01*
X20518575Y23689500D01*
X24262196Y23689500D01*
X24343709Y23711341D01*
X24416792Y23753536D01*
X24476464Y23813208D01*
X24483532Y23820276D01*
X24483534Y23820279D01*
X26166436Y25503181D01*
X26227759Y25536666D01*
X26254117Y25539500D01*
X26315891Y25539500D01*
X26315892Y25539500D01*
X26443186Y25573608D01*
X26557314Y25639500D01*
X26650500Y25732686D01*
X26716392Y25846814D01*
X26750500Y25974108D01*
X26750500Y26035883D01*
X26770185Y26102922D01*
X26786819Y26123564D01*
X27367384Y26704129D01*
X27376789Y26713534D01*
X27376792Y26713536D01*
X27436464Y26773208D01*
X27475040Y26840024D01*
X27475043Y26840027D01*
X27478660Y26846291D01*
X27498937Y26921970D01*
X27500501Y26927806D01*
X27500501Y27012195D01*
X27500501Y27022184D01*
X27500500Y27022197D01*
X27500500Y31004669D01*
X27520185Y31071708D01*
X27536819Y31092350D01*
X27594064Y31149595D01*
X27594065Y31149596D01*
X27644068Y31256827D01*
X27650500Y31305684D01*
X27650500Y31754316D01*
X27644068Y31803173D01*
X27594065Y31910404D01*
X27536819Y31967650D01*
X27503334Y32028973D01*
X27500500Y32055331D01*
X27500500Y32373382D01*
X27520185Y32440421D01*
X27536819Y32461063D01*
X28279507Y33203751D01*
X28340830Y33237236D01*
X28410522Y33232252D01*
X28414641Y33230631D01*
X28603579Y33152370D01*
X28603587Y33152368D01*
X28806530Y33112000D01*
X28806535Y33112000D01*
X29013469Y33112000D01*
X29216412Y33152368D01*
X29216420Y33152370D01*
X29407596Y33231558D01*
X29407598Y33231559D01*
X29579654Y33346522D01*
X29579657Y33346524D01*
X29725975Y33492842D01*
X29786865Y33583971D01*
X29840941Y33664902D01*
X29920130Y33856080D01*
X29960500Y34059035D01*
X29960500Y34515965D01*
X29920130Y34718920D01*
X29840941Y34910098D01*
X29725977Y35082155D01*
X29579655Y35228477D01*
X29407598Y35343441D01*
X29216420Y35422630D01*
X29013467Y35462999D01*
X29013466Y35463000D01*
X29013465Y35463000D01*
X28806535Y35463000D01*
X28806534Y35463000D01*
X28806530Y35462999D01*
X28603580Y35422630D01*
X28412402Y35343441D01*
X28241498Y35229247D01*
X28240342Y35228475D01*
X28094024Y35082157D01*
X27979058Y34910096D01*
X27899870Y34718920D01*
X27899868Y34718912D01*
X27859500Y34515969D01*
X27859500Y34059030D01*
X27899868Y33856082D01*
X27899869Y33856079D01*
X27904909Y33843913D01*
X27912375Y33774443D01*
X27881098Y33711965D01*
X27878027Y33708783D01*
X26990279Y32821034D01*
X26990273Y32821029D01*
X26983208Y32813964D01*
X26923536Y32754292D01*
X26881341Y32681209D01*
X26859500Y32599696D01*
X26859500Y32055331D01*
X26850886Y32025998D01*
X26844445Y31996112D01*
X26840600Y31990965D01*
X26839815Y31988292D01*
X26823348Y31967817D01*
X26765935Y31910404D01*
X26765742Y31909992D01*
X26757848Y31902067D01*
X26736254Y31890222D01*
X26717023Y31874843D01*
X26706163Y31873716D01*
X26696589Y31868465D01*
X26672019Y31870175D01*
X26647526Y31867635D01*
X26637780Y31872558D01*
X26626888Y31873317D01*
X26607146Y31888036D01*
X26585165Y31899143D01*
X26581906Y31902903D01*
X26581736Y31902733D01*
X26516819Y31967650D01*
X26483334Y32028973D01*
X26480500Y32055331D01*
X26480500Y33003678D01*
X26500185Y33070717D01*
X26552989Y33116472D01*
X26580309Y33125295D01*
X26716412Y33152368D01*
X26716420Y33152370D01*
X26907596Y33231558D01*
X26907598Y33231559D01*
X27079654Y33346522D01*
X27079657Y33346524D01*
X27225975Y33492842D01*
X27286865Y33583971D01*
X27340941Y33664902D01*
X27420130Y33856080D01*
X27460500Y34059035D01*
X27460500Y34515965D01*
X27420130Y34718920D01*
X27340941Y34910098D01*
X27225977Y35082155D01*
X27079655Y35228477D01*
X26907598Y35343441D01*
X26716420Y35422630D01*
X26513467Y35462999D01*
X26513466Y35463000D01*
X26513465Y35463000D01*
X26306535Y35463000D01*
X26306534Y35463000D01*
X26306530Y35462999D01*
X26103580Y35422630D01*
X25912402Y35343441D01*
X25741498Y35229247D01*
X25740342Y35228475D01*
X25594024Y35082157D01*
X25479058Y34910096D01*
X25399870Y34718920D01*
X25399868Y34718912D01*
X25359500Y34515969D01*
X25359500Y34059030D01*
X25399868Y33856087D01*
X25399870Y33856079D01*
X25479058Y33664903D01*
X25594024Y33492842D01*
X25740341Y33346525D01*
X25740345Y33346522D01*
X25784391Y33317092D01*
X25829196Y33263480D01*
X25839500Y33213990D01*
X25839500Y32055331D01*
X25819815Y31988292D01*
X25803181Y31967650D01*
X25745935Y31910404D01*
X25695931Y31803171D01*
X25689500Y31754316D01*
X25689500Y31305683D01*
X25695931Y31256828D01*
X25745935Y31149595D01*
X25829595Y31065935D01*
X25936829Y31015931D01*
X25936827Y31015931D01*
X25985683Y31009500D01*
X25985684Y31009500D01*
X26334317Y31009500D01*
X26383171Y31015931D01*
X26490404Y31065935D01*
X26581736Y31157267D01*
X26584559Y31154443D01*
X26623042Y31185183D01*
X26692542Y31192352D01*
X26754886Y31160808D01*
X26757847Y31157933D01*
X26765743Y31150006D01*
X26765935Y31149596D01*
X26823347Y31092184D01*
X26840005Y31061537D01*
X26856666Y31031027D01*
X26856684Y31030854D01*
X26856716Y31030797D01*
X26856705Y31030657D01*
X26859500Y31004669D01*
X26859500Y27154117D01*
X26839815Y27087078D01*
X26823181Y27066436D01*
X26333564Y26576819D01*
X26272241Y26543334D01*
X26245883Y26540500D01*
X26184108Y26540500D01*
X26056814Y26506392D01*
X25942686Y26440500D01*
X25849500Y26347314D01*
X25816554Y26290250D01*
X25783608Y26233187D01*
X25749500Y26105891D01*
X25749500Y26044117D01*
X25729815Y25977078D01*
X25713181Y25956436D01*
X24123564Y24366819D01*
X24062241Y24333334D01*
X24035883Y24330500D01*
X20524399Y24330500D01*
X20457360Y24350185D01*
X20411605Y24402989D01*
X20400399Y24454500D01*
X20400399Y27986601D01*
X20400400Y27986619D01*
X20400400Y28078601D01*
X20400400Y28078603D01*
X20378558Y28160117D01*
X20378558Y28160118D01*
X20336363Y28233201D01*
X20276691Y28292873D01*
X20276689Y28292873D01*
X20266486Y28303077D01*
X20266481Y28303081D01*
X19383511Y29186050D01*
X19350028Y29247371D01*
X19355012Y29317063D01*
X19356616Y29321139D01*
X19398284Y29421734D01*
X19438654Y29624689D01*
X19438654Y29831619D01*
X19398284Y30034574D01*
X19356633Y30135125D01*
X19349164Y30204592D01*
X19380438Y30267072D01*
X19383513Y30270258D01*
X20286436Y31173181D01*
X20347759Y31206666D01*
X20374117Y31209500D01*
X22009440Y31209500D01*
X22076479Y31189815D01*
X22111015Y31156623D01*
X22115936Y31149594D01*
X22199595Y31065935D01*
X22306829Y31015931D01*
X22306827Y31015931D01*
X22355683Y31009500D01*
X22355684Y31009500D01*
X22704317Y31009500D01*
X22753171Y31015931D01*
X22860404Y31065935D01*
X22951736Y31157267D01*
X22954559Y31154443D01*
X22993042Y31185183D01*
X23062542Y31192352D01*
X23124886Y31160808D01*
X23128098Y31157101D01*
X23128264Y31157267D01*
X23219595Y31065935D01*
X23326829Y31015931D01*
X23326827Y31015931D01*
X23375683Y31009500D01*
X23375684Y31009500D01*
X23724317Y31009500D01*
X23773171Y31015931D01*
X23880404Y31065935D01*
X23964064Y31149595D01*
X23964065Y31149596D01*
X24014068Y31256827D01*
X24020500Y31305684D01*
X24020500Y31754316D01*
X24014068Y31803173D01*
X23964065Y31910404D01*
X23906819Y31967650D01*
X23873334Y32028973D01*
X23870500Y32055331D01*
X23870500Y32988000D01*
X23890185Y33055039D01*
X23942989Y33100794D01*
X23994500Y33112000D01*
X24013469Y33112000D01*
X24216412Y33152368D01*
X24216420Y33152370D01*
X24407596Y33231558D01*
X24407598Y33231559D01*
X24579654Y33346522D01*
X24579657Y33346524D01*
X24725975Y33492842D01*
X24786865Y33583971D01*
X24840941Y33664902D01*
X24920130Y33856080D01*
X24960500Y34059035D01*
X24960500Y34515965D01*
X24920130Y34718920D01*
X24840941Y34910098D01*
X24725977Y35082155D01*
X24579655Y35228477D01*
X24407598Y35343441D01*
X24216420Y35422630D01*
X24013467Y35462999D01*
X24013466Y35463000D01*
X24013465Y35463000D01*
X23806535Y35463000D01*
X23806534Y35463000D01*
X23806530Y35462999D01*
X23603580Y35422630D01*
X23412402Y35343441D01*
X23241498Y35229247D01*
X23240342Y35228475D01*
X23094024Y35082157D01*
X23063930Y35037118D01*
X22987100Y34922132D01*
X22933490Y34877329D01*
X22864165Y34868621D01*
X22801137Y34898775D01*
X22764417Y34958218D01*
X22759999Y34991024D01*
X22759999Y35062471D01*
X22759998Y35062487D01*
X22749505Y35165197D01*
X22694358Y35331619D01*
X22694356Y35331624D01*
X22602315Y35480845D01*
X22480342Y35602819D01*
X22446857Y35664142D01*
X22451841Y35733834D01*
X22493713Y35789767D01*
X22559177Y35814184D01*
X22568023Y35814500D01*
X29764401Y35814500D01*
X29831440Y35794815D01*
G37*
%TD.AperFunction*%
%TA.AperFunction,Conductor*%
G36*
X25090729Y19579815D02*
G01*
X25136484Y19527011D01*
X25146428Y19457853D01*
X25117403Y19394297D01*
X25111371Y19387819D01*
X24884456Y19160905D01*
X24823133Y19127420D01*
X24753441Y19132404D01*
X24709094Y19160905D01*
X24530905Y19339095D01*
X24497420Y19400418D01*
X24502404Y19470110D01*
X24530905Y19514457D01*
X24579629Y19563181D01*
X24640952Y19596666D01*
X24667310Y19599500D01*
X25023690Y19599500D01*
X25090729Y19579815D01*
G37*
%TD.AperFunction*%
%TA.AperFunction,Conductor*%
G36*
X35502855Y39499368D02*
G01*
X35863303Y39482703D01*
X35874707Y39481646D01*
X36229231Y39432192D01*
X36240490Y39430087D01*
X36588931Y39348135D01*
X36599947Y39345001D01*
X36939355Y39231243D01*
X36950035Y39227105D01*
X37277482Y39082523D01*
X37287735Y39077418D01*
X37600452Y38903234D01*
X37610190Y38897205D01*
X37905512Y38694906D01*
X37914652Y38688003D01*
X38190035Y38459328D01*
X38198499Y38451612D01*
X38451612Y38198499D01*
X38459328Y38190035D01*
X38688003Y37914652D01*
X38694906Y37905512D01*
X38897205Y37610190D01*
X38903234Y37600452D01*
X39077418Y37287735D01*
X39082523Y37277482D01*
X39227105Y36950035D01*
X39231243Y36939355D01*
X39345001Y36599947D01*
X39348135Y36588931D01*
X39430087Y36240490D01*
X39432192Y36229231D01*
X39481646Y35874707D01*
X39482703Y35863303D01*
X39499368Y35502855D01*
X39499500Y35497128D01*
X39499500Y4502871D01*
X39499368Y4497144D01*
X39482703Y4136696D01*
X39481646Y4125292D01*
X39432192Y3770768D01*
X39430087Y3759509D01*
X39348135Y3411068D01*
X39345001Y3400052D01*
X39231243Y3060644D01*
X39227105Y3049965D01*
X39186527Y2958064D01*
X39082523Y2722517D01*
X39077418Y2712264D01*
X38903234Y2399547D01*
X38897205Y2389809D01*
X38694906Y2094487D01*
X38688003Y2085347D01*
X38459328Y1809964D01*
X38451612Y1801500D01*
X38198499Y1548387D01*
X38190035Y1540671D01*
X37914652Y1311996D01*
X37905512Y1305093D01*
X37610190Y1102794D01*
X37600452Y1096765D01*
X37287735Y922581D01*
X37277488Y917479D01*
X36950022Y772889D01*
X36939368Y768761D01*
X36599934Y654994D01*
X36588944Y651867D01*
X36240482Y569910D01*
X36229238Y567808D01*
X35874700Y518352D01*
X35863310Y517296D01*
X35509174Y500924D01*
X35502855Y500632D01*
X35497128Y500500D01*
X4502872Y500500D01*
X4497145Y500632D01*
X4491523Y500891D01*
X4136687Y517296D01*
X4125301Y518352D01*
X3770757Y567809D01*
X3759520Y569909D01*
X3411049Y651869D01*
X3400070Y654992D01*
X3060623Y768763D01*
X3049984Y772886D01*
X2722503Y917482D01*
X2712277Y922574D01*
X2399541Y1096768D01*
X2389814Y1102790D01*
X2094472Y1305103D01*
X2085360Y1311985D01*
X1809951Y1540682D01*
X1801511Y1548376D01*
X1548376Y1801511D01*
X1540682Y1809951D01*
X1311985Y2085360D01*
X1305103Y2094472D01*
X1102790Y2389814D01*
X1096765Y2399547D01*
X957541Y2649500D01*
X922574Y2712277D01*
X917482Y2722503D01*
X772886Y3049984D01*
X768763Y3060623D01*
X654992Y3400070D01*
X651869Y3411049D01*
X569909Y3759520D01*
X567809Y3770757D01*
X518352Y4125301D01*
X517296Y4136696D01*
X514819Y4190268D01*
X500631Y4497145D01*
X500500Y4502871D01*
X500500Y4621288D01*
X2649500Y4621288D01*
X2649500Y4378711D01*
X2681161Y4138214D01*
X2743947Y3903895D01*
X2836773Y3679794D01*
X2836777Y3679785D01*
X2958067Y3469706D01*
X3105733Y3277263D01*
X3105739Y3277256D01*
X3277256Y3105739D01*
X3277263Y3105733D01*
X3469706Y2958067D01*
X3679785Y2836777D01*
X3679794Y2836773D01*
X3903895Y2743947D01*
X4138214Y2681161D01*
X4378711Y2649500D01*
X4378712Y2649500D01*
X4621289Y2649500D01*
X4861785Y2681161D01*
X5096104Y2743947D01*
X5320205Y2836773D01*
X5320214Y2836777D01*
X5358661Y2858974D01*
X5530289Y2958064D01*
X5656898Y3055214D01*
X5722736Y3105733D01*
X5722743Y3105739D01*
X5894260Y3277256D01*
X5894266Y3277263D01*
X6041932Y3469706D01*
X6041936Y3469711D01*
X6163224Y3679788D01*
X6256054Y3903900D01*
X6318838Y4138211D01*
X6350500Y4378712D01*
X6350500Y4621288D01*
X6318838Y4861789D01*
X6256054Y5096100D01*
X6163224Y5320212D01*
X6041936Y5530289D01*
X5894265Y5722738D01*
X5884468Y5732535D01*
X5821748Y5795256D01*
X5722743Y5894260D01*
X5722738Y5894265D01*
X5530289Y6041936D01*
X5320212Y6163224D01*
X5096100Y6256054D01*
X4861789Y6318838D01*
X4669388Y6344167D01*
X4621289Y6350500D01*
X4621288Y6350500D01*
X4378712Y6350500D01*
X4378711Y6350500D01*
X4318586Y6342584D01*
X4138211Y6318838D01*
X3903900Y6256054D01*
X3679788Y6163224D01*
X3469711Y6041936D01*
X3469706Y6041932D01*
X3277263Y5894266D01*
X3277256Y5894260D01*
X3105739Y5722743D01*
X3105733Y5722736D01*
X2958067Y5530293D01*
X2958064Y5530289D01*
X2870338Y5378343D01*
X2836777Y5320214D01*
X2836773Y5320205D01*
X2743947Y5096104D01*
X2681161Y4861785D01*
X2649500Y4621288D01*
X500500Y4621288D01*
X500500Y22154269D01*
X4544500Y22154269D01*
X4544500Y20845730D01*
X4547353Y20815300D01*
X4547353Y20815298D01*
X4592206Y20687119D01*
X4592207Y20687117D01*
X4672850Y20577850D01*
X4782117Y20497207D01*
X4782119Y20497206D01*
X4910299Y20452353D01*
X4940730Y20449500D01*
X4940734Y20449500D01*
X6499270Y20449500D01*
X6529699Y20452353D01*
X6529701Y20452353D01*
X6657880Y20497206D01*
X6657882Y20497207D01*
X6689443Y20520500D01*
X6767150Y20577850D01*
X6847793Y20687118D01*
X6870688Y20752548D01*
X6892646Y20815298D01*
X6892646Y20815300D01*
X6895500Y20845730D01*
X6895500Y22154269D01*
X6892646Y22184699D01*
X6892646Y22184701D01*
X6869246Y22251572D01*
X6847793Y22312882D01*
X6767150Y22422150D01*
X6657882Y22502793D01*
X6572426Y22532695D01*
X6529700Y22547646D01*
X6499270Y22550500D01*
X6499266Y22550500D01*
X4940734Y22550500D01*
X4940730Y22550500D01*
X4910300Y22547646D01*
X4910298Y22547646D01*
X4814163Y22514006D01*
X4782118Y22502793D01*
X4672850Y22422150D01*
X4607490Y22333590D01*
X4592207Y22312882D01*
X4592206Y22312880D01*
X4547353Y22184701D01*
X4547353Y22184699D01*
X4544500Y22154269D01*
X500500Y22154269D01*
X500500Y29250000D01*
X4267769Y29250000D01*
X5315854Y29250000D01*
X5277370Y29183343D01*
X5245000Y29062535D01*
X5245000Y28937465D01*
X5277370Y28816657D01*
X5315854Y28750000D01*
X4267769Y28750000D01*
X4278242Y28683873D01*
X4278242Y28683870D01*
X4343904Y28481782D01*
X4440379Y28292442D01*
X4565272Y28120540D01*
X4565276Y28120535D01*
X4715535Y27970276D01*
X4715540Y27970272D01*
X4887442Y27845379D01*
X5076781Y27748905D01*
X5198856Y27709240D01*
X5256531Y27669802D01*
X5283729Y27605443D01*
X5271814Y27536597D01*
X5224570Y27485121D01*
X5207993Y27476749D01*
X5097402Y27430941D01*
X5067470Y27410941D01*
X4925342Y27315975D01*
X4779024Y27169657D01*
X4743256Y27116126D01*
X4673813Y27012195D01*
X4664058Y26997596D01*
X4584870Y26806420D01*
X4584868Y26806412D01*
X4544500Y26603469D01*
X4544500Y26396530D01*
X4584868Y26193587D01*
X4584870Y26193579D01*
X4664058Y26002403D01*
X4779024Y25830342D01*
X4925342Y25684024D01*
X5097403Y25569058D01*
X5288579Y25489870D01*
X5288587Y25489868D01*
X5491530Y25449500D01*
X5491535Y25449500D01*
X5948469Y25449500D01*
X6151412Y25489868D01*
X6151420Y25489870D01*
X6342596Y25569058D01*
X6342598Y25569059D01*
X6492968Y25669532D01*
X6514657Y25684024D01*
X6660972Y25830339D01*
X6660972Y25830340D01*
X6660977Y25830345D01*
X6677338Y25854832D01*
X6730949Y25899636D01*
X6800274Y25908344D01*
X6863302Y25878190D01*
X6868121Y25873622D01*
X7404063Y25337680D01*
X7437548Y25276357D01*
X7432564Y25206665D01*
X7404063Y25162318D01*
X6868121Y24626376D01*
X6806798Y24592891D01*
X6737106Y24597875D01*
X6681173Y24639747D01*
X6677370Y24645120D01*
X6660977Y24669655D01*
X6514655Y24815977D01*
X6342598Y24930941D01*
X6151420Y25010130D01*
X5948467Y25050499D01*
X5948466Y25050500D01*
X5948465Y25050500D01*
X5491535Y25050500D01*
X5491534Y25050500D01*
X5491530Y25050499D01*
X5288580Y25010130D01*
X5097402Y24930941D01*
X5067470Y24910941D01*
X4925342Y24815975D01*
X4779024Y24669657D01*
X4731061Y24597875D01*
X4678718Y24519536D01*
X4664058Y24497596D01*
X4584870Y24306420D01*
X4584868Y24306412D01*
X4544500Y24103469D01*
X4544500Y23896530D01*
X4584868Y23693587D01*
X4584870Y23693579D01*
X4664058Y23502403D01*
X4779024Y23330342D01*
X4925342Y23184024D01*
X5097403Y23069058D01*
X5288579Y22989870D01*
X5288587Y22989868D01*
X5491530Y22949500D01*
X5491535Y22949500D01*
X5948469Y22949500D01*
X6151412Y22989868D01*
X6151420Y22989870D01*
X6342596Y23069058D01*
X6342598Y23069059D01*
X6484724Y23164024D01*
X6514657Y23184024D01*
X6660974Y23330341D01*
X6660976Y23330344D01*
X6698158Y23385990D01*
X6775941Y23502402D01*
X6775943Y23502405D01*
X6838470Y23653360D01*
X6855130Y23693580D01*
X6855130Y23693581D01*
X6855666Y23694875D01*
X6860527Y23702108D01*
X6861716Y23707434D01*
X6872619Y23720101D01*
X6883019Y23735575D01*
X6890048Y23742529D01*
X6891792Y23743536D01*
X6951464Y23803208D01*
X6951465Y23803210D01*
X7488255Y24340000D01*
X11292777Y24340000D01*
X11313237Y24197686D01*
X11313238Y24197681D01*
X11372964Y24066902D01*
X11410544Y24020267D01*
X11410548Y24020263D01*
X11868629Y23562183D01*
X12517037Y24210591D01*
X12534075Y24147007D01*
X12599901Y24032993D01*
X12692993Y23939901D01*
X12807007Y23874075D01*
X12870591Y23857037D01*
X12222183Y23208629D01*
X12680263Y22750548D01*
X12680267Y22750544D01*
X12726902Y22712964D01*
X12857681Y22653238D01*
X12857686Y22653237D01*
X13000000Y22632777D01*
X13142313Y22653237D01*
X13142318Y22653238D01*
X13273097Y22712964D01*
X13319732Y22750544D01*
X13777817Y23208629D01*
X13129408Y23857037D01*
X13192993Y23874075D01*
X13307007Y23939901D01*
X13400099Y24032993D01*
X13465925Y24147007D01*
X13482962Y24210591D01*
X14131371Y23562183D01*
X14589455Y24020267D01*
X14627035Y24066902D01*
X14686761Y24197681D01*
X14686762Y24197686D01*
X14707222Y24340000D01*
X14686762Y24482313D01*
X14686761Y24482318D01*
X14627035Y24613097D01*
X14589455Y24659732D01*
X14305011Y24944176D01*
X14271526Y25005499D01*
X14276510Y25075190D01*
X14318381Y25131124D01*
X14383846Y25155541D01*
X14440143Y25146419D01*
X14489631Y25125921D01*
X14489638Y25125919D01*
X14692581Y25085551D01*
X14692586Y25085551D01*
X14899520Y25085551D01*
X15102463Y25125919D01*
X15102471Y25125921D01*
X15293647Y25205109D01*
X15293649Y25205110D01*
X15379677Y25262592D01*
X15465708Y25320075D01*
X15612026Y25466393D01*
X15644458Y25514931D01*
X15726992Y25638453D01*
X15806181Y25829631D01*
X15846551Y26032586D01*
X15846551Y26239516D01*
X15806181Y26442471D01*
X15726992Y26633649D01*
X15612028Y26805706D01*
X15465706Y26952028D01*
X15293649Y27066992D01*
X15102471Y27146181D01*
X14899518Y27186550D01*
X14899517Y27186551D01*
X14899516Y27186551D01*
X14692586Y27186551D01*
X14692585Y27186551D01*
X14692581Y27186550D01*
X14489631Y27146181D01*
X14298453Y27066992D01*
X14127549Y26952798D01*
X14126393Y26952026D01*
X13980075Y26805708D01*
X13865109Y26633647D01*
X13785921Y26442471D01*
X13785919Y26442463D01*
X13745551Y26239520D01*
X13745551Y26032581D01*
X13785919Y25829638D01*
X13785921Y25829631D01*
X13806419Y25780143D01*
X13813886Y25710674D01*
X13782611Y25648195D01*
X13722521Y25612543D01*
X13652696Y25615038D01*
X13604176Y25645011D01*
X13319732Y25929455D01*
X13273097Y25967035D01*
X13142318Y26026761D01*
X13142313Y26026762D01*
X13000000Y26047223D01*
X12857686Y26026762D01*
X12857681Y26026761D01*
X12726902Y25967035D01*
X12680267Y25929455D01*
X12222183Y25471371D01*
X12870591Y24822962D01*
X12807007Y24805925D01*
X12692993Y24740099D01*
X12599901Y24647007D01*
X12534075Y24532993D01*
X12517037Y24469408D01*
X11868629Y25117817D01*
X11410544Y24659732D01*
X11372964Y24613097D01*
X11313238Y24482318D01*
X11313237Y24482313D01*
X11292777Y24340000D01*
X7488255Y24340000D01*
X7796436Y24648181D01*
X7857759Y24681666D01*
X7884117Y24684500D01*
X8513678Y24684500D01*
X8595191Y24706341D01*
X8633633Y24728536D01*
X8668274Y24748536D01*
X8727946Y24808208D01*
X8735014Y24815276D01*
X8735016Y24815279D01*
X11955308Y28035571D01*
X15541602Y28035571D01*
X15541602Y27828632D01*
X15581970Y27625689D01*
X15581972Y27625681D01*
X15661160Y27434505D01*
X15776126Y27262444D01*
X15922444Y27116126D01*
X16094505Y27001160D01*
X16285681Y26921972D01*
X16285689Y26921970D01*
X16488632Y26881602D01*
X16488637Y26881602D01*
X16695571Y26881602D01*
X16898514Y26921970D01*
X16898522Y26921972D01*
X17089698Y27001160D01*
X17089700Y27001161D01*
X17218285Y27087078D01*
X17261759Y27116126D01*
X17408077Y27262444D01*
X17408849Y27263600D01*
X17523043Y27434504D01*
X17602232Y27625682D01*
X17642602Y27828637D01*
X17642602Y28035567D01*
X17602232Y28238522D01*
X17523043Y28429700D01*
X17408079Y28601757D01*
X17261757Y28748079D01*
X17089700Y28863043D01*
X16898522Y28942232D01*
X16695569Y28982601D01*
X16695568Y28982602D01*
X16695567Y28982602D01*
X16488637Y28982602D01*
X16488636Y28982602D01*
X16488632Y28982601D01*
X16285682Y28942232D01*
X16094504Y28863043D01*
X15987252Y28791380D01*
X15922444Y28748077D01*
X15776126Y28601759D01*
X15776125Y28601757D01*
X15692543Y28476666D01*
X15661160Y28429698D01*
X15581972Y28238522D01*
X15581970Y28238514D01*
X15541602Y28035571D01*
X11955308Y28035571D01*
X19697918Y35778181D01*
X19759241Y35811666D01*
X19785599Y35814500D01*
X20251977Y35814500D01*
X20319016Y35794815D01*
X20364771Y35742011D01*
X20374715Y35672853D01*
X20345690Y35609297D01*
X20339658Y35602819D01*
X20217684Y35480845D01*
X20125643Y35331624D01*
X20125641Y35331619D01*
X20070494Y35165197D01*
X20070493Y35165190D01*
X20060000Y35062486D01*
X20060000Y34537500D01*
X21005854Y34537500D01*
X20967370Y34470843D01*
X20935000Y34350035D01*
X20935000Y34224965D01*
X20967370Y34104157D01*
X21005854Y34037500D01*
X20060001Y34037500D01*
X20060001Y33512513D01*
X20070494Y33409802D01*
X20125641Y33243380D01*
X20125643Y33243375D01*
X20217684Y33094154D01*
X20341654Y32970184D01*
X20490875Y32878143D01*
X20490880Y32878141D01*
X20657302Y32822994D01*
X20657309Y32822993D01*
X20760013Y32812500D01*
X21160000Y32812500D01*
X21160000Y33883354D01*
X21226657Y33844870D01*
X21347465Y33812500D01*
X21472535Y33812500D01*
X21593343Y33844870D01*
X21660000Y33883354D01*
X21660000Y32812500D01*
X22059971Y32812500D01*
X22059987Y32812501D01*
X22162697Y32822994D01*
X22329119Y32878141D01*
X22329124Y32878143D01*
X22478345Y32970184D01*
X22602315Y33094154D01*
X22694356Y33243375D01*
X22694358Y33243380D01*
X22749505Y33409802D01*
X22749506Y33409809D01*
X22759999Y33512513D01*
X22759999Y33583971D01*
X22779683Y33651011D01*
X22832486Y33696767D01*
X22901644Y33706711D01*
X22965200Y33677687D01*
X22987101Y33652864D01*
X23094022Y33492845D01*
X23094025Y33492841D01*
X23193181Y33393686D01*
X23226666Y33332363D01*
X23229500Y33306005D01*
X23229500Y32055331D01*
X23220886Y32025998D01*
X23214445Y31996112D01*
X23210600Y31990965D01*
X23209815Y31988292D01*
X23193348Y31967817D01*
X23135935Y31910404D01*
X23135742Y31909992D01*
X23127848Y31902067D01*
X23106254Y31890222D01*
X23087023Y31874843D01*
X23076163Y31873716D01*
X23066589Y31868465D01*
X23042019Y31870175D01*
X23017526Y31867635D01*
X23007780Y31872558D01*
X22996888Y31873317D01*
X22977146Y31888036D01*
X22955165Y31899143D01*
X22951906Y31902903D01*
X22951736Y31902733D01*
X22944064Y31910405D01*
X22860404Y31994065D01*
X22753173Y32044068D01*
X22728744Y32047284D01*
X22704317Y32050500D01*
X22704316Y32050500D01*
X22355684Y32050500D01*
X22355683Y32050500D01*
X22331255Y32047284D01*
X22306827Y32044068D01*
X22199596Y31994065D01*
X22199595Y31994064D01*
X22115936Y31910405D01*
X22111015Y31903377D01*
X22056438Y31859752D01*
X22009440Y31850500D01*
X20147805Y31850500D01*
X20066291Y31828659D01*
X20022145Y31803171D01*
X19993208Y31786464D01*
X19929205Y31722461D01*
X19929195Y31722450D01*
X18930258Y30723513D01*
X18868935Y30690028D01*
X18799243Y30695012D01*
X18795166Y30696616D01*
X18694574Y30738284D01*
X18491621Y30778653D01*
X18491620Y30778654D01*
X18491619Y30778654D01*
X18284689Y30778654D01*
X18284688Y30778654D01*
X18284684Y30778653D01*
X18081734Y30738284D01*
X17890556Y30659095D01*
X17719652Y30544901D01*
X17718496Y30544129D01*
X17572178Y30397811D01*
X17457212Y30225750D01*
X17378024Y30034574D01*
X17378022Y30034566D01*
X17337654Y29831623D01*
X17337654Y29624684D01*
X17378022Y29421741D01*
X17378024Y29421733D01*
X17457212Y29230557D01*
X17572178Y29058496D01*
X17718496Y28912178D01*
X17890557Y28797212D01*
X18081733Y28718024D01*
X18081741Y28718022D01*
X18284684Y28677654D01*
X18284689Y28677654D01*
X18491623Y28677654D01*
X18694566Y28718022D01*
X18694578Y28718025D01*
X18795125Y28759673D01*
X18864594Y28767142D01*
X18927073Y28735867D01*
X18930258Y28732793D01*
X19723080Y27939972D01*
X19756565Y27878649D01*
X19759399Y27852291D01*
X19759399Y24454500D01*
X19739714Y24387461D01*
X19686910Y24341706D01*
X19635399Y24330500D01*
X17497704Y24330500D01*
X17416190Y24308659D01*
X17377658Y24286412D01*
X17343107Y24266464D01*
X17279104Y24202461D01*
X17279094Y24202450D01*
X13868463Y20791819D01*
X13807140Y20758334D01*
X13780782Y20755500D01*
X13719007Y20755500D01*
X13591713Y20721392D01*
X13477585Y20655500D01*
X13384399Y20562314D01*
X13361633Y20522882D01*
X13318507Y20448187D01*
X13316229Y20439685D01*
X13285602Y20325379D01*
X13284399Y20320891D01*
X13284399Y20189108D01*
X13318507Y20061812D01*
X13384399Y19947686D01*
X13384401Y19947683D01*
X13428080Y19904005D01*
X13461565Y19842682D01*
X13464399Y19816324D01*
X13464399Y13952803D01*
X13486240Y13871290D01*
X13528435Y13798208D01*
X13528437Y13798205D01*
X16463080Y10863563D01*
X16477783Y10836635D01*
X16494376Y10810817D01*
X16495267Y10804616D01*
X16496565Y10802240D01*
X16499399Y10775882D01*
X16499399Y10718676D01*
X16479714Y10651637D01*
X16463080Y10630995D01*
X16419399Y10587314D01*
X16390041Y10536464D01*
X16353507Y10473187D01*
X16319399Y10345891D01*
X16319399Y10284117D01*
X16299714Y10217078D01*
X16283080Y10196436D01*
X13860279Y7773635D01*
X13860273Y7773630D01*
X13853208Y7766565D01*
X13793536Y7706893D01*
X13751341Y7633810D01*
X13729500Y7552297D01*
X13729500Y6882151D01*
X13709815Y6815112D01*
X13657011Y6769357D01*
X13652952Y6767590D01*
X13552402Y6725941D01*
X13381113Y6611490D01*
X13380342Y6610975D01*
X13234024Y6464657D01*
X13119057Y6292596D01*
X13073251Y6182009D01*
X13029410Y6127606D01*
X12963116Y6105541D01*
X12895416Y6122820D01*
X12847806Y6173958D01*
X12840759Y6191144D01*
X12801095Y6313217D01*
X12704620Y6502557D01*
X12579727Y6674459D01*
X12579723Y6674464D01*
X12429464Y6824723D01*
X12429459Y6824727D01*
X12257557Y6949620D01*
X12068217Y7046095D01*
X11866128Y7111757D01*
X11800000Y7122230D01*
X11800000Y6074145D01*
X11733343Y6112630D01*
X11612535Y6145000D01*
X11487465Y6145000D01*
X11366657Y6112630D01*
X11300000Y6074145D01*
X11300000Y7122231D01*
X11233873Y7111757D01*
X11233870Y7111757D01*
X11031782Y7046095D01*
X10842442Y6949620D01*
X10670540Y6824727D01*
X10670535Y6824723D01*
X10520276Y6674464D01*
X10520272Y6674459D01*
X10395379Y6502557D01*
X10298904Y6313217D01*
X10233242Y6111130D01*
X10233242Y6111127D01*
X10202970Y5920000D01*
X11145854Y5920000D01*
X11107370Y5853343D01*
X11075000Y5732535D01*
X11075000Y5607465D01*
X11107370Y5486657D01*
X11145854Y5420000D01*
X10202970Y5420000D01*
X10233242Y5228872D01*
X10233242Y5228869D01*
X10298904Y5026782D01*
X10395379Y4837442D01*
X10520272Y4665540D01*
X10520276Y4665535D01*
X10670535Y4515276D01*
X10670540Y4515272D01*
X10842442Y4390379D01*
X11031784Y4293903D01*
X11233875Y4228241D01*
X11299999Y4217768D01*
X11300000Y4217768D01*
X11300000Y5265854D01*
X11366657Y5227370D01*
X11487465Y5195000D01*
X11612535Y5195000D01*
X11733343Y5227370D01*
X11800000Y5265854D01*
X11800000Y4217768D01*
X11866124Y4228241D01*
X12068215Y4293903D01*
X12257557Y4390379D01*
X12429459Y4515272D01*
X12429464Y4515276D01*
X12579723Y4665535D01*
X12579727Y4665540D01*
X12704620Y4837442D01*
X12801095Y5026782D01*
X12840759Y5148855D01*
X12880196Y5206530D01*
X12944555Y5233729D01*
X13013401Y5221815D01*
X13064877Y5174570D01*
X13073251Y5157990D01*
X13119057Y5047404D01*
X13234024Y4875342D01*
X13380342Y4729024D01*
X13552403Y4614058D01*
X13743579Y4534870D01*
X13743587Y4534868D01*
X13946530Y4494500D01*
X13946535Y4494500D01*
X14153469Y4494500D01*
X14356412Y4534868D01*
X14356420Y4534870D01*
X14547596Y4614058D01*
X14547598Y4614059D01*
X14683133Y4704620D01*
X14719657Y4729024D01*
X14865975Y4875342D01*
X14876257Y4890730D01*
X14980941Y5047402D01*
X15060130Y5238580D01*
X15100500Y5441535D01*
X15100500Y5898465D01*
X15060130Y6101420D01*
X14980941Y6292598D01*
X14876258Y6449269D01*
X15499500Y6449269D01*
X15499500Y4890730D01*
X15502353Y4860300D01*
X15502353Y4860298D01*
X15547206Y4732119D01*
X15547207Y4732117D01*
X15627850Y4622850D01*
X15737117Y4542207D01*
X15737119Y4542206D01*
X15865299Y4497353D01*
X15895730Y4494500D01*
X15895734Y4494500D01*
X17204270Y4494500D01*
X17234699Y4497353D01*
X17234701Y4497353D01*
X17362880Y4542206D01*
X17362882Y4542207D01*
X17394974Y4565892D01*
X17472150Y4622850D01*
X17552793Y4732118D01*
X17580025Y4809942D01*
X17597646Y4860298D01*
X17597646Y4860300D01*
X17600500Y4890730D01*
X17600500Y6449269D01*
X17597646Y6479699D01*
X17597646Y6479701D01*
X17562416Y6580380D01*
X17552793Y6607882D01*
X17472150Y6717150D01*
X17362882Y6797793D01*
X17277426Y6827695D01*
X17234700Y6842646D01*
X17204270Y6845500D01*
X17204266Y6845500D01*
X15895734Y6845500D01*
X15895730Y6845500D01*
X15865300Y6842646D01*
X15865298Y6842646D01*
X15786710Y6815146D01*
X15737118Y6797793D01*
X15627850Y6717150D01*
X15596343Y6674459D01*
X15547207Y6607882D01*
X15547206Y6607880D01*
X15502353Y6479701D01*
X15502353Y6479699D01*
X15499500Y6449269D01*
X14876258Y6449269D01*
X14865977Y6464655D01*
X14719655Y6610977D01*
X14547598Y6725941D01*
X14447048Y6767590D01*
X14392644Y6811430D01*
X14370579Y6877724D01*
X14370500Y6882151D01*
X14370500Y7325984D01*
X14390185Y7393023D01*
X14406819Y7413665D01*
X16736335Y9743181D01*
X16797658Y9776666D01*
X16824016Y9779500D01*
X16885790Y9779500D01*
X16885791Y9779500D01*
X16971413Y9802442D01*
X17013086Y9813608D01*
X17070149Y9846554D01*
X17127213Y9879500D01*
X17170894Y9923181D01*
X17232217Y9956666D01*
X17258575Y9959500D01*
X21128383Y9959500D01*
X21195422Y9939815D01*
X21216064Y9923181D01*
X23839492Y7299751D01*
X23872977Y7238428D01*
X23867993Y7168736D01*
X23826121Y7112803D01*
X23760657Y7088386D01*
X23732412Y7089597D01*
X23700000Y7094730D01*
X23700000Y6046645D01*
X23633343Y6085130D01*
X23512535Y6117500D01*
X23387465Y6117500D01*
X23266657Y6085130D01*
X23200000Y6046645D01*
X23200000Y7094731D01*
X23133873Y7084257D01*
X23133870Y7084257D01*
X22931782Y7018595D01*
X22742442Y6922120D01*
X22570540Y6797227D01*
X22570535Y6797223D01*
X22420276Y6646964D01*
X22420272Y6646959D01*
X22295379Y6475057D01*
X22198904Y6285717D01*
X22133242Y6083630D01*
X22133242Y6083627D01*
X22102970Y5892500D01*
X23045854Y5892500D01*
X23007370Y5825843D01*
X22975000Y5705035D01*
X22975000Y5579965D01*
X23007370Y5459157D01*
X23045854Y5392500D01*
X22102970Y5392500D01*
X22133242Y5201372D01*
X22133242Y5201369D01*
X22198904Y4999282D01*
X22295379Y4809942D01*
X22420272Y4638040D01*
X22420276Y4638035D01*
X22570535Y4487776D01*
X22570540Y4487772D01*
X22742442Y4362879D01*
X22931784Y4266403D01*
X23133875Y4200741D01*
X23199999Y4190268D01*
X23200000Y4190268D01*
X23200000Y5238354D01*
X23266657Y5199870D01*
X23387465Y5167500D01*
X23512535Y5167500D01*
X23633343Y5199870D01*
X23700000Y5238354D01*
X23700000Y4190268D01*
X23766124Y4200741D01*
X23968215Y4266403D01*
X24157557Y4362879D01*
X24329459Y4487772D01*
X24329464Y4487776D01*
X24479723Y4638035D01*
X24479727Y4638040D01*
X24604620Y4809942D01*
X24701095Y4999282D01*
X24740759Y5121355D01*
X24780196Y5179030D01*
X24844555Y5206229D01*
X24913401Y5194315D01*
X24964877Y5147070D01*
X24973251Y5130490D01*
X25019057Y5019904D01*
X25134024Y4847842D01*
X25280342Y4701524D01*
X25452403Y4586558D01*
X25643579Y4507370D01*
X25643587Y4507368D01*
X25846530Y4467000D01*
X25846535Y4467000D01*
X26053469Y4467000D01*
X26256412Y4507368D01*
X26256420Y4507370D01*
X26447596Y4586558D01*
X26447598Y4586559D01*
X26565802Y4665540D01*
X26619657Y4701524D01*
X26765975Y4847842D01*
X26776257Y4863230D01*
X26880941Y5019902D01*
X26960130Y5211080D01*
X27000500Y5414035D01*
X27000500Y5870965D01*
X26960130Y6073920D01*
X26880941Y6265098D01*
X26776258Y6421769D01*
X27399500Y6421769D01*
X27399500Y4863230D01*
X27402353Y4832800D01*
X27402353Y4832798D01*
X27447206Y4704619D01*
X27447207Y4704617D01*
X27527850Y4595350D01*
X27637117Y4514707D01*
X27637119Y4514706D01*
X27765299Y4469853D01*
X27795730Y4467000D01*
X27795734Y4467000D01*
X29104270Y4467000D01*
X29134699Y4469853D01*
X29134701Y4469853D01*
X29262880Y4514706D01*
X29262882Y4514707D01*
X29300143Y4542207D01*
X29372150Y4595350D01*
X29391293Y4621288D01*
X33649500Y4621288D01*
X33649500Y4378711D01*
X33681161Y4138214D01*
X33743947Y3903895D01*
X33836773Y3679794D01*
X33836777Y3679785D01*
X33958067Y3469706D01*
X34105733Y3277263D01*
X34105739Y3277256D01*
X34277256Y3105739D01*
X34277263Y3105733D01*
X34469706Y2958067D01*
X34679785Y2836777D01*
X34679794Y2836773D01*
X34903895Y2743947D01*
X35138214Y2681161D01*
X35378711Y2649500D01*
X35378712Y2649500D01*
X35621289Y2649500D01*
X35861785Y2681161D01*
X36096104Y2743947D01*
X36320205Y2836773D01*
X36320214Y2836777D01*
X36358661Y2858974D01*
X36530289Y2958064D01*
X36656898Y3055214D01*
X36722736Y3105733D01*
X36722743Y3105739D01*
X36894260Y3277256D01*
X36894266Y3277263D01*
X37041932Y3469706D01*
X37041936Y3469711D01*
X37163224Y3679788D01*
X37256054Y3903900D01*
X37318838Y4138211D01*
X37350500Y4378712D01*
X37350500Y4621288D01*
X37318838Y4861789D01*
X37256054Y5096100D01*
X37163224Y5320212D01*
X37041936Y5530289D01*
X36894265Y5722738D01*
X36722738Y5894265D01*
X36530289Y6041936D01*
X36320212Y6163224D01*
X36096100Y6256054D01*
X35861789Y6318838D01*
X35669388Y6344167D01*
X35621289Y6350500D01*
X35621288Y6350500D01*
X35378712Y6350500D01*
X35378711Y6350500D01*
X35318586Y6342584D01*
X35138211Y6318838D01*
X34903900Y6256054D01*
X34679788Y6163224D01*
X34469711Y6041936D01*
X34469706Y6041932D01*
X34277263Y5894266D01*
X34277256Y5894260D01*
X34105739Y5722743D01*
X34105733Y5722736D01*
X33958067Y5530293D01*
X33958064Y5530289D01*
X33870338Y5378343D01*
X33836777Y5320214D01*
X33836773Y5320205D01*
X33743947Y5096104D01*
X33681161Y4861785D01*
X33649500Y4621288D01*
X29391293Y4621288D01*
X29403657Y4638040D01*
X29448632Y4698980D01*
X29452793Y4704618D01*
X29470734Y4755891D01*
X29497646Y4832798D01*
X29497646Y4832800D01*
X29500500Y4863230D01*
X29500500Y6421769D01*
X29497646Y6452199D01*
X29497646Y6452201D01*
X29475219Y6516290D01*
X29452793Y6580382D01*
X29372150Y6689650D01*
X29262882Y6770293D01*
X29177426Y6800195D01*
X29134700Y6815146D01*
X29104270Y6818000D01*
X29104266Y6818000D01*
X27795734Y6818000D01*
X27795730Y6818000D01*
X27765300Y6815146D01*
X27765298Y6815146D01*
X27669163Y6781506D01*
X27637118Y6770293D01*
X27527850Y6689650D01*
X27449491Y6583477D01*
X27447207Y6580382D01*
X27447206Y6580380D01*
X27402353Y6452201D01*
X27402353Y6452199D01*
X27399500Y6421769D01*
X26776258Y6421769D01*
X26765977Y6437155D01*
X26619655Y6583477D01*
X26447598Y6698441D01*
X26256420Y6777630D01*
X26053467Y6817999D01*
X26053466Y6818000D01*
X26053465Y6818000D01*
X25846535Y6818000D01*
X25846534Y6818000D01*
X25846530Y6817999D01*
X25643580Y6777630D01*
X25497567Y6717149D01*
X25454640Y6699368D01*
X25385171Y6691899D01*
X25322691Y6723174D01*
X25319534Y6726220D01*
X21579171Y10466582D01*
X21579168Y10466587D01*
X21568964Y10476790D01*
X21568964Y10476792D01*
X21509292Y10536464D01*
X21436209Y10578659D01*
X21354695Y10600500D01*
X21354691Y10600500D01*
X17264399Y10600500D01*
X17197360Y10620185D01*
X17151605Y10672989D01*
X17140399Y10724500D01*
X17140399Y11002191D01*
X17140399Y11002195D01*
X17118558Y11083709D01*
X17076363Y11156792D01*
X17016691Y11216464D01*
X17016689Y11216464D01*
X17006486Y11226668D01*
X17006481Y11226671D01*
X14141716Y14091437D01*
X14108233Y14152758D01*
X14105399Y14179116D01*
X14105399Y19816324D01*
X14125084Y19883363D01*
X14141718Y19904005D01*
X14185396Y19947683D01*
X14185399Y19947686D01*
X14251291Y20061814D01*
X14285399Y20189108D01*
X14285399Y20250883D01*
X14305084Y20317922D01*
X14321718Y20338564D01*
X17636335Y23653181D01*
X17697658Y23686666D01*
X17724016Y23689500D01*
X19360500Y23689500D01*
X19427539Y23669815D01*
X19473294Y23617011D01*
X19484500Y23565500D01*
X19484500Y18963197D01*
X19508726Y18872780D01*
X19555529Y18791718D01*
X19555531Y18791715D01*
X20111715Y18235531D01*
X20111721Y18235526D01*
X20169697Y18202053D01*
X20217912Y18151485D01*
X20224736Y18135623D01*
X20252207Y18057118D01*
X20332850Y17947850D01*
X20442117Y17867207D01*
X20442119Y17867206D01*
X20570299Y17822353D01*
X20600730Y17819500D01*
X21506883Y17819500D01*
X21573922Y17799815D01*
X21619677Y17747011D01*
X21629621Y17677853D01*
X21600596Y17614297D01*
X21594564Y17607819D01*
X21533412Y17546667D01*
X21485644Y17444229D01*
X21479500Y17397554D01*
X21479500Y16762445D01*
X21485644Y16715770D01*
X21533412Y16613332D01*
X21613332Y16533412D01*
X21715771Y16485644D01*
X21715769Y16485644D01*
X21762445Y16479500D01*
X21762446Y16479500D01*
X22514137Y16479500D01*
X22581176Y16459815D01*
X22626931Y16407011D01*
X22636875Y16337853D01*
X22621524Y16293500D01*
X22563609Y16193189D01*
X22563609Y16193188D01*
X22563608Y16193186D01*
X22529500Y16065892D01*
X22529500Y16065891D01*
X22529500Y15934108D01*
X22563608Y15806812D01*
X22629500Y15692686D01*
X22629502Y15692683D01*
X22728433Y15593753D01*
X22726418Y15591738D01*
X22759487Y15546457D01*
X22763647Y15476711D01*
X22729440Y15415788D01*
X22667725Y15383031D01*
X22642801Y15380500D01*
X21762445Y15380500D01*
X21739107Y15377427D01*
X21715769Y15374355D01*
X21613333Y15326588D01*
X21613332Y15326587D01*
X21533412Y15246667D01*
X21485644Y15144229D01*
X21479500Y15097554D01*
X21479500Y14462445D01*
X21485644Y14415770D01*
X21533412Y14313332D01*
X21613332Y14233412D01*
X21715771Y14185644D01*
X21715769Y14185644D01*
X21762445Y14179500D01*
X21762446Y14179500D01*
X24297555Y14179500D01*
X24344229Y14185644D01*
X24446667Y14233412D01*
X24526587Y14313332D01*
X24526588Y14313333D01*
X24527781Y14315891D01*
X26079500Y14315891D01*
X26079500Y14184108D01*
X26113608Y14056812D01*
X26179500Y13942686D01*
X26179502Y13942683D01*
X26272683Y13849502D01*
X26272686Y13849500D01*
X26386812Y13783608D01*
X26514108Y13749500D01*
X26565883Y13749500D01*
X26632922Y13729815D01*
X26653563Y13713181D01*
X27553534Y12813210D01*
X27553536Y12813208D01*
X27583372Y12783372D01*
X27613207Y12753536D01*
X27655407Y12729171D01*
X27655406Y12729170D01*
X27686291Y12711339D01*
X27686293Y12711338D01*
X27767804Y12689499D01*
X27767806Y12689499D01*
X27859791Y12689499D01*
X27859807Y12689500D01*
X33107848Y12689500D01*
X33174887Y12669815D01*
X33220642Y12617011D01*
X33222409Y12612953D01*
X33264057Y12512403D01*
X33379024Y12340342D01*
X33525342Y12194024D01*
X33697404Y12079057D01*
X33807990Y12033251D01*
X33862394Y11989409D01*
X33884458Y11923115D01*
X33867178Y11855416D01*
X33816041Y11807806D01*
X33798855Y11800759D01*
X33676782Y11761095D01*
X33487442Y11664620D01*
X33315540Y11539727D01*
X33315535Y11539723D01*
X33165276Y11389464D01*
X33165272Y11389459D01*
X33040379Y11217557D01*
X32943904Y11028217D01*
X32878242Y10826129D01*
X32878242Y10826126D01*
X32867769Y10760000D01*
X33915854Y10760000D01*
X33877370Y10693343D01*
X33845000Y10572535D01*
X33845000Y10447465D01*
X33877370Y10326657D01*
X33915854Y10260000D01*
X32867769Y10260000D01*
X32878242Y10193873D01*
X32878242Y10193870D01*
X32943904Y9991782D01*
X33040379Y9802442D01*
X33165272Y9630540D01*
X33165276Y9630535D01*
X33315535Y9480276D01*
X33315540Y9480272D01*
X33487442Y9355379D01*
X33676782Y9258904D01*
X33878871Y9193242D01*
X34070000Y9162969D01*
X34070000Y10105854D01*
X34136657Y10067370D01*
X34257465Y10035000D01*
X34382535Y10035000D01*
X34503343Y10067370D01*
X34570000Y10105854D01*
X34570000Y9162969D01*
X34761127Y9193242D01*
X34761130Y9193242D01*
X34963217Y9258904D01*
X35152557Y9355379D01*
X35324459Y9480272D01*
X35324464Y9480276D01*
X35474723Y9630535D01*
X35474727Y9630540D01*
X35599620Y9802442D01*
X35696095Y9991782D01*
X35761757Y10193870D01*
X35761757Y10193873D01*
X35772231Y10260000D01*
X34724146Y10260000D01*
X34762630Y10326657D01*
X34795000Y10447465D01*
X34795000Y10572535D01*
X34762630Y10693343D01*
X34724146Y10760000D01*
X35772231Y10760000D01*
X35761757Y10826126D01*
X35761757Y10826129D01*
X35696095Y11028217D01*
X35599620Y11217557D01*
X35474727Y11389459D01*
X35474723Y11389464D01*
X35324464Y11539723D01*
X35324459Y11539727D01*
X35152557Y11664620D01*
X34963217Y11761095D01*
X34841144Y11800759D01*
X34783469Y11840196D01*
X34756270Y11904555D01*
X34768184Y11973401D01*
X34815428Y12024877D01*
X34832009Y12033251D01*
X34942596Y12079057D01*
X35114657Y12194024D01*
X35260975Y12340342D01*
X35261747Y12341498D01*
X35375941Y12512402D01*
X35455130Y12703580D01*
X35495500Y12906535D01*
X35495500Y13113465D01*
X35455130Y13316420D01*
X35375941Y13507598D01*
X35260977Y13679655D01*
X35114655Y13825977D01*
X34942598Y13940941D01*
X34751420Y14020130D01*
X34548467Y14060499D01*
X34548466Y14060500D01*
X34548465Y14060500D01*
X34091535Y14060500D01*
X34091534Y14060500D01*
X34091530Y14060499D01*
X33888580Y14020130D01*
X33697402Y13940941D01*
X33560553Y13849502D01*
X33525342Y13825975D01*
X33379024Y13679657D01*
X33264057Y13507596D01*
X33222409Y13407047D01*
X33178568Y13352644D01*
X33112274Y13330579D01*
X33107848Y13330500D01*
X27994117Y13330500D01*
X27927078Y13350185D01*
X27906436Y13366819D01*
X27116819Y14156436D01*
X27083334Y14217759D01*
X27080500Y14244117D01*
X27080500Y14315890D01*
X27080500Y14315892D01*
X27046392Y14443186D01*
X26980500Y14557314D01*
X26887314Y14650500D01*
X26773186Y14716392D01*
X26645892Y14750500D01*
X26514108Y14750500D01*
X26386814Y14716392D01*
X26272686Y14650500D01*
X26179500Y14557314D01*
X26150571Y14507207D01*
X26113608Y14443187D01*
X26079500Y14315891D01*
X24527781Y14315891D01*
X24574355Y14415769D01*
X24574355Y14415770D01*
X24580500Y14462445D01*
X24580500Y15097554D01*
X24574355Y15144229D01*
X24574355Y15144231D01*
X24526588Y15246667D01*
X24446667Y15326588D01*
X24344231Y15374355D01*
X24344229Y15374355D01*
X24338305Y15377118D01*
X24285866Y15423290D01*
X24266714Y15490484D01*
X24286930Y15557365D01*
X24340095Y15602700D01*
X24390710Y15613500D01*
X26104592Y15613500D01*
X26186105Y15635341D01*
X26259188Y15677536D01*
X26318860Y15737208D01*
X26325928Y15744276D01*
X26325930Y15744279D01*
X26568450Y15986799D01*
X26572789Y15991138D01*
X26572792Y15991140D01*
X26632464Y16050812D01*
X26632465Y16050814D01*
X26637152Y16055501D01*
X26667015Y16071807D01*
X26698474Y16088985D01*
X26698475Y16088984D01*
X26698476Y16088985D01*
X26707778Y16088319D01*
X26768166Y16084001D01*
X26781125Y16078305D01*
X26796875Y16070280D01*
X26896507Y16054500D01*
X26896512Y16054500D01*
X27413493Y16054500D01*
X27513121Y16070279D01*
X27513124Y16070280D01*
X27513126Y16070281D01*
X27633220Y16131472D01*
X27633221Y16131473D01*
X27633225Y16131476D01*
X27666018Y16164269D01*
X33144500Y16164269D01*
X33144500Y14855730D01*
X33147353Y14825300D01*
X33147353Y14825298D01*
X33192206Y14697119D01*
X33192207Y14697117D01*
X33272850Y14587850D01*
X33382117Y14507207D01*
X33382119Y14507206D01*
X33510299Y14462353D01*
X33540730Y14459500D01*
X33540734Y14459500D01*
X35099270Y14459500D01*
X35129699Y14462353D01*
X35129701Y14462353D01*
X35257880Y14507206D01*
X35257882Y14507207D01*
X35367150Y14587850D01*
X35447793Y14697118D01*
X35466472Y14750500D01*
X35492646Y14825298D01*
X35492646Y14825300D01*
X35495500Y14855730D01*
X35495500Y16164269D01*
X35492646Y16194699D01*
X35492646Y16194701D01*
X35464833Y16274185D01*
X35447793Y16322882D01*
X35367150Y16432150D01*
X35257882Y16512793D01*
X35172426Y16542695D01*
X35129700Y16557646D01*
X35099270Y16560500D01*
X35099266Y16560500D01*
X33540734Y16560500D01*
X33540730Y16560500D01*
X33510300Y16557646D01*
X33510298Y16557646D01*
X33414163Y16524006D01*
X33382118Y16512793D01*
X33272850Y16432150D01*
X33213929Y16352314D01*
X33192207Y16322882D01*
X33192206Y16322880D01*
X33147353Y16194701D01*
X33147353Y16194699D01*
X33144500Y16164269D01*
X27666018Y16164269D01*
X27728523Y16226774D01*
X27728525Y16226777D01*
X27728528Y16226780D01*
X27789719Y16346874D01*
X27792020Y16361400D01*
X27805500Y16446506D01*
X27805500Y17013493D01*
X27789720Y17113122D01*
X27789719Y17113123D01*
X27789719Y17113126D01*
X27780267Y17131676D01*
X27767370Y17200341D01*
X27793644Y17265082D01*
X27850749Y17305341D01*
X27920555Y17308335D01*
X27955847Y17293509D01*
X28065871Y17225645D01*
X28065880Y17225641D01*
X28232302Y17170494D01*
X28232309Y17170493D01*
X28335013Y17160000D01*
X28610000Y17160000D01*
X29110000Y17160000D01*
X29384970Y17160000D01*
X29384987Y17160001D01*
X29487697Y17170494D01*
X29654119Y17225641D01*
X29654124Y17225643D01*
X29803345Y17317684D01*
X29927315Y17441654D01*
X30019356Y17590875D01*
X30019358Y17590880D01*
X30074505Y17757302D01*
X30074506Y17757309D01*
X30084999Y17860013D01*
X30085000Y17860026D01*
X30085000Y17910000D01*
X29110000Y17910000D01*
X29110000Y17160000D01*
X28610000Y17160000D01*
X28610000Y18036000D01*
X28629685Y18103039D01*
X28682489Y18148794D01*
X28734000Y18160000D01*
X28860000Y18160000D01*
X28860000Y18286000D01*
X28879685Y18353039D01*
X28932489Y18398794D01*
X28984000Y18410000D01*
X30084999Y18410000D01*
X30085268Y18410269D01*
X30104684Y18476390D01*
X30157488Y18522145D01*
X30226646Y18532089D01*
X30233190Y18530969D01*
X30319462Y18513808D01*
X30416535Y18494500D01*
X30416537Y18494500D01*
X30623469Y18494500D01*
X30826412Y18534868D01*
X30826420Y18534870D01*
X31017596Y18614058D01*
X31017598Y18614059D01*
X31175774Y18719748D01*
X31189657Y18729024D01*
X31335975Y18875342D01*
X31347379Y18892409D01*
X31450941Y19047402D01*
X31530130Y19238580D01*
X31570500Y19441535D01*
X31570500Y19648465D01*
X31530130Y19851420D01*
X31450941Y20042598D01*
X31335977Y20214655D01*
X31189655Y20360977D01*
X31017598Y20475941D01*
X30826420Y20555130D01*
X30623467Y20595499D01*
X30623466Y20595500D01*
X30623465Y20595500D01*
X30416535Y20595500D01*
X30416534Y20595500D01*
X30416530Y20595499D01*
X30213580Y20555130D01*
X30022402Y20475941D01*
X30022400Y20475940D01*
X30022399Y20475940D01*
X29938110Y20419620D01*
X29871433Y20398742D01*
X29804053Y20417227D01*
X29757363Y20469206D01*
X29752186Y20481746D01*
X29737793Y20522882D01*
X29657150Y20632150D01*
X29547882Y20712793D01*
X29443545Y20749302D01*
X29386769Y20790023D01*
X29362072Y20846664D01*
X29360500Y20856443D01*
X29360500Y20895892D01*
X29344651Y20955039D01*
X29343644Y20961308D01*
X29347273Y20989911D01*
X29347959Y21018742D01*
X29351617Y21024147D01*
X29352439Y21030622D01*
X29370959Y21052725D01*
X29387121Y21076605D01*
X29393120Y21079174D01*
X29397312Y21084177D01*
X29424842Y21092758D01*
X29451349Y21104110D01*
X29457785Y21103027D01*
X29464016Y21104970D01*
X29491813Y21097305D01*
X29520252Y21092524D01*
X29530526Y21086632D01*
X29531373Y21086399D01*
X29531837Y21085880D01*
X29534962Y21084089D01*
X29591766Y21046133D01*
X29591770Y21046131D01*
X29650247Y21034500D01*
X29650252Y21034500D01*
X31389752Y21034500D01*
X31448229Y21046131D01*
X31448230Y21046132D01*
X31514552Y21090447D01*
X31558867Y21156769D01*
X31558868Y21156770D01*
X31570499Y21215247D01*
X31570500Y21215249D01*
X31570500Y22954750D01*
X31570499Y22954752D01*
X31558868Y23013229D01*
X31558867Y23013230D01*
X31558867Y23013231D01*
X31514552Y23079552D01*
X31448231Y23123867D01*
X31448229Y23123867D01*
X31448229Y23123868D01*
X31404568Y23132552D01*
X31389751Y23135499D01*
X31389751Y23135500D01*
X31389748Y23135500D01*
X31008117Y23135500D01*
X30941078Y23155185D01*
X30895323Y23207989D01*
X30885379Y23277147D01*
X30914404Y23340703D01*
X30920436Y23347181D01*
X33312380Y25739125D01*
X33373703Y25772610D01*
X33443395Y25767626D01*
X33487742Y25739125D01*
X33562841Y25664025D01*
X33562842Y25664024D01*
X33734903Y25549058D01*
X33926079Y25469870D01*
X33926087Y25469868D01*
X34129030Y25429500D01*
X34129035Y25429500D01*
X34585969Y25429500D01*
X34788912Y25469868D01*
X34788920Y25469870D01*
X34980096Y25549058D01*
X34980098Y25549059D01*
X35113888Y25638454D01*
X35152157Y25664024D01*
X35298472Y25810339D01*
X35298472Y25810340D01*
X35298477Y25810345D01*
X35314838Y25834832D01*
X35368449Y25879636D01*
X35437774Y25888344D01*
X35500802Y25858190D01*
X35505621Y25853622D01*
X36041563Y25317680D01*
X36075048Y25256357D01*
X36070064Y25186665D01*
X36041563Y25142318D01*
X35505621Y24606376D01*
X35444298Y24572891D01*
X35374606Y24577875D01*
X35318673Y24619747D01*
X35314870Y24625120D01*
X35298477Y24649655D01*
X35152155Y24795977D01*
X34980098Y24910941D01*
X34788920Y24990130D01*
X34585967Y25030499D01*
X34585966Y25030500D01*
X34585965Y25030500D01*
X34129035Y25030500D01*
X34129034Y25030500D01*
X34129030Y25030499D01*
X33926080Y24990130D01*
X33734902Y24910941D01*
X33591733Y24815279D01*
X33562842Y24795975D01*
X33416524Y24649657D01*
X33400163Y24625170D01*
X33304710Y24482313D01*
X33301558Y24477596D01*
X33222370Y24286420D01*
X33222368Y24286412D01*
X33182000Y24083469D01*
X33182000Y23876530D01*
X33222368Y23673587D01*
X33222370Y23673579D01*
X33301558Y23482403D01*
X33416524Y23310342D01*
X33562842Y23164024D01*
X33734904Y23049057D01*
X33845490Y23003251D01*
X33899894Y22959409D01*
X33921958Y22893115D01*
X33904678Y22825416D01*
X33853541Y22777806D01*
X33836355Y22770759D01*
X33714282Y22731095D01*
X33524942Y22634620D01*
X33353040Y22509727D01*
X33353035Y22509723D01*
X33202776Y22359464D01*
X33202772Y22359459D01*
X33077879Y22187557D01*
X32981404Y21998217D01*
X32915742Y21796129D01*
X32915742Y21796126D01*
X32905269Y21730000D01*
X33953354Y21730000D01*
X33914870Y21663343D01*
X33882500Y21542535D01*
X33882500Y21417465D01*
X33914870Y21296657D01*
X33953354Y21230000D01*
X32905269Y21230000D01*
X32915742Y21163873D01*
X32915742Y21163870D01*
X32981404Y20961782D01*
X33077879Y20772442D01*
X33202772Y20600540D01*
X33202776Y20600535D01*
X33353035Y20450276D01*
X33353040Y20450272D01*
X33524942Y20325379D01*
X33714282Y20228904D01*
X33916371Y20163242D01*
X34107500Y20132969D01*
X34107500Y21075854D01*
X34174157Y21037370D01*
X34294965Y21005000D01*
X34420035Y21005000D01*
X34540843Y21037370D01*
X34607500Y21075854D01*
X34607500Y20132969D01*
X34798627Y20163242D01*
X34798630Y20163242D01*
X35000717Y20228904D01*
X35190057Y20325379D01*
X35361959Y20450272D01*
X35361964Y20450276D01*
X35512223Y20600535D01*
X35512227Y20600540D01*
X35637120Y20772442D01*
X35733595Y20961782D01*
X35799257Y21163870D01*
X35799257Y21163873D01*
X35809731Y21230000D01*
X34761646Y21230000D01*
X34800130Y21296657D01*
X34832500Y21417465D01*
X34832500Y21542535D01*
X34800130Y21663343D01*
X34761646Y21730000D01*
X35809731Y21730000D01*
X35799257Y21796126D01*
X35799257Y21796129D01*
X35733595Y21998217D01*
X35637120Y22187557D01*
X35512227Y22359459D01*
X35512223Y22359464D01*
X35361964Y22509723D01*
X35361959Y22509727D01*
X35190057Y22634620D01*
X34996379Y22733306D01*
X34996896Y22734321D01*
X34946692Y22774779D01*
X34924627Y22841073D01*
X34941906Y22908772D01*
X34993042Y22956383D01*
X35048548Y22969500D01*
X35374560Y22969500D01*
X35374562Y22969500D01*
X35425513Y22983152D01*
X35450990Y22989979D01*
X35450995Y22989982D01*
X35519504Y23029535D01*
X35519512Y23029541D01*
X35575458Y23085487D01*
X35575464Y23085495D01*
X35615017Y23154004D01*
X35615020Y23154009D01*
X35615336Y23155185D01*
X35635500Y23230438D01*
X35635500Y23309562D01*
X35615021Y23385989D01*
X35575460Y23454511D01*
X35519511Y23510460D01*
X35519510Y23510460D01*
X35513764Y23516207D01*
X35515632Y23518075D01*
X35506913Y23530011D01*
X35487929Y23550403D01*
X35486588Y23557836D01*
X35482133Y23563935D01*
X35480470Y23591748D01*
X35475525Y23619163D01*
X35478204Y23629659D01*
X35477964Y23633680D01*
X35484254Y23653360D01*
X35492630Y23673579D01*
X35492630Y23673580D01*
X35492630Y23673581D01*
X35493167Y23674877D01*
X35524986Y23716347D01*
X35523545Y23717789D01*
X35596032Y23790276D01*
X35596034Y23790279D01*
X36433936Y24628181D01*
X36495259Y24661666D01*
X36521617Y24664500D01*
X37163678Y24664500D01*
X37245191Y24686341D01*
X37318274Y24728536D01*
X37377946Y24788208D01*
X37385014Y24795276D01*
X37385016Y24795279D01*
X38040655Y25450918D01*
X38040678Y25450939D01*
X38104667Y25514928D01*
X38138548Y25573609D01*
X38146864Y25588014D01*
X38146865Y25588015D01*
X38168706Y25669529D01*
X38168706Y25753918D01*
X38168706Y25763907D01*
X38168705Y25763920D01*
X38168705Y28970468D01*
X38168705Y28970472D01*
X38146864Y29051986D01*
X38104669Y29125069D01*
X38044997Y29184741D01*
X38044995Y29184741D01*
X38034792Y29194945D01*
X38034787Y29194949D01*
X31608448Y35621288D01*
X33649500Y35621288D01*
X33649500Y35378711D01*
X33681161Y35138214D01*
X33743947Y34903895D01*
X33836773Y34679794D01*
X33836777Y34679785D01*
X33894875Y34579157D01*
X33957410Y34470843D01*
X33958067Y34469706D01*
X34105733Y34277263D01*
X34105739Y34277256D01*
X34277256Y34105739D01*
X34277263Y34105733D01*
X34469706Y33958067D01*
X34679785Y33836777D01*
X34679794Y33836773D01*
X34903895Y33743947D01*
X35138214Y33681161D01*
X35378711Y33649500D01*
X35378712Y33649500D01*
X35621289Y33649500D01*
X35861785Y33681161D01*
X36096104Y33743947D01*
X36320205Y33836773D01*
X36320214Y33836777D01*
X36358661Y33858974D01*
X36530289Y33958064D01*
X36579524Y33995843D01*
X36722736Y34105733D01*
X36722743Y34105739D01*
X36894260Y34277256D01*
X36894266Y34277263D01*
X36998804Y34413500D01*
X37041936Y34469711D01*
X37163224Y34679788D01*
X37256054Y34903900D01*
X37318838Y35138211D01*
X37350500Y35378712D01*
X37350500Y35621288D01*
X37318838Y35861789D01*
X37256054Y36096100D01*
X37163224Y36320212D01*
X37041936Y36530289D01*
X36894265Y36722738D01*
X36722738Y36894265D01*
X36530289Y37041936D01*
X36320212Y37163224D01*
X36096100Y37256054D01*
X35861789Y37318838D01*
X35669388Y37344167D01*
X35621289Y37350500D01*
X35621288Y37350500D01*
X35378712Y37350500D01*
X35378711Y37350500D01*
X35318586Y37342584D01*
X35138211Y37318838D01*
X34903900Y37256054D01*
X34679788Y37163224D01*
X34469711Y37041936D01*
X34469706Y37041932D01*
X34277263Y36894266D01*
X34277256Y36894260D01*
X34105739Y36722743D01*
X34105735Y36722738D01*
X33958064Y36530289D01*
X33858974Y36358661D01*
X33836777Y36320214D01*
X33836773Y36320205D01*
X33743947Y36096104D01*
X33743946Y36096100D01*
X33683102Y35869027D01*
X33681161Y35861785D01*
X33649500Y35621288D01*
X31608448Y35621288D01*
X30418154Y36811582D01*
X30418150Y36811587D01*
X30407946Y36821790D01*
X30407946Y36821792D01*
X30348274Y36881464D01*
X30275191Y36923659D01*
X30193677Y36945500D01*
X19356323Y36945500D01*
X19274809Y36923659D01*
X19223898Y36894265D01*
X19201726Y36881464D01*
X19137723Y36817461D01*
X19137713Y36817450D01*
X8172082Y25851819D01*
X8145154Y25837115D01*
X8119336Y25820523D01*
X8113135Y25819631D01*
X8110759Y25818334D01*
X8084401Y25815500D01*
X7884117Y25815500D01*
X7817078Y25835185D01*
X7796436Y25851819D01*
X7600813Y26047442D01*
X6961673Y26686580D01*
X6961672Y26686583D01*
X6951464Y26696790D01*
X6951464Y26696792D01*
X6891792Y26756464D01*
X6891791Y26756464D01*
X6886044Y26762212D01*
X6887491Y26763659D01*
X6855665Y26805125D01*
X6855131Y26806413D01*
X6855130Y26806420D01*
X6775941Y26997598D01*
X6660977Y27169655D01*
X6514655Y27315977D01*
X6342598Y27430941D01*
X6232009Y27476748D01*
X6177606Y27520589D01*
X6155541Y27586883D01*
X6172820Y27654582D01*
X6223957Y27702193D01*
X6241144Y27709240D01*
X6363216Y27748904D01*
X6552557Y27845379D01*
X6724459Y27970272D01*
X6724464Y27970276D01*
X6874723Y28120535D01*
X6874727Y28120540D01*
X6999620Y28292442D01*
X7096095Y28481782D01*
X7161757Y28683870D01*
X7161757Y28683873D01*
X7172231Y28750000D01*
X6124146Y28750000D01*
X6162630Y28816657D01*
X6195000Y28937465D01*
X6195000Y29062535D01*
X6162630Y29183343D01*
X6124146Y29250000D01*
X7172231Y29250000D01*
X7161757Y29316126D01*
X7161757Y29316129D01*
X7096095Y29518217D01*
X6999620Y29707557D01*
X6874727Y29879459D01*
X6874723Y29879464D01*
X6724464Y30029723D01*
X6724459Y30029727D01*
X6552557Y30154620D01*
X6363217Y30251095D01*
X6161127Y30316757D01*
X5970000Y30347028D01*
X5970000Y29404145D01*
X5903343Y29442630D01*
X5782535Y29475000D01*
X5657465Y29475000D01*
X5536657Y29442630D01*
X5470000Y29404145D01*
X5470000Y30347029D01*
X5278872Y30316757D01*
X5076782Y30251095D01*
X4887442Y30154620D01*
X4715540Y30029727D01*
X4715535Y30029723D01*
X4565276Y29879464D01*
X4565272Y29879459D01*
X4440379Y29707557D01*
X4343904Y29518217D01*
X4278242Y29316129D01*
X4278242Y29316126D01*
X4267769Y29250000D01*
X500500Y29250000D01*
X500500Y35497128D01*
X500632Y35502855D01*
X506108Y35621288D01*
X2649500Y35621288D01*
X2649500Y35378711D01*
X2681161Y35138214D01*
X2743947Y34903895D01*
X2836773Y34679794D01*
X2836777Y34679785D01*
X2894875Y34579157D01*
X2957410Y34470843D01*
X2958067Y34469706D01*
X3105733Y34277263D01*
X3105739Y34277256D01*
X3277256Y34105739D01*
X3277263Y34105733D01*
X3469706Y33958067D01*
X3679785Y33836777D01*
X3679794Y33836773D01*
X3903895Y33743947D01*
X4138214Y33681161D01*
X4378711Y33649500D01*
X4378712Y33649500D01*
X4621289Y33649500D01*
X4861785Y33681161D01*
X5096104Y33743947D01*
X5320205Y33836773D01*
X5320214Y33836777D01*
X5358661Y33858974D01*
X5530289Y33958064D01*
X5579524Y33995843D01*
X5722736Y34105733D01*
X5722743Y34105739D01*
X5894260Y34277256D01*
X5894266Y34277263D01*
X5998804Y34413500D01*
X6041936Y34469711D01*
X6163224Y34679788D01*
X6256054Y34903900D01*
X6318838Y35138211D01*
X6350500Y35378712D01*
X6350500Y35621288D01*
X6318838Y35861789D01*
X6256054Y36096100D01*
X6163224Y36320212D01*
X6041936Y36530289D01*
X5894265Y36722738D01*
X5722738Y36894265D01*
X5530289Y37041936D01*
X5320212Y37163224D01*
X5096100Y37256054D01*
X4861789Y37318838D01*
X4669388Y37344167D01*
X4621289Y37350500D01*
X4621288Y37350500D01*
X4378712Y37350500D01*
X4378711Y37350500D01*
X4318586Y37342584D01*
X4138211Y37318838D01*
X3903900Y37256054D01*
X3679788Y37163224D01*
X3469711Y37041936D01*
X3469706Y37041932D01*
X3277263Y36894266D01*
X3277256Y36894260D01*
X3105739Y36722743D01*
X3105735Y36722738D01*
X2958064Y36530289D01*
X2858974Y36358661D01*
X2836777Y36320214D01*
X2836773Y36320205D01*
X2743947Y36096104D01*
X2743946Y36096100D01*
X2683102Y35869027D01*
X2681161Y35861785D01*
X2649500Y35621288D01*
X506108Y35621288D01*
X506560Y35631074D01*
X513361Y35778181D01*
X517296Y35863309D01*
X518353Y35874708D01*
X567807Y36229231D01*
X569912Y36240490D01*
X588661Y36320205D01*
X651867Y36588944D01*
X654994Y36599934D01*
X768761Y36939368D01*
X772889Y36950022D01*
X917482Y37277496D01*
X922581Y37287735D01*
X1096764Y37600453D01*
X1102793Y37610191D01*
X1203943Y37757852D01*
X1305096Y37905517D01*
X1311996Y37914653D01*
X1434243Y38061869D01*
X1540671Y38190036D01*
X1548386Y38198499D01*
X1801500Y38451613D01*
X1809964Y38459329D01*
X2085346Y38688003D01*
X2094486Y38694906D01*
X2389808Y38897206D01*
X2399546Y38903235D01*
X2643130Y39038911D01*
X2712268Y39077420D01*
X2722511Y39082520D01*
X3049965Y39227105D01*
X3060644Y39231243D01*
X3400052Y39345001D01*
X3411068Y39348135D01*
X3759509Y39430087D01*
X3770768Y39432192D01*
X4125291Y39481646D01*
X4136695Y39482703D01*
X4497145Y39499368D01*
X4502872Y39499500D01*
X4565892Y39499500D01*
X35434108Y39499500D01*
X35497128Y39499500D01*
X35502855Y39499368D01*
G37*
%TD.AperFunction*%
%TD*%
D33*
X26580000Y14250000D03*
X23030000Y16000000D03*
X16819899Y10280000D03*
X25860000Y20190000D03*
X25870000Y19250000D03*
X13784899Y20255000D03*
X20079899Y24010000D03*
X26250000Y26040000D03*
D34*
X21410000Y34287500D03*
X23910000Y34287500D03*
X26410000Y34287500D03*
X28910000Y34287500D03*
X11550000Y5670000D03*
X14050000Y5670000D03*
X16550000Y5670000D03*
X34320000Y10510000D03*
X34320000Y13010000D03*
X34320000Y15510000D03*
X5720000Y21500000D03*
X5720000Y24000000D03*
X5720000Y26500000D03*
X5720000Y29000000D03*
X4500000Y4500000D03*
X34357500Y28980000D03*
X34357500Y26480000D03*
X34357500Y23980000D03*
X34357500Y21480000D03*
X30520000Y22085000D03*
X30520000Y19545000D03*
X35500000Y4500000D03*
X4500000Y35500000D03*
X13000000Y24340000D03*
X14796051Y26136051D03*
X16592102Y27932102D03*
X18388154Y29728154D03*
X35500000Y35500000D03*
X28450000Y5642500D03*
X25950000Y5642500D03*
X23450000Y5642500D03*
M02*
