%TF.GenerationSoftware,KiCad,Pcbnew,9.0.2-9.0.2-0~ubuntu22.04.1*%
%TF.CreationDate,2025-05-12T22:54:36+03:00*%
%TF.ProjectId,endpoint-driver,656e6470-6f69-46e7-942d-647269766572,rev?*%
%TF.SameCoordinates,Original*%
%TF.FileFunction,Legend,Bot*%
%TF.FilePolarity,Positive*%
%FSLAX46Y46*%
G04 Gerber Fmt 4.6, Leading zero omitted, Abs format (unit mm)*
G04 Created by KiCad (PCBNEW 9.0.2-9.0.2-0~ubuntu22.04.1) date 2025-05-12 22:54:36*
%MOMM*%
%LPD*%
G01*
G04 APERTURE LIST*
%ADD10C,0.150000*%
%ADD11C,0.100000*%
%ADD12C,0.120000*%
%ADD13C,0.350000*%
G04 APERTURE END LIST*
D10*
X28796666Y31095180D02*
X29129999Y31571371D01*
X29368094Y31095180D02*
X29368094Y32095180D01*
X29368094Y32095180D02*
X28987142Y32095180D01*
X28987142Y32095180D02*
X28891904Y32047561D01*
X28891904Y32047561D02*
X28844285Y31999942D01*
X28844285Y31999942D02*
X28796666Y31904704D01*
X28796666Y31904704D02*
X28796666Y31761847D01*
X28796666Y31761847D02*
X28844285Y31666609D01*
X28844285Y31666609D02*
X28891904Y31618990D01*
X28891904Y31618990D02*
X28987142Y31571371D01*
X28987142Y31571371D02*
X29368094Y31571371D01*
X28463332Y32095180D02*
X27796666Y32095180D01*
X27796666Y32095180D02*
X28225237Y31095180D01*
X21246666Y31145180D02*
X21579999Y31621371D01*
X21818094Y31145180D02*
X21818094Y32145180D01*
X21818094Y32145180D02*
X21437142Y32145180D01*
X21437142Y32145180D02*
X21341904Y32097561D01*
X21341904Y32097561D02*
X21294285Y32049942D01*
X21294285Y32049942D02*
X21246666Y31954704D01*
X21246666Y31954704D02*
X21246666Y31811847D01*
X21246666Y31811847D02*
X21294285Y31716609D01*
X21294285Y31716609D02*
X21341904Y31668990D01*
X21341904Y31668990D02*
X21437142Y31621371D01*
X21437142Y31621371D02*
X21818094Y31621371D01*
X20675237Y31716609D02*
X20770475Y31764228D01*
X20770475Y31764228D02*
X20818094Y31811847D01*
X20818094Y31811847D02*
X20865713Y31907085D01*
X20865713Y31907085D02*
X20865713Y31954704D01*
X20865713Y31954704D02*
X20818094Y32049942D01*
X20818094Y32049942D02*
X20770475Y32097561D01*
X20770475Y32097561D02*
X20675237Y32145180D01*
X20675237Y32145180D02*
X20484761Y32145180D01*
X20484761Y32145180D02*
X20389523Y32097561D01*
X20389523Y32097561D02*
X20341904Y32049942D01*
X20341904Y32049942D02*
X20294285Y31954704D01*
X20294285Y31954704D02*
X20294285Y31907085D01*
X20294285Y31907085D02*
X20341904Y31811847D01*
X20341904Y31811847D02*
X20389523Y31764228D01*
X20389523Y31764228D02*
X20484761Y31716609D01*
X20484761Y31716609D02*
X20675237Y31716609D01*
X20675237Y31716609D02*
X20770475Y31668990D01*
X20770475Y31668990D02*
X20818094Y31621371D01*
X20818094Y31621371D02*
X20865713Y31526133D01*
X20865713Y31526133D02*
X20865713Y31335657D01*
X20865713Y31335657D02*
X20818094Y31240419D01*
X20818094Y31240419D02*
X20770475Y31192800D01*
X20770475Y31192800D02*
X20675237Y31145180D01*
X20675237Y31145180D02*
X20484761Y31145180D01*
X20484761Y31145180D02*
X20389523Y31192800D01*
X20389523Y31192800D02*
X20341904Y31240419D01*
X20341904Y31240419D02*
X20294285Y31335657D01*
X20294285Y31335657D02*
X20294285Y31526133D01*
X20294285Y31526133D02*
X20341904Y31621371D01*
X20341904Y31621371D02*
X20389523Y31668990D01*
X20389523Y31668990D02*
X20484761Y31716609D01*
D11*
X29691904Y18352580D02*
X29691904Y17543057D01*
X29691904Y17543057D02*
X29644285Y17447819D01*
X29644285Y17447819D02*
X29596666Y17400200D01*
X29596666Y17400200D02*
X29501428Y17352580D01*
X29501428Y17352580D02*
X29310952Y17352580D01*
X29310952Y17352580D02*
X29215714Y17400200D01*
X29215714Y17400200D02*
X29168095Y17447819D01*
X29168095Y17447819D02*
X29120476Y17543057D01*
X29120476Y17543057D02*
X29120476Y18352580D01*
X28120476Y17352580D02*
X28691904Y17352580D01*
X28406190Y17352580D02*
X28406190Y18352580D01*
X28406190Y18352580D02*
X28501428Y18209723D01*
X28501428Y18209723D02*
X28596666Y18114485D01*
X28596666Y18114485D02*
X28691904Y18066866D01*
D10*
X20124819Y19646666D02*
X19648628Y19979999D01*
X20124819Y20218094D02*
X19124819Y20218094D01*
X19124819Y20218094D02*
X19124819Y19837142D01*
X19124819Y19837142D02*
X19172438Y19741904D01*
X19172438Y19741904D02*
X19220057Y19694285D01*
X19220057Y19694285D02*
X19315295Y19646666D01*
X19315295Y19646666D02*
X19458152Y19646666D01*
X19458152Y19646666D02*
X19553390Y19694285D01*
X19553390Y19694285D02*
X19601009Y19741904D01*
X19601009Y19741904D02*
X19648628Y19837142D01*
X19648628Y19837142D02*
X19648628Y20218094D01*
X20124819Y18694285D02*
X20124819Y19265713D01*
X20124819Y18979999D02*
X19124819Y18979999D01*
X19124819Y18979999D02*
X19267676Y19075237D01*
X19267676Y19075237D02*
X19362914Y19170475D01*
X19362914Y19170475D02*
X19410533Y19265713D01*
D11*
X22883333Y13787419D02*
X22407143Y13787419D01*
X22407143Y13787419D02*
X22407143Y12787419D01*
X23740476Y13787419D02*
X23169048Y13787419D01*
X23454762Y13787419D02*
X23454762Y12787419D01*
X23454762Y12787419D02*
X23359524Y12930276D01*
X23359524Y12930276D02*
X23264286Y13025514D01*
X23264286Y13025514D02*
X23169048Y13073133D01*
D10*
X31029580Y19256666D02*
X31077200Y19304285D01*
X31077200Y19304285D02*
X31124819Y19447142D01*
X31124819Y19447142D02*
X31124819Y19542380D01*
X31124819Y19542380D02*
X31077200Y19685237D01*
X31077200Y19685237D02*
X30981961Y19780475D01*
X30981961Y19780475D02*
X30886723Y19828094D01*
X30886723Y19828094D02*
X30696247Y19875713D01*
X30696247Y19875713D02*
X30553390Y19875713D01*
X30553390Y19875713D02*
X30362914Y19828094D01*
X30362914Y19828094D02*
X30267676Y19780475D01*
X30267676Y19780475D02*
X30172438Y19685237D01*
X30172438Y19685237D02*
X30124819Y19542380D01*
X30124819Y19542380D02*
X30124819Y19447142D01*
X30124819Y19447142D02*
X30172438Y19304285D01*
X30172438Y19304285D02*
X30220057Y19256666D01*
X30220057Y18875713D02*
X30172438Y18828094D01*
X30172438Y18828094D02*
X30124819Y18732856D01*
X30124819Y18732856D02*
X30124819Y18494761D01*
X30124819Y18494761D02*
X30172438Y18399523D01*
X30172438Y18399523D02*
X30220057Y18351904D01*
X30220057Y18351904D02*
X30315295Y18304285D01*
X30315295Y18304285D02*
X30410533Y18304285D01*
X30410533Y18304285D02*
X30553390Y18351904D01*
X30553390Y18351904D02*
X31124819Y18923332D01*
X31124819Y18923332D02*
X31124819Y18304285D01*
X29016666Y16260419D02*
X29064285Y16212800D01*
X29064285Y16212800D02*
X29207142Y16165180D01*
X29207142Y16165180D02*
X29302380Y16165180D01*
X29302380Y16165180D02*
X29445237Y16212800D01*
X29445237Y16212800D02*
X29540475Y16308038D01*
X29540475Y16308038D02*
X29588094Y16403276D01*
X29588094Y16403276D02*
X29635713Y16593752D01*
X29635713Y16593752D02*
X29635713Y16736609D01*
X29635713Y16736609D02*
X29588094Y16927085D01*
X29588094Y16927085D02*
X29540475Y17022323D01*
X29540475Y17022323D02*
X29445237Y17117561D01*
X29445237Y17117561D02*
X29302380Y17165180D01*
X29302380Y17165180D02*
X29207142Y17165180D01*
X29207142Y17165180D02*
X29064285Y17117561D01*
X29064285Y17117561D02*
X29016666Y17069942D01*
X28064285Y16165180D02*
X28635713Y16165180D01*
X28349999Y16165180D02*
X28349999Y17165180D01*
X28349999Y17165180D02*
X28445237Y17022323D01*
X28445237Y17022323D02*
X28540475Y16927085D01*
X28540475Y16927085D02*
X28635713Y16879466D01*
X26154819Y21926666D02*
X25678628Y22259999D01*
X26154819Y22498094D02*
X25154819Y22498094D01*
X25154819Y22498094D02*
X25154819Y22117142D01*
X25154819Y22117142D02*
X25202438Y22021904D01*
X25202438Y22021904D02*
X25250057Y21974285D01*
X25250057Y21974285D02*
X25345295Y21926666D01*
X25345295Y21926666D02*
X25488152Y21926666D01*
X25488152Y21926666D02*
X25583390Y21974285D01*
X25583390Y21974285D02*
X25631009Y22021904D01*
X25631009Y22021904D02*
X25678628Y22117142D01*
X25678628Y22117142D02*
X25678628Y22498094D01*
X25250057Y21545713D02*
X25202438Y21498094D01*
X25202438Y21498094D02*
X25154819Y21402856D01*
X25154819Y21402856D02*
X25154819Y21164761D01*
X25154819Y21164761D02*
X25202438Y21069523D01*
X25202438Y21069523D02*
X25250057Y21021904D01*
X25250057Y21021904D02*
X25345295Y20974285D01*
X25345295Y20974285D02*
X25440533Y20974285D01*
X25440533Y20974285D02*
X25583390Y21021904D01*
X25583390Y21021904D02*
X26154819Y21593332D01*
X26154819Y21593332D02*
X26154819Y20974285D01*
X23311666Y22965180D02*
X23644999Y23441371D01*
X23883094Y22965180D02*
X23883094Y23965180D01*
X23883094Y23965180D02*
X23502142Y23965180D01*
X23502142Y23965180D02*
X23406904Y23917561D01*
X23406904Y23917561D02*
X23359285Y23869942D01*
X23359285Y23869942D02*
X23311666Y23774704D01*
X23311666Y23774704D02*
X23311666Y23631847D01*
X23311666Y23631847D02*
X23359285Y23536609D01*
X23359285Y23536609D02*
X23406904Y23488990D01*
X23406904Y23488990D02*
X23502142Y23441371D01*
X23502142Y23441371D02*
X23883094Y23441371D01*
X22978332Y23965180D02*
X22359285Y23965180D01*
X22359285Y23965180D02*
X22692618Y23584228D01*
X22692618Y23584228D02*
X22549761Y23584228D01*
X22549761Y23584228D02*
X22454523Y23536609D01*
X22454523Y23536609D02*
X22406904Y23488990D01*
X22406904Y23488990D02*
X22359285Y23393752D01*
X22359285Y23393752D02*
X22359285Y23155657D01*
X22359285Y23155657D02*
X22406904Y23060419D01*
X22406904Y23060419D02*
X22454523Y23012800D01*
X22454523Y23012800D02*
X22549761Y22965180D01*
X22549761Y22965180D02*
X22835475Y22965180D01*
X22835475Y22965180D02*
X22930713Y23012800D01*
X22930713Y23012800D02*
X22978332Y23060419D01*
D12*
%TO.C,R7*%
X26823641Y31150000D02*
X26516359Y31150000D01*
X26823641Y31910000D02*
X26516359Y31910000D01*
%TO.C,R8*%
X22886359Y31150000D02*
X23193641Y31150000D01*
X22886359Y31910000D02*
X23193641Y31910000D01*
%TO.C,C3*%
X20395000Y19208748D02*
X20395000Y19731252D01*
X21865000Y19208748D02*
X21865000Y19731252D01*
%TO.C,R1*%
X22230000Y20885000D02*
X23830000Y20885000D01*
X22230000Y17885000D02*
X22230000Y20885000D01*
X23830000Y20885000D02*
X23830000Y17885000D01*
X23830000Y17885000D02*
X22230000Y17885000D01*
%TO.C,C2*%
X28125000Y19371252D02*
X28125000Y18848748D01*
X29595000Y19371252D02*
X29595000Y18848748D01*
%TO.C,C1*%
X26520580Y17240000D02*
X26239420Y17240000D01*
X26520580Y16220000D02*
X26239420Y16220000D01*
%TO.C,R2*%
X26430000Y22620000D02*
X29430000Y22620000D01*
X26430000Y21020000D02*
X26430000Y22620000D01*
X29430000Y22620000D02*
X29430000Y21020000D01*
X29430000Y21020000D02*
X26430000Y21020000D01*
%TO.C,R3*%
X21645000Y22720000D02*
X24645000Y22720000D01*
X21645000Y21120000D02*
X21645000Y22720000D01*
X24645000Y22720000D02*
X24645000Y21120000D01*
X24645000Y21120000D02*
X21645000Y21120000D01*
%TD*%
D13*
X21410000Y34287500D03*
X23910000Y34287500D03*
X26410000Y34287500D03*
X28910000Y34287500D03*
X11550000Y5670000D03*
X14050000Y5670000D03*
X16550000Y5670000D03*
X34320000Y10510000D03*
X34320000Y13010000D03*
X34320000Y15510000D03*
X5720000Y21500000D03*
X5720000Y24000000D03*
X5720000Y26500000D03*
X5720000Y29000000D03*
X4500000Y4500000D03*
X34357500Y28980000D03*
X34357500Y26480000D03*
X34357500Y23980000D03*
X34357500Y21480000D03*
X30520000Y22085000D03*
X30520000Y19545000D03*
X35500000Y4500000D03*
X4500000Y35500000D03*
X13000000Y24340000D03*
X14796051Y26136051D03*
X16592102Y27932102D03*
X18388154Y29728154D03*
X35500000Y35500000D03*
X28450000Y5642500D03*
X25950000Y5642500D03*
X23450000Y5642500D03*
M02*
