%TF.GenerationSoftware,KiCad,Pcbnew,9.0.2-9.0.2-0~ubuntu22.04.1*%
%TF.CreationDate,2025-05-12T22:54:36+03:00*%
%TF.ProjectId,endpoint-driver,656e6470-6f69-46e7-942d-647269766572,rev?*%
%TF.SameCoordinates,Original*%
%TF.FileFunction,Profile,NP*%
%FSLAX46Y46*%
G04 Gerber Fmt 4.6, Leading zero omitted, Abs format (unit mm)*
G04 Created by KiCad (PCBNEW 9.0.2-9.0.2-0~ubuntu22.04.1) date 2025-05-12 22:54:36*
%MOMM*%
%LPD*%
G01*
G04 APERTURE LIST*
%TA.AperFunction,Profile*%
%ADD10C,0.050000*%
%TD*%
%ADD11C,0.350000*%
G04 APERTURE END LIST*
D10*
X4500000Y0D02*
G75*
G02*
X0Y4500000I0J4500000D01*
G01*
X0Y35500000D02*
G75*
G02*
X4500000Y40000000I4499998J2D01*
G01*
X0Y4500000D02*
X0Y35500000D01*
X40000000Y4500000D02*
G75*
G02*
X35500000Y0I-4500000J0D01*
G01*
X35500000Y40000000D02*
G75*
G02*
X40000000Y35500000I0J-4500000D01*
G01*
X40000000Y35500000D02*
X40000000Y4500000D01*
X4500000Y40000000D02*
X35500000Y40000000D01*
X35500000Y0D02*
X4500000Y0D01*
D11*
X21410000Y34287500D03*
X23910000Y34287500D03*
X26410000Y34287500D03*
X28910000Y34287500D03*
X11550000Y5670000D03*
X14050000Y5670000D03*
X16550000Y5670000D03*
X34320000Y10510000D03*
X34320000Y13010000D03*
X34320000Y15510000D03*
X5720000Y21500000D03*
X5720000Y24000000D03*
X5720000Y26500000D03*
X5720000Y29000000D03*
X4500000Y4500000D03*
X34357500Y28980000D03*
X34357500Y26480000D03*
X34357500Y23980000D03*
X34357500Y21480000D03*
X30520000Y22085000D03*
X30520000Y19545000D03*
X35500000Y4500000D03*
X4500000Y35500000D03*
X13000000Y24340000D03*
X14796051Y26136051D03*
X16592102Y27932102D03*
X18388154Y29728154D03*
X35500000Y35500000D03*
X28450000Y5642500D03*
X25950000Y5642500D03*
X23450000Y5642500D03*
M02*
