%TF.GenerationSoftware,KiCad,Pcbnew,9.0.2-9.0.2-0~ubuntu22.04.1*%
%TF.CreationDate,2025-05-12T22:54:36+03:00*%
%TF.ProjectId,endpoint-driver,656e6470-6f69-46e7-942d-647269766572,rev?*%
%TF.SameCoordinates,Original*%
%TF.FileFunction,Soldermask,Bot*%
%TF.FilePolarity,Negative*%
%FSLAX46Y46*%
G04 Gerber Fmt 4.6, Leading zero omitted, Abs format (unit mm)*
G04 Created by KiCad (PCBNEW 9.0.2-9.0.2-0~ubuntu22.04.1) date 2025-05-12 22:54:36*
%MOMM*%
%LPD*%
G01*
G04 APERTURE LIST*
G04 Aperture macros list*
%AMRoundRect*
0 Rectangle with rounded corners*
0 $1 Rounding radius*
0 $2 $3 $4 $5 $6 $7 $8 $9 X,Y pos of 4 corners*
0 Add a 4 corners polygon primitive as box body*
4,1,4,$2,$3,$4,$5,$6,$7,$8,$9,$2,$3,0*
0 Add four circle primitives for the rounded corners*
1,1,$1+$1,$2,$3*
1,1,$1+$1,$4,$5*
1,1,$1+$1,$6,$7*
1,1,$1+$1,$8,$9*
0 Add four rect primitives between the rounded corners*
20,1,$1+$1,$2,$3,$4,$5,0*
20,1,$1+$1,$4,$5,$6,$7,0*
20,1,$1+$1,$6,$7,$8,$9,0*
20,1,$1+$1,$8,$9,$2,$3,0*%
%AMRotRect*
0 Rectangle, with rotation*
0 The origin of the aperture is its center*
0 $1 length*
0 $2 width*
0 $3 Rotation angle, in degrees counterclockwise*
0 Add horizontal line*
21,1,$1,$2,0,0,$3*%
G04 Aperture macros list end*
%ADD10RoundRect,0.135000X0.135000X0.185000X-0.135000X0.185000X-0.135000X-0.185000X0.135000X-0.185000X0*%
%ADD11RoundRect,0.250000X-0.600000X-0.725000X0.600000X-0.725000X0.600000X0.725000X-0.600000X0.725000X0*%
%ADD12O,1.700000X1.950000*%
%ADD13RoundRect,0.250000X0.600000X0.725000X-0.600000X0.725000X-0.600000X-0.725000X0.600000X-0.725000X0*%
%ADD14O,1.950000X1.700000*%
%ADD15RoundRect,0.250000X-0.725000X0.600000X-0.725000X-0.600000X0.725000X-0.600000X0.725000X0.600000X0*%
%ADD16RoundRect,0.250000X0.725000X-0.600000X0.725000X0.600000X-0.725000X0.600000X-0.725000X-0.600000X0*%
%ADD17RoundRect,0.135000X-0.135000X-0.185000X0.135000X-0.185000X0.135000X0.185000X-0.135000X0.185000X0*%
%ADD18C,3.200000*%
%ADD19R,1.700000X1.700000*%
%ADD20C,1.700000*%
%ADD21RotRect,1.700000X1.700000X135.000000*%
%ADD22R,1.000000X0.800000*%
%ADD23RoundRect,0.250000X0.475000X-0.250000X0.475000X0.250000X-0.475000X0.250000X-0.475000X-0.250000X0*%
%ADD24RoundRect,0.200000X0.275000X-0.200000X0.275000X0.200000X-0.275000X0.200000X-0.275000X-0.200000X0*%
%ADD25RoundRect,0.120000X-1.230000X-0.280000X1.230000X-0.280000X1.230000X0.280000X-1.230000X0.280000X0*%
%ADD26RoundRect,0.250000X-0.475000X0.250000X-0.475000X-0.250000X0.475000X-0.250000X0.475000X0.250000X0*%
%ADD27RoundRect,0.225000X0.225000X0.250000X-0.225000X0.250000X-0.225000X-0.250000X0.225000X-0.250000X0*%
%ADD28RoundRect,0.200000X0.200000X0.275000X-0.200000X0.275000X-0.200000X-0.275000X0.200000X-0.275000X0*%
G04 APERTURE END LIST*
D10*
%TO.C,R7*%
X26160000Y31530000D03*
X27180000Y31530000D03*
%TD*%
D11*
%TO.C,J8*%
X21410000Y34287500D03*
D12*
X23910000Y34287500D03*
X26410000Y34287500D03*
X28910000Y34287500D03*
%TD*%
%TO.C,J5*%
X11550000Y5670000D03*
X14050000Y5670000D03*
D13*
X16550000Y5670000D03*
%TD*%
D14*
%TO.C,J7*%
X34320000Y10510000D03*
X34320000Y13010000D03*
D15*
X34320000Y15510000D03*
%TD*%
D16*
%TO.C,J2*%
X5720000Y21500000D03*
D14*
X5720000Y24000000D03*
X5720000Y26500000D03*
X5720000Y29000000D03*
%TD*%
D17*
%TO.C,R8*%
X22530000Y31530000D03*
X23550000Y31530000D03*
%TD*%
D18*
%TO.C,H1*%
X4500000Y4500000D03*
%TD*%
D15*
%TO.C,J3*%
X34357500Y28980000D03*
D14*
X34357500Y26480000D03*
X34357500Y23980000D03*
X34357500Y21480000D03*
%TD*%
D19*
%TO.C,J4*%
X30520000Y22085000D03*
D20*
X30520000Y19545000D03*
%TD*%
D18*
%TO.C,H2*%
X35500000Y4500000D03*
%TD*%
%TO.C,H3*%
X4500000Y35500000D03*
%TD*%
D21*
%TO.C,J1*%
X13000000Y24340000D03*
D20*
X14796051Y26136051D03*
X16592102Y27932102D03*
X18388154Y29728154D03*
%TD*%
D18*
%TO.C,H4*%
X35500000Y35500000D03*
%TD*%
D22*
%TO.C,U1*%
X24620000Y18300000D03*
X24620000Y19250000D03*
X24620000Y20200000D03*
X27120000Y20250000D03*
X27120000Y19250000D03*
X27120000Y18300000D03*
%TD*%
D23*
%TO.C,C3*%
X21130000Y18520000D03*
X21130000Y20420000D03*
%TD*%
D24*
%TO.C,R1*%
X23030000Y18560000D03*
X23030000Y20210000D03*
%TD*%
D25*
%TO.C,L1*%
X23030000Y17080000D03*
X23030000Y14780000D03*
%TD*%
D26*
%TO.C,C2*%
X28860000Y20060000D03*
X28860000Y18160000D03*
%TD*%
D27*
%TO.C,C1*%
X27155000Y16730000D03*
X25605000Y16730000D03*
%TD*%
D28*
%TO.C,R2*%
X28755000Y21820000D03*
X27105000Y21820000D03*
%TD*%
%TO.C,R3*%
X23970000Y21920000D03*
X22320000Y21920000D03*
%TD*%
D13*
%TO.C,J6*%
X28450000Y5642500D03*
D12*
X25950000Y5642500D03*
X23450000Y5642500D03*
%TD*%
M02*
