%TF.GenerationSoftware,KiCad,Pcbnew,9.0.2-9.0.2-0~ubuntu22.04.1*%
%TF.CreationDate,2025-05-11T10:39:50+03:00*%
%TF.ProjectId,steper-motor-unit,73746570-6572-42d6-9d6f-746f722d756e,rev?*%
%TF.SameCoordinates,Original*%
%TF.FileFunction,Copper,L1,Top*%
%TF.FilePolarity,Positive*%
%FSLAX46Y46*%
G04 Gerber Fmt 4.6, Leading zero omitted, Abs format (unit mm)*
G04 Created by KiCad (PCBNEW 9.0.2-9.0.2-0~ubuntu22.04.1) date 2025-05-11 10:39:50*
%MOMM*%
%LPD*%
G01*
G04 APERTURE LIST*
G04 Aperture macros list*
%AMRoundRect*
0 Rectangle with rounded corners*
0 $1 Rounding radius*
0 $2 $3 $4 $5 $6 $7 $8 $9 X,Y pos of 4 corners*
0 Add a 4 corners polygon primitive as box body*
4,1,4,$2,$3,$4,$5,$6,$7,$8,$9,$2,$3,0*
0 Add four circle primitives for the rounded corners*
1,1,$1+$1,$2,$3*
1,1,$1+$1,$4,$5*
1,1,$1+$1,$6,$7*
1,1,$1+$1,$8,$9*
0 Add four rect primitives between the rounded corners*
20,1,$1+$1,$2,$3,$4,$5,0*
20,1,$1+$1,$4,$5,$6,$7,0*
20,1,$1+$1,$6,$7,$8,$9,0*
20,1,$1+$1,$8,$9,$2,$3,0*%
%AMRotRect*
0 Rectangle, with rotation*
0 The origin of the aperture is its center*
0 $1 length*
0 $2 width*
0 $3 Rotation angle, in degrees counterclockwise*
0 Add horizontal line*
21,1,$1,$2,0,0,$3*%
G04 Aperture macros list end*
%TA.AperFunction,SMDPad,CuDef*%
%ADD10RoundRect,0.250000X-0.475000X0.250000X-0.475000X-0.250000X0.475000X-0.250000X0.475000X0.250000X0*%
%TD*%
%TA.AperFunction,SMDPad,CuDef*%
%ADD11RoundRect,0.135000X-0.185000X0.135000X-0.185000X-0.135000X0.185000X-0.135000X0.185000X0.135000X0*%
%TD*%
%TA.AperFunction,SMDPad,CuDef*%
%ADD12RoundRect,0.225000X0.017678X-0.335876X0.335876X-0.017678X-0.017678X0.335876X-0.335876X0.017678X0*%
%TD*%
%TA.AperFunction,SMDPad,CuDef*%
%ADD13RoundRect,0.250000X-0.350000X0.350000X-0.350000X-0.350000X0.350000X-0.350000X0.350000X0.350000X0*%
%TD*%
%TA.AperFunction,SMDPad,CuDef*%
%ADD14RoundRect,0.250000X-0.550000X0.500000X-0.550000X-0.500000X0.550000X-0.500000X0.550000X0.500000X0*%
%TD*%
%TA.AperFunction,ComponentPad*%
%ADD15RoundRect,0.250000X0.725000X-0.600000X0.725000X0.600000X-0.725000X0.600000X-0.725000X-0.600000X0*%
%TD*%
%TA.AperFunction,ComponentPad*%
%ADD16O,1.950000X1.700000*%
%TD*%
%TA.AperFunction,SMDPad,CuDef*%
%ADD17RoundRect,0.225000X-0.017678X0.335876X-0.335876X0.017678X0.017678X-0.335876X0.335876X-0.017678X0*%
%TD*%
%TA.AperFunction,SMDPad,CuDef*%
%ADD18RoundRect,0.225000X-0.225000X-0.250000X0.225000X-0.250000X0.225000X0.250000X-0.225000X0.250000X0*%
%TD*%
%TA.AperFunction,SMDPad,CuDef*%
%ADD19RoundRect,0.135000X0.185000X-0.135000X0.185000X0.135000X-0.185000X0.135000X-0.185000X-0.135000X0*%
%TD*%
%TA.AperFunction,SMDPad,CuDef*%
%ADD20RoundRect,0.135000X-0.135000X-0.185000X0.135000X-0.185000X0.135000X0.185000X-0.135000X0.185000X0*%
%TD*%
%TA.AperFunction,SMDPad,CuDef*%
%ADD21RoundRect,0.250000X-1.500000X-0.550000X1.500000X-0.550000X1.500000X0.550000X-1.500000X0.550000X0*%
%TD*%
%TA.AperFunction,SMDPad,CuDef*%
%ADD22RoundRect,0.135000X0.035355X-0.226274X0.226274X-0.035355X-0.035355X0.226274X-0.226274X0.035355X0*%
%TD*%
%TA.AperFunction,ComponentPad*%
%ADD23RoundRect,0.250000X-0.725000X0.600000X-0.725000X-0.600000X0.725000X-0.600000X0.725000X0.600000X0*%
%TD*%
%TA.AperFunction,ComponentPad*%
%ADD24R,1.700000X1.700000*%
%TD*%
%TA.AperFunction,ComponentPad*%
%ADD25C,1.700000*%
%TD*%
%TA.AperFunction,SMDPad,CuDef*%
%ADD26RoundRect,0.250000X-0.565685X0.070711X0.070711X-0.565685X0.565685X-0.070711X-0.070711X0.565685X0*%
%TD*%
%TA.AperFunction,SMDPad,CuDef*%
%ADD27RoundRect,0.135000X0.135000X0.185000X-0.135000X0.185000X-0.135000X-0.185000X0.135000X-0.185000X0*%
%TD*%
%TA.AperFunction,ComponentPad*%
%ADD28RoundRect,0.250000X0.600000X0.725000X-0.600000X0.725000X-0.600000X-0.725000X0.600000X-0.725000X0*%
%TD*%
%TA.AperFunction,ComponentPad*%
%ADD29O,1.700000X1.950000*%
%TD*%
%TA.AperFunction,SMDPad,CuDef*%
%ADD30RoundRect,0.062500X-0.220971X-0.309359X0.309359X0.220971X0.220971X0.309359X-0.309359X-0.220971X0*%
%TD*%
%TA.AperFunction,SMDPad,CuDef*%
%ADD31RoundRect,0.062500X0.220971X-0.309359X0.309359X-0.220971X-0.220971X0.309359X-0.309359X0.220971X0*%
%TD*%
%TA.AperFunction,HeatsinkPad*%
%ADD32RotRect,5.600000X5.600000X45.000000*%
%TD*%
%TA.AperFunction,SMDPad,CuDef*%
%ADD33RoundRect,0.200000X0.053033X-0.335876X0.335876X-0.053033X-0.053033X0.335876X-0.335876X0.053033X0*%
%TD*%
%TA.AperFunction,SMDPad,CuDef*%
%ADD34RoundRect,0.225000X0.250000X-0.225000X0.250000X0.225000X-0.250000X0.225000X-0.250000X-0.225000X0*%
%TD*%
%TA.AperFunction,SMDPad,CuDef*%
%ADD35RoundRect,0.045000X0.405000X-0.105000X0.405000X0.105000X-0.405000X0.105000X-0.405000X-0.105000X0*%
%TD*%
%TA.AperFunction,SMDPad,CuDef*%
%ADD36RoundRect,0.045000X-0.405000X0.105000X-0.405000X-0.105000X0.405000X-0.105000X0.405000X0.105000X0*%
%TD*%
%TA.AperFunction,SMDPad,CuDef*%
%ADD37RoundRect,0.045000X-0.105000X-0.405000X0.105000X-0.405000X0.105000X0.405000X-0.105000X0.405000X0*%
%TD*%
%TA.AperFunction,SMDPad,CuDef*%
%ADD38RoundRect,0.045000X0.105000X0.405000X-0.105000X0.405000X-0.105000X-0.405000X0.105000X-0.405000X0*%
%TD*%
%TA.AperFunction,SMDPad,CuDef*%
%ADD39RoundRect,0.472500X1.102500X1.102500X-1.102500X1.102500X-1.102500X-1.102500X1.102500X-1.102500X0*%
%TD*%
%TA.AperFunction,SMDPad,CuDef*%
%ADD40RoundRect,0.150000X-0.825000X-0.150000X0.825000X-0.150000X0.825000X0.150000X-0.825000X0.150000X0*%
%TD*%
%TA.AperFunction,ViaPad*%
%ADD41C,0.600000*%
%TD*%
%TA.AperFunction,ViaPad*%
%ADD42C,0.500000*%
%TD*%
%TA.AperFunction,ViaPad*%
%ADD43C,0.800000*%
%TD*%
%TA.AperFunction,Conductor*%
%ADD44C,0.240000*%
%TD*%
%TA.AperFunction,Conductor*%
%ADD45C,0.300000*%
%TD*%
%TA.AperFunction,Conductor*%
%ADD46C,0.400000*%
%TD*%
%TA.AperFunction,Conductor*%
%ADD47C,0.310000*%
%TD*%
%TA.AperFunction,Conductor*%
%ADD48C,0.500000*%
%TD*%
%TA.AperFunction,Conductor*%
%ADD49C,0.200000*%
%TD*%
%TA.AperFunction,Conductor*%
%ADD50C,0.600000*%
%TD*%
%TA.AperFunction,Conductor*%
%ADD51C,1.000000*%
%TD*%
%ADD52C,0.300000*%
%ADD53C,0.350000*%
G04 APERTURE END LIST*
D10*
%TO.P,C8,1*%
%TO.N,+3.3V*%
X20740000Y37120000D03*
%TO.P,C8,2*%
%TO.N,GND*%
X20740000Y35220000D03*
%TD*%
D11*
%TO.P,R14,1*%
%TO.N,+3.3V*%
X19210000Y19440000D03*
%TO.P,R14,2*%
%TO.N,/MCU/A4988_SLEEP*%
X19210000Y18420000D03*
%TD*%
D12*
%TO.P,C5,1*%
%TO.N,+3.3V*%
X19821992Y27161992D03*
%TO.P,C5,2*%
%TO.N,GND*%
X20918008Y28258008D03*
%TD*%
D13*
%TO.P,PT1,1,CCW*%
%TO.N,GND*%
X16670000Y18190000D03*
D14*
%TO.P,PT1,2,WRIPER*%
%TO.N,/StepperDriver/REF*%
X15670000Y14940000D03*
D13*
%TO.P,PT1,3,CW*%
%TO.N,+3.3V*%
X14670000Y18190000D03*
%TD*%
D15*
%TO.P,J2,1,Pin_1*%
%TO.N,VCC*%
X5660000Y11700000D03*
D16*
%TO.P,J2,2,Pin_2*%
%TO.N,/CAN/CAN_P*%
X5660000Y14200000D03*
%TO.P,J2,3,Pin_3*%
%TO.N,/CAN/CAN_N*%
X5660000Y16700000D03*
%TO.P,J2,4,Pin_4*%
%TO.N,GND*%
X5660000Y19200000D03*
%TD*%
D12*
%TO.P,C4,1*%
%TO.N,+3.3V*%
X19621992Y24871992D03*
%TO.P,C4,2*%
%TO.N,GND*%
X20718008Y25968008D03*
%TD*%
D11*
%TO.P,R10,1*%
%TO.N,GND*%
X20240000Y19430000D03*
%TO.P,R10,2*%
%TO.N,Net-(U5-ROSC)*%
X20240000Y18410000D03*
%TD*%
D12*
%TO.P,C11,1*%
%TO.N,GND*%
X10388229Y21137164D03*
%TO.P,C11,2*%
%TO.N,/MCU/OSC_OUT*%
X11484245Y22233180D03*
%TD*%
D17*
%TO.P,C9,1*%
%TO.N,/MCU/NRST*%
X12998008Y21468008D03*
%TO.P,C9,2*%
%TO.N,GND*%
X11901992Y20371992D03*
%TD*%
D18*
%TO.P,C16,1*%
%TO.N,Net-(U5-VREG)*%
X25975000Y18360000D03*
%TO.P,C16,2*%
%TO.N,GND*%
X27525000Y18360000D03*
%TD*%
D19*
%TO.P,R9,1*%
%TO.N,/MCU/A4988_STEP*%
X18330000Y15410000D03*
%TO.P,R9,2*%
%TO.N,+3.3V*%
X18330000Y16430000D03*
%TD*%
D20*
%TO.P,R16,1*%
%TO.N,+3.3V*%
X17280000Y13200000D03*
%TO.P,R16,2*%
%TO.N,/MCU/A4988_DIR*%
X18300000Y13200000D03*
%TD*%
D21*
%TO.P,C14,1,+*%
%TO.N,VCC*%
X30950000Y12620000D03*
%TO.P,C14,2,-*%
%TO.N,GND*%
X36350000Y12620000D03*
%TD*%
D22*
%TO.P,R11,1*%
%TO.N,/MCU/BOOT*%
X9329426Y29709426D03*
%TO.P,R11,2*%
%TO.N,GND*%
X10050674Y30430674D03*
%TD*%
D23*
%TO.P,J3,1,Pin_1*%
%TO.N,VCC*%
X34360000Y28270000D03*
D16*
%TO.P,J3,2,Pin_2*%
%TO.N,/CAN/CAN_P*%
X34360000Y25770000D03*
%TO.P,J3,3,Pin_3*%
%TO.N,/CAN/CAN_N*%
X34360000Y23270000D03*
%TO.P,J3,4,Pin_4*%
%TO.N,GND*%
X34360000Y20770000D03*
%TD*%
D24*
%TO.P,J4,1,Pin_1*%
%TO.N,/CAN/CAN_P*%
X28590000Y25215000D03*
D25*
%TO.P,J4,2,Pin_2*%
%TO.N,Net-(J4-Pin_2)*%
X26050000Y25215000D03*
%TD*%
D26*
%TO.P,X1,1,1*%
%TO.N,/MCU/OSC_IN*%
X7537379Y23911949D03*
%TO.P,X1,2,2*%
%TO.N,GND*%
X9093014Y22356314D03*
%TO.P,X1,3,3*%
%TO.N,/MCU/OSC_OUT*%
X10295095Y23558395D03*
%TO.P,X1,4,4*%
%TO.N,GND*%
X8739460Y25114030D03*
%TD*%
D27*
%TO.P,R5,1*%
%TO.N,Net-(U3-Rs)*%
X28020000Y34290000D03*
%TO.P,R5,2*%
%TO.N,GND*%
X27000000Y34290000D03*
%TD*%
D18*
%TO.P,C13,1*%
%TO.N,/StepperDriver/VCP*%
X25965000Y16870000D03*
%TO.P,C13,2*%
%TO.N,VCC*%
X27515000Y16870000D03*
%TD*%
D24*
%TO.P,J6,1,Pin_1*%
%TO.N,VCC*%
X26675000Y36700000D03*
D25*
%TO.P,J6,2,Pin_2*%
%TO.N,GND*%
X29215000Y36700000D03*
%TD*%
D28*
%TO.P,J5,1,Pin_1*%
%TO.N,/StepperDriver/OUT2B*%
X23830000Y5632500D03*
D29*
%TO.P,J5,2,Pin_2*%
%TO.N,/StepperDriver/OUT1B*%
X21330000Y5632500D03*
%TO.P,J5,3,Pin_3*%
%TO.N,/StepperDriver/OUT2A*%
X18830000Y5632500D03*
%TO.P,J5,4,Pin_4*%
%TO.N,/StepperDriver/OUT1A*%
X16330000Y5632500D03*
%TD*%
D12*
%TO.P,C10,1*%
%TO.N,/MCU/OSC_IN*%
X6278229Y25227164D03*
%TO.P,C10,2*%
%TO.N,GND*%
X7374245Y26323180D03*
%TD*%
D11*
%TO.P,R15,1*%
%TO.N,+3.3V*%
X21260000Y19440000D03*
%TO.P,R15,2*%
%TO.N,/MCU/A4988_RESET*%
X21260000Y18420000D03*
%TD*%
D18*
%TO.P,C6,1*%
%TO.N,+3.3V*%
X15195000Y33490000D03*
%TO.P,C6,2*%
%TO.N,GND*%
X16745000Y33490000D03*
%TD*%
D30*
%TO.P,U2,1,VBAT*%
%TO.N,unconnected-(U2-VBAT-Pad1)*%
X9484878Y27143813D03*
%TO.P,U2,2,PC13*%
%TO.N,unconnected-(U2-PC13-Pad2)*%
X9838431Y26790260D03*
%TO.P,U2,3,PC14*%
%TO.N,unconnected-(U2-PC14-Pad3)*%
X10191985Y26436706D03*
%TO.P,U2,4,PC15*%
%TO.N,unconnected-(U2-PC15-Pad4)*%
X10545538Y26083153D03*
%TO.P,U2,5,PF0*%
%TO.N,/MCU/OSC_IN*%
X10899091Y25729600D03*
%TO.P,U2,6,PF1*%
%TO.N,/MCU/OSC_OUT*%
X11252645Y25376046D03*
%TO.P,U2,7,PG10*%
%TO.N,/MCU/NRST*%
X11606198Y25022493D03*
%TO.P,U2,8,PA0*%
%TO.N,unconnected-(U2-PA0-Pad8)*%
X11959752Y24668939D03*
%TO.P,U2,9,PA1*%
%TO.N,unconnected-(U2-PA1-Pad9)*%
X12313305Y24315386D03*
%TO.P,U2,10,PA2*%
%TO.N,unconnected-(U2-PA2-Pad10)*%
X12666858Y23961833D03*
%TO.P,U2,11,PA3*%
%TO.N,unconnected-(U2-PA3-Pad11)*%
X13020412Y23608279D03*
%TO.P,U2,12,PA4*%
%TO.N,/MCU/A4988_DIR*%
X13373965Y23254726D03*
D31*
%TO.P,U2,13,PA5*%
%TO.N,/MCU/A4988_STEP*%
X14346237Y23254726D03*
%TO.P,U2,14,PA6*%
%TO.N,/MCU/A4988_SLEEP*%
X14699790Y23608279D03*
%TO.P,U2,15,PA7*%
%TO.N,/MCU/A4988_RESET*%
X15053344Y23961833D03*
%TO.P,U2,16,PC4*%
%TO.N,/MCU/A4988_MS3*%
X15406897Y24315386D03*
%TO.P,U2,17,PB0*%
%TO.N,/MCU/A4988_MS2*%
X15760450Y24668939D03*
%TO.P,U2,18,PB1*%
%TO.N,/MCU/A4988_MS1*%
X16114004Y25022493D03*
%TO.P,U2,19,PB2*%
%TO.N,/MCU/A4988_ENABLE*%
X16467557Y25376046D03*
%TO.P,U2,20,VREF+*%
%TO.N,unconnected-(U2-VREF+-Pad20)*%
X16821111Y25729600D03*
%TO.P,U2,21,VDDA*%
%TO.N,+3.3V*%
X17174664Y26083153D03*
%TO.P,U2,22,PB10*%
%TO.N,unconnected-(U2-PB10-Pad22)*%
X17528217Y26436706D03*
%TO.P,U2,23,VDD*%
%TO.N,+3.3V*%
X17881771Y26790260D03*
%TO.P,U2,24,PB11*%
%TO.N,unconnected-(U2-PB11-Pad24)*%
X18235324Y27143813D03*
D30*
%TO.P,U2,25,PB12*%
%TO.N,unconnected-(U2-PB12-Pad25)*%
X18235324Y28116085D03*
%TO.P,U2,26,PB13*%
%TO.N,unconnected-(U2-PB13-Pad26)*%
X17881771Y28469638D03*
%TO.P,U2,27,PB14*%
%TO.N,/Encoder/AS_PWM*%
X17528217Y28823192D03*
%TO.P,U2,28,PB15*%
%TO.N,/Encoder/AS_DIR*%
X17174664Y29176745D03*
%TO.P,U2,29,PC6*%
%TO.N,unconnected-(U2-PC6-Pad29)*%
X16821111Y29530298D03*
%TO.P,U2,30,PA8*%
%TO.N,/Encoder/SDA*%
X16467557Y29883852D03*
%TO.P,U2,31,PA9*%
%TO.N,/Encoder/SCL*%
X16114004Y30237405D03*
%TO.P,U2,32,PA10*%
%TO.N,unconnected-(U2-PA10-Pad32)*%
X15760450Y30590959D03*
%TO.P,U2,33,PA11*%
%TO.N,/CAN/CAN_OUT-*%
X15406897Y30944512D03*
%TO.P,U2,34,PA12*%
%TO.N,/CAN/CAN_OUT+*%
X15053344Y31298065D03*
%TO.P,U2,35,VDD*%
%TO.N,+3.3V*%
X14699790Y31651619D03*
%TO.P,U2,36,PA13*%
%TO.N,/MCU/SWDIO*%
X14346237Y32005172D03*
D31*
%TO.P,U2,37,PA14*%
%TO.N,/MCU/SWCLK*%
X13373965Y32005172D03*
%TO.P,U2,38,PA15*%
%TO.N,unconnected-(U2-PA15-Pad38)*%
X13020412Y31651619D03*
%TO.P,U2,39,PC10*%
%TO.N,unconnected-(U2-PC10-Pad39)*%
X12666858Y31298065D03*
%TO.P,U2,40,PC11*%
%TO.N,unconnected-(U2-PC11-Pad40)*%
X12313305Y30944512D03*
%TO.P,U2,41,PB3*%
%TO.N,unconnected-(U2-PB3-Pad41)*%
X11959752Y30590959D03*
%TO.P,U2,42,PB4*%
%TO.N,unconnected-(U2-PB4-Pad42)*%
X11606198Y30237405D03*
%TO.P,U2,43,PB5*%
%TO.N,unconnected-(U2-PB5-Pad43)*%
X11252645Y29883852D03*
%TO.P,U2,44,PB6*%
%TO.N,unconnected-(U2-PB6-Pad44)*%
X10899091Y29530298D03*
%TO.P,U2,45,PB7*%
%TO.N,unconnected-(U2-PB7-Pad45)*%
X10545538Y29176745D03*
%TO.P,U2,46,PB8*%
%TO.N,/MCU/BOOT*%
X10191985Y28823192D03*
%TO.P,U2,47,PB9*%
%TO.N,unconnected-(U2-PB9-Pad47)*%
X9838431Y28469638D03*
%TO.P,U2,48,VDD*%
%TO.N,+3.3V*%
X9484878Y28116085D03*
D32*
%TO.P,U2,49,VSS*%
%TO.N,GND*%
X13860101Y27629949D03*
%TD*%
D17*
%TO.P,C7,1*%
%TO.N,+3.3V*%
X8158058Y29238058D03*
%TO.P,C7,2*%
%TO.N,GND*%
X7062042Y28142042D03*
%TD*%
D33*
%TO.P,R4,1*%
%TO.N,+3.3V*%
X12956637Y19256637D03*
%TO.P,R4,2*%
%TO.N,/MCU/NRST*%
X14123363Y20423363D03*
%TD*%
D24*
%TO.P,J1,1,Pin_1*%
%TO.N,GND*%
X10190000Y37100000D03*
D25*
%TO.P,J1,2,Pin_2*%
%TO.N,/MCU/SWCLK*%
X12730000Y37100000D03*
%TO.P,J1,3,Pin_3*%
%TO.N,/MCU/SWDIO*%
X15270000Y37100000D03*
%TO.P,J1,4,Pin_4*%
%TO.N,+3.3V*%
X17810000Y37100000D03*
%TD*%
D34*
%TO.P,C15,1*%
%TO.N,Net-(U5-CP1)*%
X26640000Y13835000D03*
%TO.P,C15,2*%
%TO.N,Net-(U5-CP2)*%
X26640000Y15385000D03*
%TD*%
D27*
%TO.P,R6,1*%
%TO.N,Net-(J4-Pin_2)*%
X26020000Y27565000D03*
%TO.P,R6,2*%
%TO.N,/CAN/CAN_N*%
X25000000Y27565000D03*
%TD*%
D20*
%TO.P,R18,1*%
%TO.N,/MCU/A4988_ENABLE*%
X25900000Y12550000D03*
%TO.P,R18,2*%
%TO.N,+3.3V*%
X26920000Y12550000D03*
%TD*%
D35*
%TO.P,U5,1,OUT2B*%
%TO.N,/StepperDriver/OUT2B*%
X24370000Y12920000D03*
%TO.P,U5,2,ENABLE*%
%TO.N,/MCU/A4988_ENABLE*%
X24370000Y13420000D03*
%TO.P,U5,3,GND*%
%TO.N,GND*%
X24370000Y13920000D03*
D36*
%TO.P,U5,4,CP1*%
%TO.N,Net-(U5-CP1)*%
X24370000Y14420000D03*
%TO.P,U5,5,CP2*%
%TO.N,Net-(U5-CP2)*%
X24370000Y14920000D03*
D35*
%TO.P,U5,6,VCP*%
%TO.N,/StepperDriver/VCP*%
X24370000Y15420000D03*
D36*
%TO.P,U5,7,NC*%
%TO.N,unconnected-(U5-NC-Pad7)*%
X24370000Y15920000D03*
D37*
%TO.P,U5,8,VREG*%
%TO.N,Net-(U5-VREG)*%
X23470000Y16820000D03*
%TO.P,U5,9,MS1*%
%TO.N,/MCU/A4988_MS1*%
X22970000Y16820000D03*
%TO.P,U5,10,MS2*%
%TO.N,/MCU/A4988_MS2*%
X22470000Y16820000D03*
%TO.P,U5,11,MS3*%
%TO.N,/MCU/A4988_MS3*%
X21970000Y16820000D03*
%TO.P,U5,12,RESET*%
%TO.N,/MCU/A4988_RESET*%
X21470000Y16820000D03*
%TO.P,U5,13,ROSC*%
%TO.N,Net-(U5-ROSC)*%
X20970000Y16820000D03*
%TO.P,U5,14,SLEEP*%
%TO.N,/MCU/A4988_SLEEP*%
X20470000Y16820000D03*
D36*
%TO.P,U5,15,VDD*%
%TO.N,+3.3V*%
X19570000Y15920000D03*
D35*
%TO.P,U5,16,STEP*%
%TO.N,/MCU/A4988_STEP*%
X19570000Y15420000D03*
%TO.P,U5,17,REF*%
%TO.N,/StepperDriver/REF*%
X19570000Y14920000D03*
%TO.P,U5,18,GND*%
%TO.N,GND*%
X19570000Y14420000D03*
%TO.P,U5,19,DIR*%
%TO.N,/MCU/A4988_DIR*%
X19570000Y13920000D03*
D36*
%TO.P,U5,20,NC*%
%TO.N,unconnected-(U5-NC-Pad20)*%
X19570000Y13420000D03*
D35*
%TO.P,U5,21,OUT1B*%
%TO.N,/StepperDriver/OUT1B*%
X19570000Y12920000D03*
D38*
%TO.P,U5,22,VBB1*%
%TO.N,VCC*%
X20470000Y12020000D03*
%TO.P,U5,23,SENSE1*%
%TO.N,/StepperDriver/SENSE1*%
X20970000Y12020000D03*
%TO.P,U5,24,OUT1A*%
%TO.N,/StepperDriver/OUT1A*%
X21470000Y12020000D03*
%TO.P,U5,25,NC*%
%TO.N,unconnected-(U5-NC-Pad25)*%
X21970000Y12020000D03*
%TO.P,U5,26,OUT2A*%
%TO.N,/StepperDriver/OUT2A*%
X22470000Y12020000D03*
%TO.P,U5,27,SENSE2*%
%TO.N,/StepperDriver/SENSE2*%
X22970000Y12020000D03*
%TO.P,U5,28,VBB2*%
%TO.N,VCC*%
X23470000Y12020000D03*
D39*
%TO.P,U5,29,GND*%
%TO.N,GND*%
X21970000Y14420000D03*
%TD*%
D40*
%TO.P,U3,1,D*%
%TO.N,/CAN/CAN_OUT+*%
X23085000Y32830000D03*
%TO.P,U3,2,GND*%
%TO.N,GND*%
X23085000Y31560000D03*
%TO.P,U3,3,VCC*%
%TO.N,+3.3V*%
X23085000Y30290000D03*
%TO.P,U3,4,R*%
%TO.N,/CAN/CAN_OUT-*%
X23085000Y29020000D03*
%TO.P,U3,5,Vref*%
%TO.N,unconnected-(U3-Vref-Pad5)*%
X28035000Y29020000D03*
%TO.P,U3,6,CANL*%
%TO.N,/CAN/CAN_N*%
X28035000Y30290000D03*
%TO.P,U3,7,CANH*%
%TO.N,/CAN/CAN_P*%
X28035000Y31560000D03*
%TO.P,U3,8,Rs*%
%TO.N,Net-(U3-Rs)*%
X28035000Y32830000D03*
%TD*%
D41*
%TO.N,/MCU/A4988_ENABLE*%
X24510000Y18820000D03*
X25330000Y13420000D03*
%TO.N,GND*%
X10990000Y19600000D03*
X11620000Y18960000D03*
X12340000Y18340000D03*
X13100000Y14460000D03*
X13100000Y15570000D03*
X13100000Y16670000D03*
X13110000Y17720000D03*
%TO.N,/StepperDriver/OUT1B*%
X18330000Y11610000D03*
%TO.N,/StepperDriver/OUT2B*%
X25370000Y11670000D03*
%TO.N,GND*%
X33780000Y14690000D03*
X20230000Y21200000D03*
X15670000Y16390000D03*
X19160000Y21220000D03*
X33790000Y13750000D03*
%TO.N,+3.3V*%
X16590000Y13220000D03*
X21690000Y20020000D03*
X18780000Y26270000D03*
X18340000Y17230000D03*
X27625309Y12103319D03*
X21810000Y24740000D03*
X19180000Y20310000D03*
X18224293Y25675707D03*
X8895000Y28705000D03*
X15190000Y32460000D03*
X24740000Y30290000D03*
D42*
X13610000Y18580000D03*
D41*
%TO.N,/Encoder/AS_PWM*%
X19520000Y29020000D03*
%TO.N,/Encoder/SCL*%
X18135744Y30400253D03*
%TO.N,/Encoder/SDA*%
X17338014Y30340000D03*
%TO.N,/Encoder/AS_DIR*%
X18802116Y29724088D03*
D43*
%TO.N,VCC*%
X24790000Y10550000D03*
X30920000Y10550000D03*
X19360000Y10550000D03*
X35880000Y17470000D03*
D41*
%TO.N,/StepperDriver/SENSE2*%
X23710000Y9550000D03*
%TO.N,/StepperDriver/SENSE1*%
X20310000Y9550000D03*
%TD*%
D44*
%TO.N,/MCU/A4988_ENABLE*%
X24510000Y20584672D02*
X24510000Y18820000D01*
X21123672Y23971000D02*
X24510000Y20584672D01*
X17872603Y23971000D02*
X21123672Y23971000D01*
X16467557Y25376046D02*
X17872603Y23971000D01*
X25330000Y13420000D02*
X25400000Y13420000D01*
D45*
%TO.N,/StepperDriver/OUT1A*%
X21470000Y12020000D02*
X21470000Y8910000D01*
D46*
X21470000Y8910000D02*
X21240000Y8680000D01*
X21240000Y8680000D02*
X19377500Y8680000D01*
X19377500Y8680000D02*
X16330000Y5632500D01*
D47*
%TO.N,/StepperDriver/OUT2A*%
X22470000Y12020000D02*
X22470000Y9120000D01*
X22470000Y9120000D02*
X22470000Y8971480D01*
D46*
X22470000Y9120000D02*
X22470000Y8560000D01*
X22470000Y8560000D02*
X21940000Y8030000D01*
X21940000Y8030000D02*
X19870000Y8030000D01*
X19870000Y8030000D02*
X18830000Y6990000D01*
X18830000Y6990000D02*
X18830000Y5632500D01*
D44*
%TO.N,/StepperDriver/SENSE2*%
X23710000Y9550000D02*
X23710000Y9370000D01*
X23710000Y9550000D02*
X23710000Y10270000D01*
X22970000Y11010000D02*
X22970000Y12020000D01*
X23710000Y10270000D02*
X22970000Y11010000D01*
D46*
%TO.N,/StepperDriver/OUT1B*%
X19570000Y12710000D02*
X19570000Y12869000D01*
%TO.N,/StepperDriver/OUT2B*%
X25380000Y11640000D02*
X25370000Y11640000D01*
X25370000Y11640000D02*
X24370000Y12640000D01*
X24370000Y12640000D02*
X24370000Y12920000D01*
%TO.N,/StepperDriver/OUT1B*%
X19020000Y12280000D02*
X19140000Y12280000D01*
X19140000Y12280000D02*
X19570000Y12710000D01*
X18350000Y11610000D02*
X18330000Y11610000D01*
X19020000Y12280000D02*
X18350000Y11610000D01*
D48*
%TO.N,VCC*%
X19360000Y10550000D02*
X19360000Y10650000D01*
X19360000Y10650000D02*
X20369000Y11659000D01*
X20369000Y11659000D02*
X20369000Y12020000D01*
X24790000Y10550000D02*
X24770000Y10550000D01*
X24770000Y10550000D02*
X23571000Y11749000D01*
X23571000Y11749000D02*
X23571000Y12020000D01*
D44*
%TO.N,/MCU/A4988_ENABLE*%
X24370000Y13420000D02*
X25330000Y13420000D01*
D47*
%TO.N,+3.3V*%
X18146403Y25597817D02*
X17660000Y25597817D01*
D44*
X21330000Y20020000D02*
X21260000Y19950000D01*
D47*
X18402031Y26270000D02*
X17881771Y26790260D01*
D44*
X14699790Y31651619D02*
X14711619Y31651619D01*
X8895000Y28705000D02*
X8893884Y28706116D01*
D47*
X18930000Y26270000D02*
X19821992Y27161992D01*
D44*
X18224293Y25675707D02*
X18818277Y25675707D01*
X18818277Y25675707D02*
X19621992Y24871992D01*
D47*
X15195000Y34485000D02*
X17810000Y37100000D01*
D44*
X21260000Y19950000D02*
X21260000Y19440000D01*
D47*
X20740000Y37120000D02*
X17830000Y37120000D01*
X27382276Y12550000D02*
X26920000Y12550000D01*
X23085000Y30290000D02*
X24740000Y30290000D01*
D44*
X16590000Y13220000D02*
X17260000Y13220000D01*
D47*
X13610000Y18603274D02*
X12956637Y19256637D01*
D44*
X19570000Y16340000D02*
X19480000Y16430000D01*
D47*
X18780000Y26270000D02*
X18402031Y26270000D01*
X18224293Y25675707D02*
X18146403Y25597817D01*
X17660000Y25597817D02*
X17174664Y26083153D01*
D44*
X12753363Y19173363D02*
X12672653Y19173363D01*
D47*
X15190000Y32460000D02*
X15190000Y33485000D01*
D44*
X21690000Y20020000D02*
X21330000Y20020000D01*
D47*
X15195000Y33490000D02*
X15195000Y34485000D01*
X27625309Y12103319D02*
X27625309Y12306967D01*
X13610000Y18580000D02*
X13610000Y18603274D01*
X19180000Y19470000D02*
X19210000Y19440000D01*
D44*
X19480000Y16430000D02*
X18330000Y16430000D01*
X19570000Y15920000D02*
X19570000Y16340000D01*
X18340000Y17230000D02*
X18340000Y16440000D01*
D47*
X27625309Y12306967D02*
X27382276Y12550000D01*
X14711619Y31651619D02*
X15100000Y32040000D01*
D44*
X8893884Y28706116D02*
X8690000Y28706116D01*
X18340000Y16440000D02*
X18330000Y16430000D01*
X18224293Y25675707D02*
X18105707Y25675707D01*
D47*
X19180000Y20310000D02*
X19180000Y19470000D01*
X9483915Y28116085D02*
X8895000Y28705000D01*
X18780000Y26270000D02*
X18930000Y26270000D01*
D44*
X17260000Y13220000D02*
X17280000Y13200000D01*
D47*
X13610000Y18580000D02*
X14000000Y18190000D01*
X14000000Y18190000D02*
X14670000Y18190000D01*
D44*
X14699790Y31651619D02*
X14701619Y31651619D01*
D47*
X15190000Y32130000D02*
X15190000Y32460000D01*
X8690000Y28706116D02*
X8158058Y29238058D01*
D44*
X15190000Y33485000D02*
X15195000Y33490000D01*
X9484878Y28116085D02*
X9483915Y28116085D01*
D47*
X15100000Y32040000D02*
X15190000Y32130000D01*
D44*
%TO.N,/MCU/A4988_MS1*%
X22970000Y16820000D02*
X22970000Y17842664D01*
X23633000Y19141996D02*
X23633000Y20838004D01*
X22970000Y17842664D02*
X23218332Y18090996D01*
X23218332Y18090996D02*
X23218332Y18558704D01*
X20941004Y23530000D02*
X17606497Y23530000D01*
X23224000Y18564372D02*
X23224000Y18732996D01*
X23633000Y20838004D02*
X20941004Y23530000D01*
X23218332Y18558704D02*
X23224000Y18564372D01*
X17606497Y23530000D02*
X16114004Y25022493D01*
X23224000Y18732996D02*
X23633000Y19141996D01*
%TO.N,/MCU/A4988_MS3*%
X15406897Y24315386D02*
X17162283Y22560000D01*
X22336332Y18456332D02*
X21970000Y18090000D01*
X21970000Y18090000D02*
X21970000Y16820000D01*
X17162283Y22560000D02*
X20663668Y22560000D01*
X22751000Y19507332D02*
X22342000Y19098332D01*
X22336332Y18924040D02*
X22336332Y18456332D01*
X22342000Y19098332D02*
X22342000Y18929708D01*
X22342000Y18929708D02*
X22336332Y18924040D01*
X20663668Y22560000D02*
X22751000Y20472668D01*
X22751000Y20472668D02*
X22751000Y19507332D01*
%TO.N,/MCU/A4988_RESET*%
X21895332Y19106708D02*
X21901000Y19112376D01*
X21260000Y18420000D02*
X21676332Y18420000D01*
X21901000Y19281000D02*
X22310000Y19690000D01*
X21260000Y17913668D02*
X21411000Y17762668D01*
X21895332Y18639000D02*
X21895332Y19106708D01*
X21260000Y18420000D02*
X21260000Y17913668D01*
X21411000Y17407850D02*
X21441000Y17377850D01*
X21676332Y18420000D02*
X21895332Y18639000D01*
X21441000Y16849000D02*
X21470000Y16820000D01*
X21441000Y17377850D02*
X21441000Y16849000D01*
X20530000Y22070000D02*
X16945177Y22070000D01*
X16945177Y22070000D02*
X15053344Y23961833D01*
X22310000Y20290000D02*
X20530000Y22070000D01*
X21411000Y17762668D02*
X21411000Y17407850D01*
X21901000Y19112376D02*
X21901000Y19281000D01*
X22310000Y19690000D02*
X22310000Y20290000D01*
%TO.N,/MCU/A4988_SLEEP*%
X20010000Y16820000D02*
X19210000Y17620000D01*
X18480000Y18640000D02*
X18700000Y18420000D01*
X18480000Y19828069D02*
X18480000Y18640000D01*
X19210000Y17620000D02*
X19210000Y18420000D01*
X18700000Y18420000D02*
X19210000Y18420000D01*
X20470000Y16820000D02*
X20010000Y16820000D01*
X14699790Y23608279D02*
X18480000Y19828069D01*
%TO.N,/MCU/A4988_STEP*%
X19570000Y15420000D02*
X18340000Y15420000D01*
X17870000Y15410000D02*
X18330000Y15410000D01*
X14346237Y23254726D02*
X17660000Y19940963D01*
X17660000Y19940963D02*
X17660000Y15620000D01*
X17660000Y15620000D02*
X17870000Y15410000D01*
X18340000Y15420000D02*
X18330000Y15410000D01*
%TO.N,/MCU/A4988_ENABLE*%
X25400000Y13420000D02*
X25900000Y12920000D01*
X25900000Y12920000D02*
X25900000Y12550000D01*
%TO.N,/MCU/A4988_DIR*%
X16749000Y13869000D02*
X14876558Y13869000D01*
X18500000Y13920000D02*
X18360000Y14060000D01*
X14876558Y13869000D02*
X14290000Y14455558D01*
X14290000Y14455558D02*
X14290000Y16295558D01*
X18300000Y13250000D02*
X18300000Y13720000D01*
X18360000Y14060000D02*
X17690000Y14060000D01*
X18300000Y13720000D02*
X18500000Y13920000D01*
X15591000Y17596558D02*
X15591000Y21037691D01*
X18500000Y13920000D02*
X19570000Y13920000D01*
X16950000Y14070000D02*
X16749000Y13869000D01*
X14290000Y16295558D02*
X15591000Y17596558D01*
X17680000Y14070000D02*
X16950000Y14070000D01*
X15591000Y21037691D02*
X13373965Y23254726D01*
X17690000Y14060000D02*
X17680000Y14070000D01*
%TO.N,/MCU/A4988_MS2*%
X22777332Y18273664D02*
X22470000Y17966332D01*
X22783000Y18747040D02*
X22777332Y18741372D01*
X15760450Y24668939D02*
X17399389Y23030000D01*
X22777332Y18741372D02*
X22777332Y18273664D01*
X23192000Y19324664D02*
X22783000Y18915664D01*
X22470000Y17966332D02*
X22470000Y16820000D01*
X22783000Y18915664D02*
X22783000Y18747040D01*
X17399389Y23030000D02*
X20817336Y23030000D01*
X20817336Y23030000D02*
X23192000Y20655336D01*
X23192000Y20655336D02*
X23192000Y19324664D01*
%TO.N,/MCU/SWCLK*%
X13650000Y32281207D02*
X13650000Y36180000D01*
X13373965Y32005172D02*
X13650000Y32281207D01*
X13650000Y36180000D02*
X12730000Y37100000D01*
%TO.N,/MCU/SWDIO*%
X14091000Y36081000D02*
X15110000Y37100000D01*
X15110000Y37100000D02*
X15270000Y37100000D01*
X14346237Y32005172D02*
X14091000Y32260409D01*
X14091000Y32260409D02*
X14091000Y36081000D01*
%TO.N,/MCU/NRST*%
X12420000Y22050000D02*
X12420000Y22735980D01*
X12530000Y21940000D02*
X12420000Y22050000D01*
X12998008Y21468008D02*
X13078718Y21468008D01*
X14123363Y20423363D02*
X14042653Y20423363D01*
X11207990Y23947990D02*
X11207990Y24624285D01*
X12420000Y22735980D02*
X11207990Y23947990D01*
X12530000Y21936016D02*
X12530000Y21940000D01*
X11207990Y24624285D02*
X11606198Y25022493D01*
X12998008Y21468008D02*
X12530000Y21936016D01*
X13078718Y21468008D02*
X14123363Y20423363D01*
%TO.N,/MCU/OSC_IN*%
X8549491Y23380000D02*
X8069328Y23380000D01*
X6278229Y25227164D02*
X6278229Y25171099D01*
X6278229Y25171099D02*
X7537379Y23911949D01*
X10899091Y25729600D02*
X8549491Y23380000D01*
X8069328Y23380000D02*
X7537379Y23911949D01*
%TO.N,/MCU/OSC_OUT*%
X10690000Y23960000D02*
X10295095Y23565095D01*
X11484245Y22233180D02*
X11484245Y22369245D01*
X11484245Y22369245D02*
X10295095Y23558395D01*
X11252645Y25376046D02*
X10690000Y24813401D01*
X10295095Y23565095D02*
X10295095Y23558395D01*
X10690000Y24813401D02*
X10690000Y23960000D01*
%TO.N,Net-(U5-CP1)*%
X26010000Y13835000D02*
X26640000Y13835000D01*
X25425000Y14420000D02*
X26010000Y13835000D01*
X24370000Y14420000D02*
X25425000Y14420000D01*
%TO.N,Net-(U5-CP2)*%
X25965000Y15395000D02*
X26000000Y15395000D01*
X24370000Y14920000D02*
X25490000Y14920000D01*
X26000000Y15395000D02*
X26010000Y15385000D01*
X26010000Y15385000D02*
X26640000Y15385000D01*
X25490000Y14920000D02*
X25965000Y15395000D01*
%TO.N,/Encoder/AS_PWM*%
X18457977Y29190000D02*
X17895025Y29190000D01*
X17895025Y29190000D02*
X17528217Y28823192D01*
X19520000Y29020000D02*
X19520000Y29070000D01*
X18627977Y29020000D02*
X18457977Y29190000D01*
X19520000Y29070000D02*
X19480000Y29110000D01*
X19520000Y29020000D02*
X18627977Y29020000D01*
%TO.N,Net-(U5-VREG)*%
X25346000Y17666000D02*
X24500000Y16820000D01*
X25975000Y17785000D02*
X25856000Y17666000D01*
X24500000Y16820000D02*
X23470000Y16820000D01*
X25856000Y17666000D02*
X25346000Y17666000D01*
X25975000Y18360000D02*
X25975000Y17785000D01*
%TO.N,Net-(J4-Pin_2)*%
X26020000Y27565000D02*
X26020000Y25245000D01*
X26020000Y25245000D02*
X26050000Y25215000D01*
%TO.N,Net-(U3-Rs)*%
X28020000Y32845000D02*
X28035000Y32830000D01*
X28020000Y34290000D02*
X28020000Y32845000D01*
%TO.N,/Encoder/SCL*%
X16846599Y30970000D02*
X16114004Y30237405D01*
X18135744Y30400253D02*
X18135744Y30420497D01*
X17586241Y30970000D02*
X16846599Y30970000D01*
X18135744Y30420497D02*
X17586241Y30970000D01*
%TO.N,/Encoder/SDA*%
X16930000Y30340000D02*
X16473852Y29883852D01*
X16473852Y29883852D02*
X16467557Y29883852D01*
X17338014Y30340000D02*
X16930000Y30340000D01*
%TO.N,/Encoder/AS_DIR*%
X18798028Y29720000D02*
X17717919Y29720000D01*
X18802116Y29724088D02*
X18798028Y29720000D01*
X17174664Y29176745D02*
X17176745Y29176745D01*
X17717919Y29720000D02*
X17174664Y29176745D01*
D49*
%TO.N,/CAN/CAN_N*%
X31665000Y29056802D02*
X30021802Y30700000D01*
X29907501Y30700000D02*
X29497501Y30290000D01*
X34360000Y23270000D02*
X31665000Y25965000D01*
X28035000Y30290000D02*
X27330000Y30290000D01*
X29497501Y30290000D02*
X28035000Y30290000D01*
X31665000Y25965000D02*
X31665000Y29056802D01*
X27330000Y30290000D02*
X25000000Y27960000D01*
X30021802Y30700000D02*
X29907501Y30700000D01*
X25000000Y27960000D02*
X25000000Y27565000D01*
%TO.N,/CAN/CAN_P*%
X29497501Y31560000D02*
X28035000Y31560000D01*
X34360000Y25770000D02*
X32496397Y25770000D01*
X29907501Y31150000D02*
X29497501Y31560000D01*
X32115000Y26151397D02*
X32115000Y29243198D01*
X30208198Y31150000D02*
X29907501Y31150000D01*
X32115000Y29243198D02*
X30208198Y31150000D01*
X32496397Y25770000D02*
X32115000Y26151397D01*
%TO.N,/CAN/CAN_OUT-*%
X15406897Y30944512D02*
X15802613Y31340228D01*
X15802613Y31340228D02*
X15802613Y31375584D01*
X20221802Y30700000D02*
X20730000Y30700000D01*
X15802613Y31375584D02*
X16090708Y31663678D01*
X22410000Y29020000D02*
X23085000Y29020000D01*
X20730000Y30700000D02*
X22410000Y29020000D01*
X19258124Y31663678D02*
X20221802Y30700000D01*
X15406897Y30944512D02*
X15406897Y30979866D01*
X16090708Y31663678D02*
X19258124Y31663678D01*
%TO.N,/CAN/CAN_OUT+*%
X15484416Y31693781D02*
X15904312Y32113678D01*
X20408198Y31150000D02*
X20730000Y31150000D01*
X15449060Y31693781D02*
X15484416Y31693781D01*
X15904312Y32113678D02*
X19444520Y32113678D01*
X22410000Y32830000D02*
X23085000Y32830000D01*
X19444520Y32113678D02*
X20408198Y31150000D01*
X20730000Y31150000D02*
X22410000Y32830000D01*
X15053344Y31298065D02*
X15088698Y31298065D01*
X15053344Y31298065D02*
X15449060Y31693781D01*
D44*
%TO.N,/StepperDriver/REF*%
X17851376Y14920000D02*
X17952376Y14819000D01*
X18707624Y14819000D02*
X18808624Y14920000D01*
X15670000Y14940000D02*
X15690000Y14920000D01*
X18808624Y14920000D02*
X19570000Y14920000D01*
X15690000Y14920000D02*
X17851376Y14920000D01*
X17952376Y14819000D02*
X18707624Y14819000D01*
%TO.N,Net-(U5-ROSC)*%
X20240000Y18310000D02*
X20970000Y17580000D01*
X20240000Y18410000D02*
X20240000Y18310000D01*
X20970000Y16820000D02*
X20970000Y17580000D01*
%TO.N,/MCU/BOOT*%
X10191985Y28846867D02*
X9329426Y29709426D01*
X10191985Y28823192D02*
X10191985Y28846867D01*
D50*
%TO.N,VCC*%
X28240000Y12620000D02*
X30950000Y12620000D01*
X27515000Y13345000D02*
X27515000Y16870000D01*
D51*
X30920000Y12590000D02*
X30950000Y12620000D01*
X30920000Y10550000D02*
X30920000Y12590000D01*
D50*
X27515000Y13345000D02*
X28240000Y12620000D01*
D44*
%TO.N,/StepperDriver/VCP*%
X25204000Y15725150D02*
X25204000Y16664000D01*
X25204000Y16664000D02*
X25410000Y16870000D01*
X24370000Y15420000D02*
X24898850Y15420000D01*
X25410000Y16870000D02*
X25965000Y16870000D01*
X24898850Y15420000D02*
X25204000Y15725150D01*
%TO.N,/StepperDriver/SENSE2*%
X22980000Y12010000D02*
X22970000Y12020000D01*
%TO.N,/StepperDriver/SENSE1*%
X20970000Y10850000D02*
X20970000Y12020000D01*
X20310000Y10190000D02*
X20970000Y10850000D01*
X20310000Y9550000D02*
X20310000Y10190000D01*
D45*
%TO.N,/StepperDriver/OUT1A*%
X16330000Y6320000D02*
X16330000Y5632500D01*
%TD*%
%TA.AperFunction,Conductor*%
%TO.N,GND*%
G36*
X21836558Y14537596D02*
G01*
X21880905Y14509095D01*
X21970000Y14420000D01*
X22059094Y14509094D01*
X22120417Y14542579D01*
X22190109Y14537595D01*
X22234456Y14509094D01*
X23683181Y13060369D01*
X23697884Y13033441D01*
X23714477Y13007623D01*
X23715368Y13001422D01*
X23716666Y12999046D01*
X23719500Y12972688D01*
X23719500Y12794499D01*
X23699815Y12727460D01*
X23647011Y12681705D01*
X23595504Y12670499D01*
X23417307Y12670499D01*
X23350270Y12690184D01*
X23329628Y12706818D01*
X21970001Y14066448D01*
X21970000Y14066448D01*
X20610370Y12706818D01*
X20583442Y12692114D01*
X20557624Y12675522D01*
X20551423Y12674630D01*
X20549047Y12673333D01*
X20522695Y12670499D01*
X20344499Y12670499D01*
X20277461Y12690184D01*
X20231706Y12742988D01*
X20220500Y12794498D01*
X20220500Y12871976D01*
X20220499Y12972689D01*
X20240183Y13039728D01*
X20256818Y13060370D01*
X21705543Y14509095D01*
X21766866Y14542580D01*
X21836558Y14537596D01*
G37*
%TD.AperFunction*%
%TA.AperFunction,Conductor*%
G36*
X16116703Y21030558D02*
G01*
X16123181Y21024526D01*
X17303181Y19844526D01*
X17336666Y19783203D01*
X17339500Y19756845D01*
X17339500Y19395952D01*
X17319815Y19328913D01*
X17267011Y19283158D01*
X17197853Y19273214D01*
X17176492Y19278248D01*
X17172701Y19279504D01*
X17172690Y19279506D01*
X17069980Y19289999D01*
X16920000Y19289999D01*
X16920000Y17090000D01*
X17069972Y17090000D01*
X17069987Y17090001D01*
X17172699Y17100494D01*
X17176505Y17101755D01*
X17178988Y17101840D01*
X17179319Y17101911D01*
X17179331Y17101851D01*
X17246334Y17104151D01*
X17306373Y17068415D01*
X17337560Y17005892D01*
X17339500Y16984046D01*
X17339500Y15577803D01*
X17361341Y15496290D01*
X17401635Y15426501D01*
X17418108Y15358601D01*
X17395256Y15292574D01*
X17340335Y15249383D01*
X17294248Y15240500D01*
X16794500Y15240500D01*
X16727461Y15260185D01*
X16681706Y15312989D01*
X16670500Y15364500D01*
X16670500Y15494269D01*
X16667646Y15524699D01*
X16667646Y15524701D01*
X16640793Y15601441D01*
X16622793Y15652882D01*
X16542150Y15762150D01*
X16432882Y15842793D01*
X16343503Y15874068D01*
X16304700Y15887646D01*
X16274270Y15890500D01*
X16274266Y15890500D01*
X15065734Y15890500D01*
X15065730Y15890500D01*
X15035300Y15887646D01*
X15035298Y15887646D01*
X14939163Y15854006D01*
X14907118Y15842793D01*
X14808131Y15769738D01*
X14795873Y15765260D01*
X14786011Y15756715D01*
X14763688Y15753505D01*
X14742505Y15745768D01*
X14729772Y15748628D01*
X14716853Y15746771D01*
X14696338Y15756139D01*
X14674335Y15761083D01*
X14665169Y15770374D01*
X14653297Y15775796D01*
X14641104Y15794767D01*
X14625266Y15810823D01*
X14621713Y15824940D01*
X14615523Y15834574D01*
X14610500Y15869509D01*
X14610500Y16111441D01*
X14630185Y16178480D01*
X14646819Y16199122D01*
X15686355Y17238658D01*
X15747678Y17272143D01*
X15817370Y17267159D01*
X15845432Y17251351D01*
X15845509Y17251475D01*
X15848632Y17249548D01*
X15850941Y17248248D01*
X15851651Y17247686D01*
X16000875Y17155643D01*
X16000880Y17155641D01*
X16167302Y17100494D01*
X16167309Y17100493D01*
X16270013Y17090000D01*
X16420000Y17090000D01*
X16420000Y19289999D01*
X16270028Y19289999D01*
X16270013Y19289998D01*
X16167302Y19279505D01*
X16074504Y19248755D01*
X16004676Y19246353D01*
X15944634Y19282085D01*
X15913441Y19344605D01*
X15911500Y19366461D01*
X15911500Y20936845D01*
X15931185Y21003884D01*
X15983989Y21049639D01*
X16053147Y21059583D01*
X16116703Y21030558D01*
G37*
%TD.AperFunction*%
%TA.AperFunction,Conductor*%
G36*
X20412922Y21729815D02*
G01*
X20433564Y21713181D01*
X21486225Y20660519D01*
X21494770Y20644868D01*
X21507380Y20632258D01*
X21511168Y20614838D01*
X21519710Y20599196D01*
X21518438Y20581411D01*
X21522228Y20563985D01*
X21515997Y20547283D01*
X21514726Y20529504D01*
X21504039Y20515228D01*
X21497807Y20498522D01*
X21472849Y20473566D01*
X21466946Y20469147D01*
X21382686Y20420500D01*
X21325347Y20363161D01*
X21318250Y20357849D01*
X21276040Y20337347D01*
X21206291Y20318659D01*
X21133208Y20276464D01*
X21073536Y20216792D01*
X21073534Y20216789D01*
X21063210Y20206465D01*
X21063208Y20206464D01*
X21003536Y20146792D01*
X20980505Y20106903D01*
X20973344Y20098434D01*
X20953064Y20085053D01*
X20935478Y20068285D01*
X20924422Y20066154D01*
X20915025Y20059954D01*
X20890728Y20059661D01*
X20866870Y20055064D01*
X20854098Y20059220D01*
X20845160Y20059113D01*
X20835116Y20065398D01*
X20815538Y20071770D01*
X20679188Y20152408D01*
X20525128Y20197166D01*
X20525122Y20197167D01*
X20490000Y20199930D01*
X20490000Y19554000D01*
X20470315Y19486961D01*
X20417511Y19441206D01*
X20366000Y19430000D01*
X20114000Y19430000D01*
X20046961Y19449685D01*
X20001206Y19502489D01*
X19990000Y19554000D01*
X19990000Y20199931D01*
X19954877Y20197167D01*
X19954871Y20197166D01*
X19839095Y20163530D01*
X19769225Y20163729D01*
X19710555Y20201671D01*
X19681712Y20265310D01*
X19680500Y20282606D01*
X19680500Y20375890D01*
X19680500Y20375892D01*
X19646392Y20503186D01*
X19580500Y20617314D01*
X19487314Y20710500D01*
X19373186Y20776392D01*
X19245892Y20810500D01*
X19114108Y20810500D01*
X18986814Y20776392D01*
X18872686Y20710500D01*
X18779500Y20617314D01*
X18748710Y20563985D01*
X18713608Y20503187D01*
X18679500Y20375891D01*
X18678439Y20367832D01*
X18675685Y20368194D01*
X18659815Y20314147D01*
X18607011Y20268392D01*
X18537853Y20258448D01*
X18474297Y20287473D01*
X18467819Y20293505D01*
X17223506Y21537819D01*
X17190021Y21599142D01*
X17195005Y21668834D01*
X17236877Y21724767D01*
X17302341Y21749184D01*
X17311187Y21749500D01*
X20345883Y21749500D01*
X20412922Y21729815D01*
G37*
%TD.AperFunction*%
%TA.AperFunction,Conductor*%
G36*
X13877068Y31531744D02*
G01*
X13903435Y31529859D01*
X13912485Y31524042D01*
X13919520Y31522513D01*
X13947776Y31501364D01*
X13957607Y31491533D01*
X13957615Y31491527D01*
X14022647Y31448073D01*
X14022650Y31448072D01*
X14041516Y31444319D01*
X14103426Y31411932D01*
X14137998Y31351215D01*
X14138937Y31346899D01*
X14142690Y31328033D01*
X14142690Y31328032D01*
X14186147Y31262993D01*
X14311166Y31137975D01*
X14376202Y31094519D01*
X14376201Y31094519D01*
X14395070Y31090766D01*
X14456979Y31058378D01*
X14491551Y30997661D01*
X14492491Y30993345D01*
X14496244Y30974479D01*
X14496244Y30974478D01*
X14539701Y30909439D01*
X14664720Y30784421D01*
X14729754Y30740966D01*
X14729757Y30740965D01*
X14748623Y30737212D01*
X14810533Y30704825D01*
X14845105Y30644108D01*
X14846044Y30639792D01*
X14849797Y30620926D01*
X14849797Y30620925D01*
X14893254Y30555886D01*
X15018273Y30430868D01*
X15083307Y30387413D01*
X15083310Y30387412D01*
X15102176Y30383659D01*
X15164086Y30351272D01*
X15198658Y30290555D01*
X15199597Y30286239D01*
X15203350Y30267373D01*
X15203350Y30267372D01*
X15246807Y30202333D01*
X15371826Y30077315D01*
X15436862Y30033859D01*
X15436861Y30033859D01*
X15455730Y30030106D01*
X15517639Y29997718D01*
X15552211Y29937001D01*
X15553151Y29932685D01*
X15556904Y29913819D01*
X15556904Y29913818D01*
X15600361Y29848779D01*
X15725380Y29723761D01*
X15790414Y29680306D01*
X15790417Y29680305D01*
X15809283Y29676552D01*
X15871193Y29644165D01*
X15905765Y29583448D01*
X15906704Y29579132D01*
X15910457Y29560266D01*
X15910457Y29560265D01*
X15953914Y29495226D01*
X16078933Y29370208D01*
X16143969Y29326752D01*
X16143968Y29326752D01*
X16162837Y29322999D01*
X16224746Y29290611D01*
X16259318Y29229894D01*
X16260258Y29225578D01*
X16264011Y29206712D01*
X16264011Y29206711D01*
X16307468Y29141672D01*
X16432487Y29016654D01*
X16497521Y28973199D01*
X16497524Y28973198D01*
X16516390Y28969445D01*
X16578300Y28937058D01*
X16612872Y28876341D01*
X16613811Y28872025D01*
X16617564Y28853159D01*
X16617564Y28853158D01*
X16661021Y28788119D01*
X16786040Y28663101D01*
X16851074Y28619646D01*
X16851077Y28619645D01*
X16869943Y28615892D01*
X16931853Y28583505D01*
X16966425Y28522788D01*
X16967364Y28518472D01*
X16971117Y28499606D01*
X16971117Y28499605D01*
X17014574Y28434566D01*
X17139593Y28309548D01*
X17204629Y28266092D01*
X17204628Y28266092D01*
X17223497Y28262339D01*
X17285406Y28229951D01*
X17319978Y28169234D01*
X17320918Y28164918D01*
X17324671Y28146052D01*
X17324671Y28146051D01*
X17368128Y28081012D01*
X17493147Y27955994D01*
X17558181Y27912539D01*
X17558184Y27912538D01*
X17577050Y27908785D01*
X17638960Y27876398D01*
X17660181Y27849273D01*
X17670467Y27831496D01*
X17678225Y27792497D01*
X17721681Y27727460D01*
X17743008Y27706132D01*
X17751156Y27692052D01*
X17755731Y27673269D01*
X17764996Y27656302D01*
X17763831Y27640023D01*
X17767694Y27624168D01*
X17761388Y27605893D01*
X17760009Y27586610D01*
X17748624Y27568895D01*
X17744906Y27558119D01*
X17738406Y27552997D01*
X17731510Y27542267D01*
X17721684Y27532441D01*
X17721681Y27532437D01*
X17678224Y27467400D01*
X17678223Y27467399D01*
X17674472Y27448537D01*
X17642087Y27386626D01*
X17581372Y27352052D01*
X17577079Y27351117D01*
X17558183Y27347359D01*
X17558181Y27347358D01*
X17493147Y27303904D01*
X17368127Y27178883D01*
X17324671Y27113847D01*
X17320918Y27094980D01*
X17288531Y27033070D01*
X17227815Y26998497D01*
X17223523Y26997563D01*
X17204629Y26993805D01*
X17204627Y26993804D01*
X17139593Y26950350D01*
X17014573Y26825329D01*
X16971117Y26760293D01*
X16971116Y26760292D01*
X16967365Y26741430D01*
X16934980Y26679519D01*
X16874265Y26644945D01*
X16869972Y26644010D01*
X16851076Y26640252D01*
X16851074Y26640251D01*
X16786040Y26596797D01*
X16661020Y26471776D01*
X16617564Y26406740D01*
X16617563Y26406739D01*
X16613812Y26387877D01*
X16581427Y26325966D01*
X16520712Y26291392D01*
X16516419Y26290457D01*
X16497523Y26286699D01*
X16497521Y26286698D01*
X16432487Y26243244D01*
X16307467Y26118223D01*
X16264011Y26053187D01*
X16260258Y26034320D01*
X16227871Y25972410D01*
X16167155Y25937837D01*
X16162863Y25936903D01*
X16143969Y25933145D01*
X16143967Y25933144D01*
X16078933Y25889690D01*
X15953913Y25764669D01*
X15910457Y25699633D01*
X15910456Y25699632D01*
X15906705Y25680770D01*
X15874320Y25618859D01*
X15813605Y25584285D01*
X15809312Y25583350D01*
X15790416Y25579592D01*
X15790414Y25579591D01*
X15725380Y25536137D01*
X15600360Y25411116D01*
X15556904Y25346080D01*
X15553151Y25327213D01*
X15520764Y25265303D01*
X15460048Y25230730D01*
X15455756Y25229796D01*
X15436862Y25226038D01*
X15436860Y25226037D01*
X15371826Y25182583D01*
X15246806Y25057562D01*
X15203350Y24992526D01*
X15203349Y24992525D01*
X15199598Y24973663D01*
X15167213Y24911752D01*
X15106498Y24877178D01*
X15102205Y24876243D01*
X15083309Y24872485D01*
X15083307Y24872484D01*
X15018273Y24829030D01*
X14893253Y24704009D01*
X14849797Y24638973D01*
X14849796Y24638972D01*
X14846045Y24620110D01*
X14813660Y24558199D01*
X14752945Y24523625D01*
X14748652Y24522690D01*
X14729756Y24518932D01*
X14729754Y24518931D01*
X14664720Y24475477D01*
X14539700Y24350456D01*
X14496244Y24285420D01*
X14492491Y24266553D01*
X14460104Y24204643D01*
X14399388Y24170070D01*
X14395096Y24169136D01*
X14376202Y24165378D01*
X14376200Y24165377D01*
X14311166Y24121923D01*
X14186146Y23996902D01*
X14142690Y23931866D01*
X14142689Y23931865D01*
X14138938Y23913003D01*
X14106553Y23851092D01*
X14079425Y23829867D01*
X14061652Y23819583D01*
X14022649Y23811825D01*
X13957612Y23768369D01*
X13936282Y23747039D01*
X13922204Y23738893D01*
X13903422Y23734317D01*
X13886458Y23725054D01*
X13870177Y23726218D01*
X13854319Y23722355D01*
X13836047Y23728659D01*
X13816766Y23730038D01*
X13799051Y23741423D01*
X13788270Y23745143D01*
X13783146Y23751645D01*
X13772416Y23758542D01*
X13762595Y23768363D01*
X13762590Y23768368D01*
X13697553Y23811825D01*
X13678690Y23815577D01*
X13616780Y23847959D01*
X13582204Y23908674D01*
X13581263Y23913003D01*
X13577511Y23931867D01*
X13534055Y23996904D01*
X13409037Y24121921D01*
X13344000Y24165378D01*
X13325137Y24169129D01*
X13263227Y24201512D01*
X13228650Y24262226D01*
X13227710Y24266553D01*
X13223957Y24285421D01*
X13180501Y24350458D01*
X13055483Y24475475D01*
X12990446Y24518932D01*
X12971583Y24522684D01*
X12909673Y24555066D01*
X12875097Y24615781D01*
X12874156Y24620110D01*
X12870404Y24638974D01*
X12826948Y24704011D01*
X12701930Y24829028D01*
X12636893Y24872485D01*
X12618030Y24876237D01*
X12556120Y24908619D01*
X12521544Y24969334D01*
X12520603Y24973663D01*
X12516851Y24992527D01*
X12473395Y25057564D01*
X12348377Y25182581D01*
X12283340Y25226038D01*
X12264477Y25229789D01*
X12202567Y25262172D01*
X12167990Y25322886D01*
X12167050Y25327213D01*
X12163297Y25346081D01*
X12119841Y25411118D01*
X11994823Y25536135D01*
X11929786Y25579592D01*
X11910923Y25583344D01*
X11849013Y25615726D01*
X11814437Y25676441D01*
X11813496Y25680770D01*
X11809744Y25699634D01*
X11766288Y25764671D01*
X11641270Y25889688D01*
X11576233Y25933145D01*
X11557370Y25936896D01*
X11495460Y25969279D01*
X11460883Y26029993D01*
X11459943Y26034320D01*
X11456190Y26053188D01*
X11412734Y26118225D01*
X11287716Y26243242D01*
X11222679Y26286699D01*
X11203816Y26290451D01*
X11141906Y26322833D01*
X11107330Y26383548D01*
X11106389Y26387877D01*
X11102637Y26406741D01*
X11059181Y26471778D01*
X10934163Y26596795D01*
X10869126Y26640252D01*
X10850263Y26644004D01*
X10788353Y26676386D01*
X10753777Y26737101D01*
X10752836Y26741430D01*
X10749084Y26760294D01*
X10705628Y26825331D01*
X10580610Y26950348D01*
X10515573Y26993805D01*
X10496710Y26997556D01*
X10434800Y27029939D01*
X10400223Y27090653D01*
X10399283Y27094980D01*
X10395530Y27113848D01*
X10352074Y27178885D01*
X10227056Y27303902D01*
X10162019Y27347359D01*
X10143156Y27351111D01*
X10081246Y27383493D01*
X10060019Y27410624D01*
X10049735Y27428395D01*
X10041977Y27467401D01*
X9998521Y27532438D01*
X9977190Y27553768D01*
X9969045Y27567845D01*
X9964469Y27586626D01*
X9955206Y27603591D01*
X9956370Y27619871D01*
X9952507Y27635730D01*
X9958811Y27654001D01*
X9960190Y27673283D01*
X9971575Y27690998D01*
X9975295Y27701779D01*
X9981795Y27706901D01*
X9988691Y27717630D01*
X9998517Y27727456D01*
X9998520Y27727460D01*
X10020874Y27760915D01*
X10041977Y27792497D01*
X10045728Y27811358D01*
X10078111Y27873269D01*
X10138826Y27907845D01*
X10143155Y27908786D01*
X10162014Y27912537D01*
X10162017Y27912538D01*
X10162018Y27912538D01*
X10162019Y27912539D01*
X10227056Y27955995D01*
X10352073Y28081013D01*
X10355071Y28085500D01*
X10395529Y28146048D01*
X10395530Y28146050D01*
X10399282Y28164912D01*
X10431665Y28226822D01*
X10492380Y28261398D01*
X10496705Y28262339D01*
X10515569Y28266091D01*
X10515571Y28266092D01*
X10515572Y28266092D01*
X10515573Y28266093D01*
X10580610Y28309549D01*
X10705627Y28434567D01*
X10709036Y28439668D01*
X10745330Y28493986D01*
X10749084Y28499604D01*
X10752835Y28518465D01*
X10785218Y28580376D01*
X10845933Y28614952D01*
X10850262Y28615893D01*
X10869121Y28619644D01*
X10869124Y28619645D01*
X10869125Y28619645D01*
X10869126Y28619646D01*
X10934163Y28663102D01*
X11059180Y28788120D01*
X11102637Y28853157D01*
X11106388Y28872018D01*
X11138771Y28933929D01*
X11199486Y28968505D01*
X11203815Y28969446D01*
X11222674Y28973197D01*
X11222677Y28973198D01*
X11222678Y28973198D01*
X11222679Y28973199D01*
X11287716Y29016655D01*
X11412733Y29141673D01*
X11412734Y29141674D01*
X11456189Y29206708D01*
X11456190Y29206710D01*
X11459942Y29225572D01*
X11492325Y29287482D01*
X11553040Y29322058D01*
X11557365Y29322999D01*
X11576229Y29326751D01*
X11576231Y29326752D01*
X11576232Y29326752D01*
X11576233Y29326753D01*
X11641270Y29370209D01*
X11766287Y29495227D01*
X11771035Y29502332D01*
X11793792Y29536390D01*
X11809744Y29560264D01*
X11813495Y29579125D01*
X11845878Y29641036D01*
X11906593Y29675612D01*
X11910922Y29676553D01*
X11929781Y29680304D01*
X11929784Y29680305D01*
X11929785Y29680305D01*
X11929786Y29680306D01*
X11994823Y29723762D01*
X12119840Y29848780D01*
X12123252Y29853886D01*
X12163296Y29913815D01*
X12163297Y29913817D01*
X12167049Y29932679D01*
X12199432Y29994589D01*
X12260147Y30029165D01*
X12264472Y30030106D01*
X12283336Y30033858D01*
X12283338Y30033859D01*
X12283339Y30033859D01*
X12283340Y30033860D01*
X12348377Y30077316D01*
X12473394Y30202334D01*
X12487945Y30224110D01*
X12501549Y30244471D01*
X12516851Y30267371D01*
X12520602Y30286232D01*
X12552985Y30348143D01*
X12613700Y30382719D01*
X12618029Y30383660D01*
X12636888Y30387411D01*
X12636891Y30387412D01*
X12636892Y30387412D01*
X12636893Y30387413D01*
X12701930Y30430869D01*
X12826947Y30555887D01*
X12831983Y30563423D01*
X12870403Y30620923D01*
X12870404Y30620924D01*
X12874155Y30639785D01*
X12906538Y30701696D01*
X12967253Y30736272D01*
X12971582Y30737213D01*
X12990441Y30740964D01*
X12990444Y30740965D01*
X12990445Y30740965D01*
X12990446Y30740966D01*
X13055483Y30784422D01*
X13180500Y30909440D01*
X13183912Y30914546D01*
X13223956Y30974475D01*
X13223957Y30974477D01*
X13227709Y30993339D01*
X13260092Y31055249D01*
X13320807Y31089825D01*
X13325132Y31090766D01*
X13343996Y31094518D01*
X13343998Y31094519D01*
X13343999Y31094519D01*
X13344000Y31094520D01*
X13409037Y31137976D01*
X13534054Y31262994D01*
X13537465Y31268098D01*
X13564533Y31308608D01*
X13577511Y31328031D01*
X13581262Y31346892D01*
X13613645Y31408803D01*
X13674360Y31443379D01*
X13678689Y31444320D01*
X13697548Y31448071D01*
X13697551Y31448072D01*
X13697552Y31448072D01*
X13697553Y31448073D01*
X13755541Y31486819D01*
X13762592Y31491530D01*
X13772420Y31501358D01*
X13780361Y31505694D01*
X13785784Y31512939D01*
X13810547Y31522176D01*
X13833743Y31534843D01*
X13842768Y31534197D01*
X13851246Y31537360D01*
X13877068Y31531744D01*
G37*
%TD.AperFunction*%
%TA.AperFunction,Conductor*%
G36*
X35502855Y39499368D02*
G01*
X35863303Y39482703D01*
X35874707Y39481646D01*
X36229231Y39432192D01*
X36240490Y39430087D01*
X36588931Y39348135D01*
X36599947Y39345001D01*
X36939355Y39231243D01*
X36950035Y39227105D01*
X37277482Y39082523D01*
X37287735Y39077418D01*
X37600452Y38903234D01*
X37610190Y38897205D01*
X37905512Y38694906D01*
X37914652Y38688003D01*
X38190035Y38459328D01*
X38198499Y38451612D01*
X38451612Y38198499D01*
X38459328Y38190035D01*
X38688003Y37914652D01*
X38694906Y37905512D01*
X38897205Y37610190D01*
X38903234Y37600452D01*
X39077418Y37287735D01*
X39082523Y37277482D01*
X39227105Y36950035D01*
X39231243Y36939355D01*
X39345001Y36599947D01*
X39348135Y36588931D01*
X39430087Y36240490D01*
X39432192Y36229231D01*
X39481646Y35874707D01*
X39482703Y35863303D01*
X39499368Y35502855D01*
X39499500Y35497128D01*
X39499500Y4502871D01*
X39499368Y4497144D01*
X39482703Y4136696D01*
X39481646Y4125292D01*
X39432192Y3770768D01*
X39430087Y3759509D01*
X39348135Y3411068D01*
X39345001Y3400052D01*
X39231243Y3060644D01*
X39227105Y3049965D01*
X39186527Y2958064D01*
X39082523Y2722517D01*
X39077418Y2712264D01*
X38903234Y2399547D01*
X38897205Y2389809D01*
X38694906Y2094487D01*
X38688003Y2085347D01*
X38459328Y1809964D01*
X38451612Y1801500D01*
X38198499Y1548387D01*
X38190035Y1540671D01*
X37914652Y1311996D01*
X37905512Y1305093D01*
X37610190Y1102794D01*
X37600452Y1096765D01*
X37287735Y922581D01*
X37277488Y917479D01*
X36950022Y772889D01*
X36939368Y768761D01*
X36599934Y654994D01*
X36588944Y651867D01*
X36240482Y569910D01*
X36229238Y567808D01*
X35874700Y518352D01*
X35863310Y517296D01*
X35509174Y500924D01*
X35502855Y500632D01*
X35497128Y500500D01*
X4502872Y500500D01*
X4497145Y500632D01*
X4491523Y500891D01*
X4136687Y517296D01*
X4125301Y518352D01*
X3770757Y567809D01*
X3759520Y569909D01*
X3411049Y651869D01*
X3400070Y654992D01*
X3060623Y768763D01*
X3049984Y772886D01*
X2722503Y917482D01*
X2712277Y922574D01*
X2399541Y1096768D01*
X2389814Y1102790D01*
X2094472Y1305103D01*
X2085360Y1311985D01*
X1809951Y1540682D01*
X1801511Y1548376D01*
X1548376Y1801511D01*
X1540682Y1809951D01*
X1311985Y2085360D01*
X1305103Y2094472D01*
X1102790Y2389814D01*
X1096765Y2399547D01*
X957541Y2649500D01*
X922574Y2712277D01*
X917482Y2722503D01*
X772886Y3049984D01*
X768763Y3060623D01*
X654992Y3400070D01*
X651869Y3411049D01*
X569909Y3759520D01*
X567809Y3770757D01*
X518352Y4125301D01*
X517296Y4136696D01*
X500632Y4497144D01*
X500500Y4502871D01*
X500500Y4621288D01*
X2649500Y4621288D01*
X2649500Y4378711D01*
X2681161Y4138214D01*
X2743947Y3903895D01*
X2836773Y3679794D01*
X2836777Y3679785D01*
X2958067Y3469706D01*
X3105733Y3277263D01*
X3105739Y3277256D01*
X3277256Y3105739D01*
X3277263Y3105733D01*
X3469706Y2958067D01*
X3679785Y2836777D01*
X3679794Y2836773D01*
X3903895Y2743947D01*
X4138214Y2681161D01*
X4378711Y2649500D01*
X4378712Y2649500D01*
X4621289Y2649500D01*
X4861785Y2681161D01*
X5096104Y2743947D01*
X5320205Y2836773D01*
X5320214Y2836777D01*
X5358661Y2858974D01*
X5530289Y2958064D01*
X5656898Y3055214D01*
X5722736Y3105733D01*
X5722743Y3105739D01*
X5894260Y3277256D01*
X5894266Y3277263D01*
X6041932Y3469706D01*
X6041936Y3469711D01*
X6163224Y3679788D01*
X6256054Y3903900D01*
X6318838Y4138211D01*
X6350500Y4378712D01*
X6350500Y4621288D01*
X6318838Y4861789D01*
X6256054Y5096100D01*
X6163224Y5320212D01*
X6041936Y5530289D01*
X5894265Y5722738D01*
X5722738Y5894265D01*
X5530289Y6041936D01*
X5320212Y6163224D01*
X5096100Y6256054D01*
X4861789Y6318838D01*
X4657179Y6345775D01*
X4621289Y6350500D01*
X4621288Y6350500D01*
X4378712Y6350500D01*
X4378711Y6350500D01*
X4342821Y6345775D01*
X4138211Y6318838D01*
X3903900Y6256054D01*
X3679788Y6163224D01*
X3469711Y6041936D01*
X3469706Y6041932D01*
X3277263Y5894266D01*
X3277256Y5894260D01*
X3105739Y5722743D01*
X3105735Y5722738D01*
X2958064Y5530289D01*
X2858974Y5358661D01*
X2836777Y5320214D01*
X2836773Y5320205D01*
X2743947Y5096104D01*
X2681161Y4861785D01*
X2649500Y4621288D01*
X500500Y4621288D01*
X500500Y12354269D01*
X4484500Y12354269D01*
X4484500Y11045730D01*
X4487353Y11015300D01*
X4487353Y11015298D01*
X4532206Y10887119D01*
X4532207Y10887117D01*
X4612850Y10777850D01*
X4722117Y10697207D01*
X4722119Y10697206D01*
X4850299Y10652353D01*
X4880730Y10649500D01*
X4880734Y10649500D01*
X6439270Y10649500D01*
X6469699Y10652353D01*
X6469701Y10652353D01*
X6597880Y10697206D01*
X6597882Y10697207D01*
X6603353Y10701245D01*
X6707150Y10777850D01*
X6787793Y10887118D01*
X6799006Y10919163D01*
X6832646Y11015298D01*
X6832646Y11015300D01*
X6835500Y11045730D01*
X6835500Y12354269D01*
X6832646Y12384699D01*
X6832646Y12384701D01*
X6804867Y12464087D01*
X6787793Y12512882D01*
X6707150Y12622150D01*
X6597882Y12702793D01*
X6503167Y12735935D01*
X6469700Y12747646D01*
X6439270Y12750500D01*
X6439266Y12750500D01*
X4880734Y12750500D01*
X4880730Y12750500D01*
X4850300Y12747646D01*
X4850298Y12747646D01*
X4769864Y12719500D01*
X4722118Y12702793D01*
X4612850Y12622150D01*
X4549451Y12536247D01*
X4532207Y12512882D01*
X4532206Y12512880D01*
X4487353Y12384701D01*
X4487353Y12384699D01*
X4484500Y12354269D01*
X500500Y12354269D01*
X500500Y14303469D01*
X4484500Y14303469D01*
X4484500Y14096530D01*
X4524868Y13893587D01*
X4524870Y13893579D01*
X4604058Y13702403D01*
X4719024Y13530342D01*
X4865342Y13384024D01*
X5037403Y13269058D01*
X5228579Y13189870D01*
X5228587Y13189868D01*
X5431530Y13149500D01*
X5431535Y13149500D01*
X5888469Y13149500D01*
X6091412Y13189868D01*
X6091420Y13189870D01*
X6282596Y13269058D01*
X6282598Y13269059D01*
X6413883Y13356780D01*
X6454657Y13384024D01*
X6600975Y13530342D01*
X6629339Y13572792D01*
X6715941Y13702402D01*
X6795130Y13893580D01*
X6835500Y14096535D01*
X6835500Y14303465D01*
X6795130Y14506420D01*
X6715941Y14697598D01*
X6600977Y14869655D01*
X6454655Y15015977D01*
X6282598Y15130941D01*
X6091420Y15210130D01*
X5888467Y15250499D01*
X5888466Y15250500D01*
X5888465Y15250500D01*
X5431535Y15250500D01*
X5431534Y15250500D01*
X5431530Y15250499D01*
X5228580Y15210130D01*
X5037402Y15130941D01*
X4915039Y15049181D01*
X4865342Y15015975D01*
X4719024Y14869657D01*
X4666347Y14790819D01*
X4613267Y14711378D01*
X4604058Y14697596D01*
X4524870Y14506420D01*
X4524868Y14506412D01*
X4484500Y14303469D01*
X500500Y14303469D01*
X500500Y19450000D01*
X4207769Y19450000D01*
X5255854Y19450000D01*
X5217370Y19383343D01*
X5185000Y19262535D01*
X5185000Y19137465D01*
X5217370Y19016657D01*
X5255854Y18950000D01*
X4207769Y18950000D01*
X4218242Y18883873D01*
X4218242Y18883870D01*
X4283904Y18681782D01*
X4380379Y18492442D01*
X4505272Y18320540D01*
X4505276Y18320535D01*
X4655535Y18170276D01*
X4655540Y18170272D01*
X4827442Y18045379D01*
X5016781Y17948905D01*
X5138856Y17909240D01*
X5196531Y17869802D01*
X5223729Y17805443D01*
X5211814Y17736597D01*
X5164570Y17685121D01*
X5147993Y17676749D01*
X5037402Y17630941D01*
X4916176Y17549941D01*
X4865342Y17515975D01*
X4719024Y17369657D01*
X4688894Y17324563D01*
X4634533Y17243205D01*
X4604058Y17197596D01*
X4524870Y17006420D01*
X4524868Y17006412D01*
X4484500Y16803469D01*
X4484500Y16596530D01*
X4524868Y16393587D01*
X4524870Y16393579D01*
X4604058Y16202403D01*
X4719024Y16030342D01*
X4865342Y15884024D01*
X5037403Y15769058D01*
X5228579Y15689870D01*
X5228587Y15689868D01*
X5431530Y15649500D01*
X5431535Y15649500D01*
X5888469Y15649500D01*
X6091412Y15689868D01*
X6091420Y15689870D01*
X6282596Y15769058D01*
X6282598Y15769059D01*
X6423521Y15863220D01*
X6454657Y15884024D01*
X6600975Y16030342D01*
X6642481Y16092461D01*
X6715941Y16202402D01*
X6795130Y16393580D01*
X6835500Y16596535D01*
X6835500Y16803465D01*
X6795130Y17006420D01*
X6715941Y17197598D01*
X6600977Y17369655D01*
X6454655Y17515977D01*
X6282598Y17630941D01*
X6172009Y17676748D01*
X6117606Y17720589D01*
X6095541Y17786883D01*
X6112820Y17854582D01*
X6163957Y17902193D01*
X6181144Y17909240D01*
X6303216Y17948904D01*
X6492557Y18045379D01*
X6664459Y18170272D01*
X6664464Y18170276D01*
X6814723Y18320535D01*
X6814727Y18320540D01*
X6939620Y18492442D01*
X7036095Y18681782D01*
X7101757Y18883870D01*
X7101757Y18883873D01*
X7112231Y18950000D01*
X6064146Y18950000D01*
X6102630Y19016657D01*
X6135000Y19137465D01*
X6135000Y19262535D01*
X6102630Y19383343D01*
X6064146Y19450000D01*
X7112231Y19450000D01*
X7101757Y19516126D01*
X7101757Y19516129D01*
X7036095Y19718217D01*
X6939620Y19907557D01*
X6814727Y20079459D01*
X6814723Y20079464D01*
X6664464Y20229723D01*
X6664459Y20229727D01*
X6492557Y20354620D01*
X6303217Y20451095D01*
X6101127Y20516757D01*
X5910000Y20547028D01*
X5910000Y19604145D01*
X5843343Y19642630D01*
X5722535Y19675000D01*
X5597465Y19675000D01*
X5476657Y19642630D01*
X5410000Y19604145D01*
X5410000Y20547029D01*
X5218872Y20516757D01*
X5016782Y20451095D01*
X4827442Y20354620D01*
X4655540Y20229727D01*
X4655535Y20229723D01*
X4505276Y20079464D01*
X4505272Y20079459D01*
X4380379Y19907557D01*
X4283904Y19718217D01*
X4218242Y19516129D01*
X4218242Y19516126D01*
X4207769Y19450000D01*
X500500Y19450000D01*
X500500Y21401720D01*
X8491973Y21401720D01*
X8668737Y21224957D01*
X8668748Y21224947D01*
X8748779Y21159751D01*
X8748785Y21159747D01*
X8905463Y21081061D01*
X9076065Y21040628D01*
X9236292Y21040628D01*
X9303331Y21020943D01*
X9349086Y20968139D01*
X9356950Y20945223D01*
X9366438Y20905184D01*
X9442497Y20753740D01*
X9442502Y20753733D01*
X9505529Y20676362D01*
X9505544Y20676345D01*
X9539699Y20642189D01*
X9539700Y20642189D01*
X10034675Y21137162D01*
X10034675Y21137163D01*
X9894721Y21277117D01*
X9870019Y21277117D01*
X9802980Y21296802D01*
X9782338Y21313436D01*
X9093013Y22002760D01*
X8491973Y21401720D01*
X500500Y21401720D01*
X500500Y25312236D01*
X5516853Y25312236D01*
X5516853Y25177447D01*
X5558504Y25049261D01*
X5558505Y25049258D01*
X5617797Y24967650D01*
X5617802Y24967644D01*
X6018709Y24566737D01*
X6018715Y24566732D01*
X6100323Y24507440D01*
X6100326Y24507439D01*
X6228512Y24465788D01*
X6228514Y24465788D01*
X6363303Y24465788D01*
X6417065Y24483257D01*
X6432277Y24483691D01*
X6446537Y24489010D01*
X6466492Y24484668D01*
X6486906Y24485252D01*
X6500992Y24477163D01*
X6514810Y24474158D01*
X6543064Y24453007D01*
X6588603Y24407468D01*
X6622088Y24346145D01*
X6617104Y24276453D01*
X6599302Y24245679D01*
X6599343Y24245653D01*
X6598773Y24244764D01*
X6596409Y24240678D01*
X6595269Y24239302D01*
X6536346Y24116947D01*
X6517483Y23991798D01*
X6516105Y23982659D01*
X6536346Y23848372D01*
X6595268Y23726017D01*
X6614774Y23702475D01*
X7327905Y22989344D01*
X7351447Y22969838D01*
X7473802Y22910916D01*
X7608089Y22890675D01*
X7608090Y22890675D01*
X7709788Y22906003D01*
X7779013Y22896531D01*
X7832127Y22851137D01*
X7852267Y22784233D01*
X7839081Y22727739D01*
X7817761Y22685288D01*
X7777328Y22514685D01*
X7777328Y22339364D01*
X7817761Y22168763D01*
X7896447Y22012085D01*
X7961646Y21932048D01*
X7961660Y21932032D01*
X8138420Y21755273D01*
X8138421Y21755273D01*
X8828556Y22445409D01*
X8889879Y22478894D01*
X8959570Y22473910D01*
X9003918Y22445410D01*
X9093014Y22356314D01*
X9182109Y22445409D01*
X9243432Y22478894D01*
X9313124Y22473910D01*
X9357471Y22445409D01*
X9745619Y22057261D01*
X9770324Y22057261D01*
X9837363Y22037576D01*
X9858005Y22020942D01*
X10477325Y21401622D01*
X10510810Y21340299D01*
X10505826Y21270607D01*
X10477325Y21226260D01*
X10388229Y21137164D01*
X10477325Y21048068D01*
X10510809Y20986745D01*
X10505825Y20917053D01*
X10477324Y20872706D01*
X9893254Y20288636D01*
X9893254Y20288635D01*
X9927410Y20254480D01*
X9927429Y20254463D01*
X10004797Y20191437D01*
X10004805Y20191432D01*
X10156249Y20115374D01*
X10321168Y20076288D01*
X10490645Y20076288D01*
X10655560Y20115373D01*
X10734026Y20154780D01*
X10802769Y20167276D01*
X10867356Y20140623D01*
X10900487Y20099621D01*
X10956262Y19988565D01*
X10956265Y19988561D01*
X11019292Y19911190D01*
X11019307Y19911173D01*
X11053462Y19877017D01*
X11053463Y19877017D01*
X11637534Y20461088D01*
X11698857Y20494573D01*
X11768549Y20489589D01*
X11812896Y20461088D01*
X11991087Y20282896D01*
X12024572Y20221573D01*
X12019588Y20151881D01*
X11991087Y20107534D01*
X11407017Y19523464D01*
X11407017Y19523463D01*
X11441173Y19489308D01*
X11441192Y19489291D01*
X11518560Y19426265D01*
X11518568Y19426260D01*
X11670012Y19350202D01*
X11834931Y19311116D01*
X12004408Y19311116D01*
X12074045Y19327620D01*
X12143817Y19323926D01*
X12200516Y19283097D01*
X12220572Y19245281D01*
X12244709Y19170995D01*
X12257583Y19131371D01*
X12259466Y19125578D01*
X12259468Y19125574D01*
X12315273Y19048767D01*
X12315280Y19048758D01*
X12748761Y18615278D01*
X12748763Y18615276D01*
X12825577Y18559466D01*
X12825580Y18559465D01*
X12946233Y18520262D01*
X13064467Y18520262D01*
X13131506Y18500577D01*
X13177261Y18447773D01*
X13184242Y18428355D01*
X13190201Y18406112D01*
X13249511Y18303387D01*
X13249513Y18303384D01*
X13333384Y18219513D01*
X13333387Y18219511D01*
X13436112Y18160201D01*
X13506593Y18141315D01*
X13528236Y18135516D01*
X13583823Y18103423D01*
X13781715Y17905530D01*
X13807502Y17890642D01*
X13855717Y17840074D01*
X13868209Y17788575D01*
X13869364Y17788630D01*
X13869499Y17785736D01*
X13872353Y17755300D01*
X13872353Y17755298D01*
X13917206Y17627119D01*
X13917207Y17627117D01*
X13997850Y17517850D01*
X14107117Y17437207D01*
X14107119Y17437206D01*
X14235299Y17392353D01*
X14265730Y17389500D01*
X14265734Y17389500D01*
X14631325Y17389500D01*
X14698364Y17369815D01*
X14744119Y17317011D01*
X14754063Y17247853D01*
X14725038Y17184297D01*
X14719006Y17177819D01*
X14100279Y16559092D01*
X14100273Y16559087D01*
X14093208Y16552022D01*
X14033536Y16492350D01*
X14017000Y16463709D01*
X13991341Y16419267D01*
X13969500Y16337754D01*
X13969500Y14413361D01*
X13991341Y14331848D01*
X14033536Y14258766D01*
X14033538Y14258763D01*
X14679763Y13612538D01*
X14679766Y13612536D01*
X14752848Y13570341D01*
X14834361Y13548500D01*
X14834363Y13548500D01*
X14918752Y13548500D01*
X15998266Y13548500D01*
X16065305Y13528815D01*
X16111060Y13476011D01*
X16121004Y13406853D01*
X16118044Y13392420D01*
X16089500Y13285892D01*
X16089500Y13285889D01*
X16089500Y13154108D01*
X16123608Y13026812D01*
X16189500Y12912686D01*
X16189502Y12912683D01*
X16282683Y12819502D01*
X16282686Y12819500D01*
X16396812Y12753608D01*
X16524108Y12719500D01*
X16655891Y12719500D01*
X16655892Y12719500D01*
X16783186Y12753608D01*
X16783188Y12753609D01*
X16783190Y12753610D01*
X16795081Y12760475D01*
X16862981Y12776946D01*
X16929008Y12754093D01*
X16944753Y12740775D01*
X16949590Y12735938D01*
X16949593Y12735936D01*
X17056829Y12685931D01*
X17056827Y12685931D01*
X17105683Y12679500D01*
X17105684Y12679500D01*
X17454317Y12679500D01*
X17503171Y12685931D01*
X17610404Y12735935D01*
X17701736Y12827267D01*
X17704559Y12824443D01*
X17743042Y12855183D01*
X17812542Y12862352D01*
X17874886Y12830808D01*
X17878098Y12827101D01*
X17878264Y12827267D01*
X17969595Y12735935D01*
X18076829Y12685931D01*
X18076827Y12685931D01*
X18125683Y12679500D01*
X18125684Y12679500D01*
X18474317Y12679500D01*
X18523172Y12685931D01*
X18532278Y12688586D01*
X18533254Y12685236D01*
X18585171Y12693118D01*
X18648953Y12664594D01*
X18687189Y12606115D01*
X18687738Y12536247D01*
X18656171Y12482564D01*
X18314921Y12141314D01*
X18259334Y12109221D01*
X18136814Y12076392D01*
X18022686Y12010500D01*
X17929500Y11917314D01*
X17911189Y11885598D01*
X17863608Y11803187D01*
X17829500Y11675891D01*
X17829500Y11544108D01*
X17863608Y11416812D01*
X17929500Y11302686D01*
X17929502Y11302683D01*
X18022683Y11209502D01*
X18022686Y11209500D01*
X18136812Y11143608D01*
X18264108Y11109500D01*
X18395891Y11109500D01*
X18395892Y11109500D01*
X18520003Y11142755D01*
X18523187Y11143608D01*
X18598029Y11186819D01*
X18637314Y11209500D01*
X18730500Y11302686D01*
X18796392Y11416814D01*
X18814580Y11484693D01*
X18846673Y11540280D01*
X19159897Y11853504D01*
X19215484Y11885597D01*
X19257909Y11896965D01*
X19294589Y11906793D01*
X19347938Y11937595D01*
X19385913Y11959520D01*
X19742364Y12315971D01*
X19803687Y12349456D01*
X19873379Y12344472D01*
X19929312Y12302600D01*
X19953729Y12237136D01*
X19949820Y12196197D01*
X19949201Y12193886D01*
X19918501Y12079310D01*
X19918500Y12079308D01*
X19918500Y11896965D01*
X19898815Y11829926D01*
X19882181Y11809284D01*
X19225828Y11152931D01*
X19170239Y11120837D01*
X19128218Y11109578D01*
X19128213Y11109576D01*
X18991290Y11030524D01*
X18991286Y11030521D01*
X18991284Y11030520D01*
X18991282Y11030518D01*
X18879481Y10918717D01*
X18879475Y10918709D01*
X18861236Y10887117D01*
X18800423Y10781784D01*
X18765743Y10652354D01*
X18759500Y10629056D01*
X18759500Y10470943D01*
X18800423Y10318216D01*
X18800426Y10318209D01*
X18879475Y10181290D01*
X18879481Y10181282D01*
X18991282Y10069481D01*
X18991290Y10069475D01*
X19128209Y9990426D01*
X19128216Y9990423D01*
X19280943Y9949500D01*
X19439056Y9949500D01*
X19439057Y9949500D01*
X19591784Y9990423D01*
X19591786Y9990424D01*
X19591790Y9990426D01*
X19728709Y10069475D01*
X19728717Y10069481D01*
X19777819Y10118583D01*
X19797255Y10129195D01*
X19813989Y10143696D01*
X19827320Y10145612D01*
X19839142Y10152068D01*
X19861228Y10150488D01*
X19883147Y10153640D01*
X19895398Y10148044D01*
X19908834Y10147084D01*
X19926560Y10133813D01*
X19946703Y10124615D01*
X19953985Y10113283D01*
X19964767Y10105212D01*
X19972504Y10084466D01*
X19984477Y10065837D01*
X19987628Y10043918D01*
X19989184Y10039748D01*
X19989500Y10030902D01*
X19989500Y9988676D01*
X19969815Y9921637D01*
X19953181Y9900995D01*
X19909500Y9857314D01*
X19904989Y9849500D01*
X19843608Y9743187D01*
X19809500Y9615891D01*
X19809500Y9484108D01*
X19843608Y9356812D01*
X19873375Y9305256D01*
X19895751Y9266499D01*
X19912224Y9198601D01*
X19889372Y9132574D01*
X19834451Y9089383D01*
X19788364Y9080500D01*
X19430227Y9080500D01*
X19324773Y9080500D01*
X19222912Y9053207D01*
X19131587Y9000480D01*
X19131584Y9000477D01*
X16880492Y6749385D01*
X16819169Y6715900D01*
X16749477Y6720884D01*
X16745399Y6722488D01*
X16636420Y6767630D01*
X16433467Y6807999D01*
X16433466Y6808000D01*
X16433465Y6808000D01*
X16226535Y6808000D01*
X16226534Y6808000D01*
X16226530Y6807999D01*
X16023580Y6767630D01*
X15832402Y6688441D01*
X15661498Y6574247D01*
X15660342Y6573475D01*
X15514024Y6427157D01*
X15503742Y6411769D01*
X15399697Y6256052D01*
X15399058Y6255096D01*
X15319870Y6063920D01*
X15319868Y6063912D01*
X15279500Y5860969D01*
X15279500Y5404030D01*
X15319868Y5201087D01*
X15319870Y5201079D01*
X15399058Y5009903D01*
X15514024Y4837842D01*
X15660342Y4691524D01*
X15832403Y4576558D01*
X16023579Y4497370D01*
X16023587Y4497368D01*
X16226530Y4457000D01*
X16226535Y4457000D01*
X16433469Y4457000D01*
X16636412Y4497368D01*
X16636420Y4497370D01*
X16827596Y4576558D01*
X16827598Y4576559D01*
X16913626Y4634041D01*
X16999657Y4691524D01*
X17145975Y4837842D01*
X17156257Y4853230D01*
X17260941Y5009902D01*
X17340130Y5201080D01*
X17380500Y5404035D01*
X17380500Y5860965D01*
X17351017Y6009188D01*
X17357244Y6078779D01*
X17384953Y6121060D01*
X17774147Y6510254D01*
X17835470Y6543739D01*
X17905162Y6538755D01*
X17961095Y6496883D01*
X17985512Y6431419D01*
X17970660Y6363146D01*
X17964931Y6353684D01*
X17899697Y6256052D01*
X17899058Y6255096D01*
X17819870Y6063920D01*
X17819868Y6063912D01*
X17779500Y5860969D01*
X17779500Y5404030D01*
X17819868Y5201087D01*
X17819870Y5201079D01*
X17899058Y5009903D01*
X18014024Y4837842D01*
X18160342Y4691524D01*
X18332403Y4576558D01*
X18523579Y4497370D01*
X18523587Y4497368D01*
X18726530Y4457000D01*
X18726535Y4457000D01*
X18933469Y4457000D01*
X19136412Y4497368D01*
X19136420Y4497370D01*
X19327596Y4576558D01*
X19327598Y4576559D01*
X19413626Y4634041D01*
X19499657Y4691524D01*
X19645975Y4837842D01*
X19656257Y4853230D01*
X19760941Y5009902D01*
X19840130Y5201080D01*
X19880500Y5404035D01*
X19880500Y5860965D01*
X19880499Y5860969D01*
X20279500Y5860969D01*
X20279500Y5404030D01*
X20319868Y5201087D01*
X20319870Y5201079D01*
X20399058Y5009903D01*
X20514024Y4837842D01*
X20660342Y4691524D01*
X20832403Y4576558D01*
X21023579Y4497370D01*
X21023587Y4497368D01*
X21226530Y4457000D01*
X21226535Y4457000D01*
X21433469Y4457000D01*
X21636412Y4497368D01*
X21636420Y4497370D01*
X21827596Y4576558D01*
X21827598Y4576559D01*
X21913626Y4634041D01*
X21999657Y4691524D01*
X22145975Y4837842D01*
X22156257Y4853230D01*
X22260941Y5009902D01*
X22340130Y5201080D01*
X22380500Y5404035D01*
X22380500Y5860965D01*
X22340130Y6063920D01*
X22260941Y6255098D01*
X22156258Y6411769D01*
X22779500Y6411769D01*
X22779500Y4853230D01*
X22782353Y4822800D01*
X22782353Y4822798D01*
X22827206Y4694619D01*
X22827207Y4694617D01*
X22907850Y4585350D01*
X23017117Y4504707D01*
X23017119Y4504706D01*
X23145299Y4459853D01*
X23175730Y4457000D01*
X23175734Y4457000D01*
X24484270Y4457000D01*
X24514699Y4459853D01*
X24514701Y4459853D01*
X24642880Y4504706D01*
X24642882Y4504707D01*
X24752150Y4585350D01*
X24778673Y4621288D01*
X33649500Y4621288D01*
X33649500Y4378711D01*
X33681161Y4138214D01*
X33743947Y3903895D01*
X33836773Y3679794D01*
X33836777Y3679785D01*
X33958067Y3469706D01*
X34105733Y3277263D01*
X34105739Y3277256D01*
X34277256Y3105739D01*
X34277263Y3105733D01*
X34469706Y2958067D01*
X34679785Y2836777D01*
X34679794Y2836773D01*
X34903895Y2743947D01*
X35138214Y2681161D01*
X35378711Y2649500D01*
X35378712Y2649500D01*
X35621289Y2649500D01*
X35861785Y2681161D01*
X36096104Y2743947D01*
X36320205Y2836773D01*
X36320214Y2836777D01*
X36358661Y2858974D01*
X36530289Y2958064D01*
X36656898Y3055214D01*
X36722736Y3105733D01*
X36722743Y3105739D01*
X36894260Y3277256D01*
X36894266Y3277263D01*
X37041932Y3469706D01*
X37041936Y3469711D01*
X37163224Y3679788D01*
X37256054Y3903900D01*
X37318838Y4138211D01*
X37350500Y4378712D01*
X37350500Y4621288D01*
X37318838Y4861789D01*
X37256054Y5096100D01*
X37163224Y5320212D01*
X37041936Y5530289D01*
X36894265Y5722738D01*
X36722738Y5894265D01*
X36530289Y6041936D01*
X36320212Y6163224D01*
X36096100Y6256054D01*
X35861789Y6318838D01*
X35657179Y6345775D01*
X35621289Y6350500D01*
X35621288Y6350500D01*
X35378712Y6350500D01*
X35378711Y6350500D01*
X35342821Y6345775D01*
X35138211Y6318838D01*
X34903900Y6256054D01*
X34679788Y6163224D01*
X34469711Y6041936D01*
X34469706Y6041932D01*
X34277263Y5894266D01*
X34277256Y5894260D01*
X34105739Y5722743D01*
X34105735Y5722738D01*
X33958064Y5530289D01*
X33858974Y5358661D01*
X33836777Y5320214D01*
X33836773Y5320205D01*
X33743947Y5096104D01*
X33681161Y4861785D01*
X33649500Y4621288D01*
X24778673Y4621288D01*
X24832793Y4694618D01*
X24844006Y4726663D01*
X24877646Y4822798D01*
X24877646Y4822800D01*
X24880500Y4853230D01*
X24880500Y6411769D01*
X24877646Y6442199D01*
X24877646Y6442201D01*
X24853833Y6510254D01*
X24832793Y6570382D01*
X24752150Y6679650D01*
X24642882Y6760293D01*
X24557426Y6790195D01*
X24514700Y6805146D01*
X24484270Y6808000D01*
X24484266Y6808000D01*
X23175734Y6808000D01*
X23175730Y6808000D01*
X23145300Y6805146D01*
X23145298Y6805146D01*
X23049163Y6771506D01*
X23017118Y6760293D01*
X22907850Y6679650D01*
X22829491Y6573477D01*
X22827207Y6570382D01*
X22827206Y6570380D01*
X22782353Y6442201D01*
X22782353Y6442199D01*
X22779500Y6411769D01*
X22156258Y6411769D01*
X22145977Y6427155D01*
X21999655Y6573477D01*
X21827598Y6688441D01*
X21636420Y6767630D01*
X21433467Y6807999D01*
X21433466Y6808000D01*
X21433465Y6808000D01*
X21226535Y6808000D01*
X21226534Y6808000D01*
X21226530Y6807999D01*
X21023580Y6767630D01*
X20832402Y6688441D01*
X20661498Y6574247D01*
X20660342Y6573475D01*
X20514024Y6427157D01*
X20503742Y6411769D01*
X20399697Y6256052D01*
X20399058Y6255096D01*
X20319870Y6063920D01*
X20319868Y6063912D01*
X20279500Y5860969D01*
X19880499Y5860969D01*
X19840130Y6063920D01*
X19760941Y6255098D01*
X19645977Y6427155D01*
X19499655Y6573477D01*
X19327598Y6688441D01*
X19327586Y6688445D01*
X19323368Y6690701D01*
X19273522Y6739662D01*
X19258059Y6807799D01*
X19281888Y6873479D01*
X19294136Y6887743D01*
X19999574Y7593181D01*
X20060897Y7626666D01*
X20087255Y7629500D01*
X21992726Y7629500D01*
X21992727Y7629500D01*
X22043657Y7643146D01*
X22094589Y7656793D01*
X22140250Y7683156D01*
X22185913Y7709520D01*
X22790480Y8314087D01*
X22843207Y8405412D01*
X22870500Y8507273D01*
X22870500Y8612727D01*
X22870500Y9172727D01*
X22843207Y9274587D01*
X22842116Y9276477D01*
X22841550Y9278585D01*
X22840095Y9282101D01*
X22840557Y9282292D01*
X22825500Y9338482D01*
X22825500Y10401883D01*
X22845185Y10468922D01*
X22897989Y10514677D01*
X22967147Y10524621D01*
X23030703Y10495596D01*
X23037181Y10489564D01*
X23353181Y10173564D01*
X23367884Y10146636D01*
X23384477Y10120818D01*
X23385368Y10114617D01*
X23386666Y10112241D01*
X23389500Y10085883D01*
X23389500Y9988676D01*
X23369815Y9921637D01*
X23353181Y9900995D01*
X23309500Y9857314D01*
X23304989Y9849500D01*
X23243608Y9743187D01*
X23209500Y9615891D01*
X23209500Y9484108D01*
X23243608Y9356812D01*
X23309500Y9242686D01*
X23309502Y9242683D01*
X23402683Y9149502D01*
X23402686Y9149500D01*
X23516812Y9083608D01*
X23644108Y9049500D01*
X23775891Y9049500D01*
X23775892Y9049500D01*
X23846324Y9068372D01*
X23903187Y9083608D01*
X23960250Y9116554D01*
X24017314Y9149500D01*
X24110500Y9242686D01*
X24176392Y9356814D01*
X24210500Y9484108D01*
X24210500Y9615892D01*
X24176392Y9743186D01*
X24110500Y9857314D01*
X24066819Y9900995D01*
X24052115Y9927922D01*
X24035523Y9953741D01*
X24034631Y9959941D01*
X24033334Y9962318D01*
X24030500Y9988676D01*
X24030500Y10201717D01*
X24050185Y10268756D01*
X24102989Y10314511D01*
X24172147Y10324455D01*
X24235703Y10295430D01*
X24261887Y10263717D01*
X24309477Y10181287D01*
X24309481Y10181282D01*
X24421282Y10069481D01*
X24421290Y10069475D01*
X24558209Y9990426D01*
X24558216Y9990423D01*
X24710943Y9949500D01*
X24869056Y9949500D01*
X24869057Y9949500D01*
X25021784Y9990423D01*
X25021786Y9990424D01*
X25021790Y9990426D01*
X25158709Y10069475D01*
X25158717Y10069481D01*
X25270518Y10181282D01*
X25270524Y10181290D01*
X25349573Y10318209D01*
X25349577Y10318216D01*
X25390500Y10470943D01*
X25390500Y10629057D01*
X25349577Y10781784D01*
X25270520Y10918716D01*
X25231417Y10957819D01*
X25197932Y11019142D01*
X25202916Y11088834D01*
X25244788Y11144767D01*
X25310252Y11169184D01*
X25319098Y11169500D01*
X25435891Y11169500D01*
X25435892Y11169500D01*
X25511094Y11189650D01*
X25563187Y11203608D01*
X25620250Y11236554D01*
X25677314Y11269500D01*
X25770500Y11362686D01*
X25836392Y11476814D01*
X25870500Y11604108D01*
X25870500Y11735892D01*
X25836392Y11863186D01*
X25836391Y11863187D01*
X25834288Y11871037D01*
X25837046Y11871776D01*
X25831049Y11927503D01*
X25862317Y11989986D01*
X25922401Y12025645D01*
X25953081Y12029500D01*
X26074317Y12029500D01*
X26123171Y12035931D01*
X26230404Y12085935D01*
X26321736Y12177267D01*
X26324559Y12174443D01*
X26363042Y12205183D01*
X26432542Y12212352D01*
X26494886Y12180808D01*
X26498098Y12177101D01*
X26498264Y12177267D01*
X26589595Y12085935D01*
X26696829Y12035931D01*
X26696827Y12035931D01*
X26745683Y12029500D01*
X27031784Y12029500D01*
X27098823Y12009815D01*
X27144578Y11957011D01*
X27151558Y11937595D01*
X27158916Y11910134D01*
X27158916Y11910133D01*
X27224809Y11796005D01*
X27224811Y11796002D01*
X27317992Y11702821D01*
X27317995Y11702819D01*
X27432121Y11636927D01*
X27559417Y11602819D01*
X27691200Y11602819D01*
X27691201Y11602819D01*
X27764107Y11622354D01*
X27818496Y11636927D01*
X27885984Y11675892D01*
X27932623Y11702819D01*
X28025809Y11796005D01*
X28091701Y11910133D01*
X28123174Y12027594D01*
X28159539Y12087254D01*
X28222386Y12117783D01*
X28242949Y12119500D01*
X28305893Y12119500D01*
X28876853Y12119500D01*
X28943892Y12099815D01*
X28989647Y12047011D01*
X29000311Y12007079D01*
X29002353Y11985300D01*
X29002353Y11985298D01*
X29047206Y11857119D01*
X29047207Y11857117D01*
X29127850Y11747850D01*
X29237117Y11667207D01*
X29237119Y11667206D01*
X29365299Y11622353D01*
X29395730Y11619500D01*
X29395734Y11619500D01*
X30095500Y11619500D01*
X30162539Y11599815D01*
X30208294Y11547011D01*
X30219500Y11495500D01*
X30219500Y10481004D01*
X30219499Y10481004D01*
X30246418Y10345677D01*
X30246421Y10345667D01*
X30299221Y10218195D01*
X30299228Y10218182D01*
X30375885Y10103458D01*
X30375888Y10103454D01*
X30473454Y10005888D01*
X30473458Y10005885D01*
X30588182Y9929228D01*
X30588195Y9929221D01*
X30715667Y9876421D01*
X30715677Y9876418D01*
X30851005Y9849500D01*
X30851007Y9849500D01*
X30988995Y9849500D01*
X31124322Y9876418D01*
X31124332Y9876421D01*
X31251804Y9929221D01*
X31251817Y9929228D01*
X31366541Y10005885D01*
X31366545Y10005888D01*
X31464111Y10103454D01*
X31464114Y10103458D01*
X31540771Y10218182D01*
X31540778Y10218195D01*
X31593578Y10345667D01*
X31593581Y10345677D01*
X31620500Y10481004D01*
X31620500Y11495500D01*
X31640185Y11562539D01*
X31692989Y11608294D01*
X31744500Y11619500D01*
X32504270Y11619500D01*
X32534699Y11622353D01*
X32534701Y11622353D01*
X32662880Y11667206D01*
X32662882Y11667207D01*
X32674650Y11675892D01*
X32772150Y11747850D01*
X32852793Y11857118D01*
X32866736Y11896965D01*
X32897646Y11985298D01*
X32897646Y11985300D01*
X32900500Y12015730D01*
X32900500Y12020013D01*
X34100001Y12020013D01*
X34110494Y11917302D01*
X34165641Y11750880D01*
X34165643Y11750875D01*
X34257684Y11601654D01*
X34381654Y11477684D01*
X34530875Y11385643D01*
X34530880Y11385641D01*
X34697302Y11330494D01*
X34697309Y11330493D01*
X34800013Y11320000D01*
X36100000Y11320000D01*
X36600000Y11320000D01*
X37899971Y11320000D01*
X37899987Y11320001D01*
X38002697Y11330494D01*
X38169119Y11385641D01*
X38169124Y11385643D01*
X38318345Y11477684D01*
X38442315Y11601654D01*
X38534356Y11750875D01*
X38534358Y11750880D01*
X38589505Y11917302D01*
X38589506Y11917309D01*
X38599999Y12020013D01*
X38600000Y12020026D01*
X38600000Y12370000D01*
X36600000Y12370000D01*
X36600000Y11320000D01*
X36100000Y11320000D01*
X36100000Y12370000D01*
X34100001Y12370000D01*
X34100001Y12020013D01*
X32900500Y12020013D01*
X32900500Y13219986D01*
X34100000Y13219986D01*
X34100000Y12870000D01*
X36100000Y12870000D01*
X36600000Y12870000D01*
X38599999Y12870000D01*
X38599999Y13219971D01*
X38599998Y13219986D01*
X38589505Y13322697D01*
X38534358Y13489119D01*
X38534356Y13489124D01*
X38442315Y13638345D01*
X38318345Y13762315D01*
X38169124Y13854356D01*
X38169119Y13854358D01*
X38002697Y13909505D01*
X38002690Y13909506D01*
X37899980Y13919999D01*
X36600000Y13919999D01*
X36600000Y12870000D01*
X36100000Y12870000D01*
X36100000Y13919999D01*
X34800028Y13919999D01*
X34800013Y13919998D01*
X34697302Y13909505D01*
X34530880Y13854358D01*
X34530875Y13854356D01*
X34381654Y13762315D01*
X34257684Y13638345D01*
X34165643Y13489124D01*
X34165641Y13489119D01*
X34110494Y13322697D01*
X34110493Y13322690D01*
X34100000Y13219986D01*
X32900500Y13219986D01*
X32900500Y13224269D01*
X32897646Y13254699D01*
X32897646Y13254701D01*
X32861926Y13356780D01*
X32852793Y13382882D01*
X32772150Y13492150D01*
X32662882Y13572793D01*
X32549303Y13612536D01*
X32534700Y13617646D01*
X32504270Y13620500D01*
X32504266Y13620500D01*
X29395734Y13620500D01*
X29395730Y13620500D01*
X29365300Y13617646D01*
X29365298Y13617646D01*
X29282932Y13588824D01*
X29237118Y13572793D01*
X29127850Y13492150D01*
X29091395Y13442755D01*
X29047207Y13382882D01*
X29047206Y13382880D01*
X29002353Y13254701D01*
X29002353Y13254699D01*
X29000311Y13232921D01*
X28974453Y13168013D01*
X28917607Y13127388D01*
X28876853Y13120500D01*
X28498676Y13120500D01*
X28431637Y13140185D01*
X28410995Y13156819D01*
X28051819Y13515995D01*
X28018334Y13577318D01*
X28015500Y13603676D01*
X28015500Y16242389D01*
X28035185Y16309428D01*
X28051819Y16330070D01*
X28088523Y16366774D01*
X28088526Y16366778D01*
X28088528Y16366780D01*
X28149719Y16486874D01*
X28149720Y16486878D01*
X28165500Y16586506D01*
X28165500Y17153493D01*
X28149720Y17253121D01*
X28149719Y17253121D01*
X28149719Y17253126D01*
X28104062Y17342731D01*
X28091167Y17411398D01*
X28117443Y17476139D01*
X28133542Y17492907D01*
X28198617Y17549056D01*
X35279500Y17549056D01*
X35279500Y17390943D01*
X35320423Y17238216D01*
X35320426Y17238209D01*
X35399475Y17101290D01*
X35399481Y17101282D01*
X35511282Y16989481D01*
X35511290Y16989475D01*
X35648209Y16910426D01*
X35648216Y16910423D01*
X35800943Y16869500D01*
X35959056Y16869500D01*
X35959057Y16869500D01*
X36111784Y16910423D01*
X36111786Y16910424D01*
X36111790Y16910426D01*
X36248709Y16989475D01*
X36248717Y16989481D01*
X36360518Y17101282D01*
X36360524Y17101290D01*
X36439573Y17238209D01*
X36439577Y17238216D01*
X36480500Y17390943D01*
X36480500Y17549057D01*
X36439577Y17701784D01*
X36360520Y17838716D01*
X36248716Y17950520D01*
X36111784Y18029577D01*
X35959057Y18070500D01*
X35800943Y18070500D01*
X35648216Y18029577D01*
X35648209Y18029573D01*
X35511290Y17950524D01*
X35511286Y17950521D01*
X35511284Y17950520D01*
X35511282Y17950518D01*
X35399481Y17838717D01*
X35399475Y17838709D01*
X35325113Y17709908D01*
X35320423Y17701784D01*
X35282316Y17559564D01*
X35279500Y17549056D01*
X28198617Y17549056D01*
X28313396Y17648091D01*
X28322572Y17657267D01*
X28322575Y17657271D01*
X28411542Y17801507D01*
X28411547Y17801518D01*
X28464855Y17962393D01*
X28474999Y18061677D01*
X28475000Y18061690D01*
X28475000Y18110000D01*
X27649000Y18110000D01*
X27581961Y18129685D01*
X27536206Y18182489D01*
X27525000Y18234000D01*
X27525000Y18360000D01*
X27399000Y18360000D01*
X27331961Y18379685D01*
X27286206Y18432489D01*
X27275000Y18484000D01*
X27275000Y19334998D01*
X27775000Y19334998D01*
X27775000Y18610000D01*
X28474999Y18610000D01*
X28474999Y18658307D01*
X28474998Y18658322D01*
X28464855Y18757607D01*
X28411547Y18918481D01*
X28411542Y18918492D01*
X28322575Y19062728D01*
X28322572Y19062732D01*
X28202732Y19182572D01*
X28202728Y19182575D01*
X28058492Y19271542D01*
X28058481Y19271547D01*
X27897606Y19324855D01*
X27798316Y19334999D01*
X27775000Y19334998D01*
X27275000Y19334998D01*
X27275000Y19334999D01*
X27251692Y19334999D01*
X27251677Y19334998D01*
X27152392Y19324855D01*
X26991518Y19271547D01*
X26991507Y19271542D01*
X26847271Y19182575D01*
X26847267Y19182572D01*
X26727427Y19062732D01*
X26727424Y19062728D01*
X26665392Y18962159D01*
X26613444Y18915434D01*
X26544482Y18904213D01*
X26480400Y18932056D01*
X26472182Y18939565D01*
X26453220Y18958528D01*
X26333126Y19019719D01*
X26333121Y19019719D01*
X26333121Y19019720D01*
X26233493Y19035500D01*
X26233488Y19035500D01*
X25716512Y19035500D01*
X25716507Y19035500D01*
X25616878Y19019720D01*
X25616876Y19019719D01*
X25616874Y19019719D01*
X25496780Y18958528D01*
X25496778Y18958526D01*
X25496774Y18958523D01*
X25401476Y18863225D01*
X25401473Y18863221D01*
X25401472Y18863220D01*
X25340281Y18743126D01*
X25340280Y18743124D01*
X25340279Y18743121D01*
X25324500Y18643493D01*
X25324500Y18087194D01*
X25304815Y18020155D01*
X25252011Y17974400D01*
X25249663Y17973356D01*
X25241353Y17969767D01*
X25222292Y17964660D01*
X25207054Y17955862D01*
X25200816Y17952260D01*
X25200808Y17952257D01*
X25149214Y17922468D01*
X25149211Y17922466D01*
X25149208Y17922464D01*
X25096546Y17869802D01*
X25085205Y17858461D01*
X25085195Y17858450D01*
X24403564Y17176819D01*
X24342241Y17143334D01*
X24315883Y17140500D01*
X23943590Y17140500D01*
X23876551Y17160185D01*
X23830796Y17212989D01*
X23822602Y17243387D01*
X23821687Y17243205D01*
X23820499Y17249177D01*
X23820499Y17249180D01*
X23806256Y17320789D01*
X23751996Y17401996D01*
X23670789Y17456256D01*
X23599181Y17470500D01*
X23414500Y17470499D01*
X23405814Y17473049D01*
X23396853Y17471761D01*
X23372815Y17482738D01*
X23347461Y17490183D01*
X23341532Y17497025D01*
X23333297Y17500786D01*
X23319010Y17523017D01*
X23301706Y17542987D01*
X23299418Y17553502D01*
X23295523Y17559564D01*
X23290500Y17594499D01*
X23290500Y17658546D01*
X23310185Y17725585D01*
X23326819Y17746227D01*
X23474793Y17894201D01*
X23474796Y17894204D01*
X23516991Y17967287D01*
X23538832Y18048801D01*
X23538832Y18133190D01*
X23538832Y18484696D01*
X23539313Y18495606D01*
X23540262Y18506361D01*
X23544501Y18522178D01*
X23544501Y18554343D01*
X23544982Y18559789D01*
X23555822Y18587434D01*
X23564186Y18615918D01*
X23569649Y18622698D01*
X23570488Y18624836D01*
X23572606Y18626367D01*
X23580820Y18636560D01*
X23797819Y18853559D01*
X23859142Y18887044D01*
X23928834Y18882060D01*
X23984767Y18840188D01*
X24009184Y18774724D01*
X24009500Y18765878D01*
X24009500Y18754108D01*
X24043608Y18626812D01*
X24109500Y18512686D01*
X24109502Y18512683D01*
X24202683Y18419502D01*
X24202686Y18419500D01*
X24316812Y18353608D01*
X24444108Y18319500D01*
X24575891Y18319500D01*
X24575892Y18319500D01*
X24639539Y18336554D01*
X24703187Y18353608D01*
X24794125Y18406112D01*
X24817314Y18419500D01*
X24910500Y18512686D01*
X24976392Y18626814D01*
X25010500Y18754108D01*
X25010500Y18885892D01*
X24976392Y19013186D01*
X24910500Y19127314D01*
X24866819Y19170995D01*
X24833334Y19232318D01*
X24830500Y19258676D01*
X24830500Y20626863D01*
X24830500Y20626867D01*
X24808659Y20708381D01*
X24766464Y20781464D01*
X24706792Y20841136D01*
X24706790Y20841136D01*
X24696587Y20851340D01*
X24696582Y20851344D01*
X21472463Y24075462D01*
X21438980Y24136783D01*
X21443964Y24206475D01*
X21485836Y24262408D01*
X21551300Y24286825D01*
X21608345Y24274415D01*
X21609300Y24276720D01*
X21616811Y24273609D01*
X21616813Y24273608D01*
X21616814Y24273608D01*
X21744108Y24239500D01*
X21875891Y24239500D01*
X21875892Y24239500D01*
X21949929Y24259338D01*
X22003187Y24273608D01*
X22087126Y24322071D01*
X22117314Y24339500D01*
X22210500Y24432686D01*
X22276392Y24546814D01*
X22310500Y24674108D01*
X22310500Y24805892D01*
X22276392Y24933186D01*
X22210500Y25047314D01*
X22117314Y25140500D01*
X22003186Y25206392D01*
X21875892Y25240500D01*
X21744108Y25240500D01*
X21679188Y25223105D01*
X21609343Y25224768D01*
X21551481Y25263930D01*
X21523976Y25328158D01*
X21535562Y25397061D01*
X21559418Y25430561D01*
X21600696Y25471839D01*
X21600710Y25471855D01*
X21663734Y25549222D01*
X21663739Y25549229D01*
X21739797Y25700673D01*
X21778884Y25865591D01*
X21778884Y26035069D01*
X21739797Y26199987D01*
X21663739Y26351431D01*
X21663734Y26351438D01*
X21600702Y26428815D01*
X21600690Y26428829D01*
X21566536Y26462982D01*
X21566535Y26462982D01*
X20982465Y25878912D01*
X20921142Y25845427D01*
X20851450Y25850411D01*
X20807103Y25878912D01*
X20628912Y26057104D01*
X20595427Y26118427D01*
X20600411Y26188119D01*
X20628912Y26232466D01*
X21212982Y26816534D01*
X21178825Y26850692D01*
X21178808Y26850707D01*
X21101439Y26913734D01*
X20996543Y26966415D01*
X20945469Y27014093D01*
X20928279Y27081816D01*
X20950431Y27148080D01*
X21004893Y27191850D01*
X21023598Y27197884D01*
X21185342Y27236218D01*
X21336786Y27312276D01*
X21336793Y27312281D01*
X21414171Y27375314D01*
X21414175Y27375317D01*
X21430658Y27391802D01*
X20741231Y28081231D01*
X20038970Y28783490D01*
X20005485Y28844813D01*
X20006875Y28903261D01*
X20020500Y28954108D01*
X20020500Y29085892D01*
X20010232Y29124212D01*
X20405356Y29124212D01*
X20918008Y28611561D01*
X21412982Y29106534D01*
X21378825Y29140692D01*
X21378808Y29140707D01*
X21301439Y29203734D01*
X21301431Y29203739D01*
X21149987Y29279797D01*
X20985069Y29318884D01*
X20815592Y29318884D01*
X20650673Y29279797D01*
X20499229Y29203739D01*
X20499222Y29203734D01*
X20421844Y29140701D01*
X20421840Y29140698D01*
X20405356Y29124212D01*
X20010232Y29124212D01*
X19986392Y29213186D01*
X19920500Y29327314D01*
X19827314Y29420500D01*
X19713186Y29486392D01*
X19585892Y29520500D01*
X19454108Y29520500D01*
X19454106Y29520499D01*
X19446052Y29519439D01*
X19445754Y29521701D01*
X19387696Y29523080D01*
X19329831Y29562240D01*
X19302325Y29626468D01*
X19302509Y29657387D01*
X19302616Y29658199D01*
X19302616Y29789978D01*
X19302616Y29789980D01*
X19268508Y29917274D01*
X19202616Y30031402D01*
X19109430Y30124588D01*
X18995302Y30190480D01*
X18868008Y30224588D01*
X18760244Y30224588D01*
X18693205Y30244273D01*
X18647450Y30297077D01*
X18636244Y30348588D01*
X18636244Y30466143D01*
X18636244Y30466145D01*
X18602136Y30593439D01*
X18536244Y30707567D01*
X18443058Y30800753D01*
X18328930Y30866645D01*
X18201636Y30900753D01*
X18201634Y30900753D01*
X18160105Y30900753D01*
X18093066Y30920438D01*
X18072424Y30937072D01*
X17857998Y31151497D01*
X17824513Y31212820D01*
X17829497Y31282511D01*
X17871368Y31338445D01*
X17936833Y31362862D01*
X17945679Y31363178D01*
X19082291Y31363178D01*
X19149330Y31343493D01*
X19169972Y31326859D01*
X20037289Y30459541D01*
X20037297Y30459535D01*
X20105806Y30419982D01*
X20105811Y30419979D01*
X20144026Y30409739D01*
X20182240Y30399500D01*
X20261364Y30399500D01*
X20554167Y30399500D01*
X20621206Y30379815D01*
X20641848Y30363181D01*
X21873181Y29131848D01*
X21887884Y29104920D01*
X21904477Y29079102D01*
X21905368Y29072901D01*
X21906666Y29070525D01*
X21909500Y29044167D01*
X21909500Y28876982D01*
X21889815Y28809943D01*
X21837011Y28764188D01*
X21785500Y28752982D01*
X21766535Y28752982D01*
X21271561Y28258008D01*
X21784213Y27745356D01*
X21800696Y27761839D01*
X21800710Y27761855D01*
X21823080Y27789316D01*
X24529500Y27789316D01*
X24529500Y27340683D01*
X24535931Y27291828D01*
X24585935Y27184595D01*
X24669595Y27100935D01*
X24776829Y27050931D01*
X24776827Y27050931D01*
X24825683Y27044500D01*
X24825684Y27044500D01*
X25174317Y27044500D01*
X25223171Y27050931D01*
X25330404Y27100935D01*
X25421736Y27192267D01*
X25424559Y27189443D01*
X25463042Y27220183D01*
X25532542Y27227352D01*
X25594886Y27195808D01*
X25597847Y27192933D01*
X25605743Y27185006D01*
X25605935Y27184596D01*
X25663347Y27127184D01*
X25680005Y27096537D01*
X25696666Y27066027D01*
X25696684Y27065854D01*
X25696716Y27065797D01*
X25696705Y27065657D01*
X25699500Y27039669D01*
X25699500Y26289725D01*
X25679815Y26222686D01*
X25627011Y26176931D01*
X25622952Y26175164D01*
X25552405Y26145943D01*
X25380342Y26030975D01*
X25234024Y25884657D01*
X25207812Y25845427D01*
X25121461Y25716192D01*
X25119058Y25712596D01*
X25039870Y25521420D01*
X25039868Y25521412D01*
X24999500Y25318469D01*
X24999500Y25111530D01*
X25039868Y24908587D01*
X25039870Y24908579D01*
X25119058Y24717403D01*
X25234024Y24545342D01*
X25380342Y24399024D01*
X25552403Y24284058D01*
X25743579Y24204870D01*
X25743587Y24204868D01*
X25946530Y24164500D01*
X25946535Y24164500D01*
X26153469Y24164500D01*
X26356412Y24204868D01*
X26356420Y24204870D01*
X26547596Y24284058D01*
X26547598Y24284059D01*
X26667223Y24363989D01*
X26719657Y24399024D01*
X26865975Y24545342D01*
X26880269Y24566735D01*
X26980941Y24717402D01*
X27060130Y24908580D01*
X27100500Y25111535D01*
X27100500Y25318465D01*
X27060130Y25521420D01*
X26980941Y25712598D01*
X26865977Y25884655D01*
X26812795Y25937837D01*
X26747474Y26003159D01*
X26719658Y26030974D01*
X26719657Y26030975D01*
X26719655Y26030977D01*
X26639174Y26084752D01*
X27539500Y26084752D01*
X27539500Y24345247D01*
X27551131Y24286770D01*
X27551132Y24286769D01*
X27595447Y24220447D01*
X27661769Y24176132D01*
X27661770Y24176131D01*
X27720247Y24164500D01*
X27720252Y24164500D01*
X29459752Y24164500D01*
X29518229Y24176131D01*
X29518230Y24176132D01*
X29584552Y24220447D01*
X29628867Y24286769D01*
X29628868Y24286770D01*
X29640499Y24345247D01*
X29640500Y24345249D01*
X29640500Y26084750D01*
X29640499Y26084752D01*
X29639418Y26090185D01*
X29634857Y26113119D01*
X29628868Y26143229D01*
X29628867Y26143230D01*
X29628867Y26143231D01*
X29584552Y26209552D01*
X29518231Y26253867D01*
X29518229Y26253867D01*
X29518229Y26253868D01*
X29474568Y26262552D01*
X29459751Y26265499D01*
X29459751Y26265500D01*
X29459748Y26265500D01*
X27720252Y26265500D01*
X27720249Y26265500D01*
X27720247Y26265499D01*
X27661770Y26253868D01*
X27661769Y26253867D01*
X27595447Y26209552D01*
X27551132Y26143230D01*
X27551131Y26143229D01*
X27539500Y26084752D01*
X26639174Y26084752D01*
X26547598Y26145941D01*
X26417046Y26200017D01*
X26362644Y26243858D01*
X26340579Y26310152D01*
X26340500Y26314578D01*
X26340500Y27039669D01*
X26360185Y27106708D01*
X26376819Y27127350D01*
X26434064Y27184595D01*
X26434065Y27184596D01*
X26484068Y27291827D01*
X26490500Y27340684D01*
X26490500Y27789316D01*
X26484068Y27838173D01*
X26434065Y27945404D01*
X26350404Y28029065D01*
X26243173Y28079068D01*
X26218744Y28082284D01*
X26194317Y28085500D01*
X26194316Y28085500D01*
X25849833Y28085500D01*
X25782794Y28105185D01*
X25737039Y28157989D01*
X25727095Y28227147D01*
X25756120Y28290703D01*
X25762152Y28297181D01*
X26647819Y29182848D01*
X26709142Y29216333D01*
X26778834Y29211349D01*
X26834767Y29169477D01*
X26859184Y29104013D01*
X26859500Y29095167D01*
X26859500Y28836739D01*
X26869426Y28768608D01*
X26920803Y28663514D01*
X27003514Y28580803D01*
X27108608Y28529426D01*
X27176739Y28519500D01*
X27176740Y28519500D01*
X28893261Y28519500D01*
X28961391Y28529426D01*
X29066485Y28580803D01*
X29149196Y28663514D01*
X29149196Y28663515D01*
X29149198Y28663517D01*
X29200573Y28768607D01*
X29210500Y28836740D01*
X29210500Y29203260D01*
X29200573Y29271393D01*
X29149198Y29376483D01*
X29066483Y29459198D01*
X28961393Y29510573D01*
X28915971Y29517191D01*
X28893261Y29520500D01*
X28893260Y29520500D01*
X27284833Y29520500D01*
X27263587Y29526738D01*
X27241499Y29528318D01*
X27230715Y29536390D01*
X27217794Y29540185D01*
X27203294Y29556918D01*
X27185566Y29570190D01*
X27180858Y29582810D01*
X27172039Y29592989D01*
X27168887Y29614906D01*
X27161149Y29635654D01*
X27164011Y29648814D01*
X27162095Y29662147D01*
X27171294Y29682290D01*
X27176001Y29703927D01*
X27189269Y29721652D01*
X27191120Y29725703D01*
X27197152Y29732181D01*
X27218152Y29753181D01*
X27279475Y29786666D01*
X27305833Y29789500D01*
X28893261Y29789500D01*
X28961391Y29799426D01*
X29066485Y29850803D01*
X29149194Y29933512D01*
X29152077Y29937550D01*
X29207051Y29980674D01*
X29252997Y29989500D01*
X29537061Y29989500D01*
X29537063Y29989500D01*
X29588014Y30003152D01*
X29613491Y30009979D01*
X29613496Y30009982D01*
X29682005Y30049535D01*
X29682013Y30049541D01*
X29876970Y30244498D01*
X29938293Y30277983D01*
X30007985Y30272999D01*
X30052332Y30244498D01*
X31328181Y28968649D01*
X31361666Y28907326D01*
X31364500Y28880968D01*
X31364500Y25925439D01*
X31384979Y25849009D01*
X31384980Y25849008D01*
X31404058Y25815964D01*
X31423138Y25782917D01*
X31424540Y25780489D01*
X31424543Y25780484D01*
X33285521Y23919506D01*
X33319006Y23858183D01*
X33314022Y23788491D01*
X33306262Y23773331D01*
X33306932Y23772973D01*
X33304057Y23767595D01*
X33224870Y23576420D01*
X33224868Y23576412D01*
X33184500Y23373469D01*
X33184500Y23166530D01*
X33224868Y22963587D01*
X33224870Y22963579D01*
X33304058Y22772403D01*
X33419024Y22600342D01*
X33565342Y22454024D01*
X33737404Y22339057D01*
X33847990Y22293251D01*
X33902394Y22249409D01*
X33924458Y22183115D01*
X33907178Y22115416D01*
X33856041Y22067806D01*
X33838855Y22060759D01*
X33716782Y22021095D01*
X33527442Y21924620D01*
X33355540Y21799727D01*
X33355535Y21799723D01*
X33205276Y21649464D01*
X33205272Y21649459D01*
X33080379Y21477557D01*
X32983904Y21288217D01*
X32918242Y21086129D01*
X32918242Y21086126D01*
X32907769Y21020000D01*
X33955854Y21020000D01*
X33917370Y20953343D01*
X33885000Y20832535D01*
X33885000Y20707465D01*
X33917370Y20586657D01*
X33955854Y20520000D01*
X32907769Y20520000D01*
X32918242Y20453873D01*
X32918242Y20453870D01*
X32983904Y20251782D01*
X33080379Y20062442D01*
X33205272Y19890540D01*
X33205276Y19890535D01*
X33355535Y19740276D01*
X33355540Y19740272D01*
X33527442Y19615379D01*
X33716782Y19518904D01*
X33918871Y19453242D01*
X34110000Y19422969D01*
X34110000Y20365854D01*
X34176657Y20327370D01*
X34297465Y20295000D01*
X34422535Y20295000D01*
X34543343Y20327370D01*
X34610000Y20365854D01*
X34610000Y19422969D01*
X34801127Y19453242D01*
X34801130Y19453242D01*
X35003217Y19518904D01*
X35192557Y19615379D01*
X35364459Y19740272D01*
X35364464Y19740276D01*
X35514723Y19890535D01*
X35514727Y19890540D01*
X35639620Y20062442D01*
X35736095Y20251782D01*
X35801757Y20453870D01*
X35801757Y20453873D01*
X35812231Y20520000D01*
X34764146Y20520000D01*
X34802630Y20586657D01*
X34835000Y20707465D01*
X34835000Y20832535D01*
X34802630Y20953343D01*
X34764146Y21020000D01*
X35812231Y21020000D01*
X35801757Y21086126D01*
X35801757Y21086129D01*
X35736095Y21288217D01*
X35639620Y21477557D01*
X35514727Y21649459D01*
X35514723Y21649464D01*
X35364464Y21799723D01*
X35364459Y21799727D01*
X35192557Y21924620D01*
X35003217Y22021095D01*
X34881144Y22060759D01*
X34823469Y22100196D01*
X34796270Y22164555D01*
X34808184Y22233401D01*
X34855428Y22284877D01*
X34872009Y22293251D01*
X34982596Y22339057D01*
X35154657Y22454024D01*
X35300975Y22600342D01*
X35324658Y22635786D01*
X35415941Y22772402D01*
X35495130Y22963580D01*
X35535500Y23166535D01*
X35535500Y23373465D01*
X35495130Y23576420D01*
X35415941Y23767598D01*
X35300977Y23939655D01*
X35154655Y24085977D01*
X34982598Y24200941D01*
X34791420Y24280130D01*
X34588467Y24320499D01*
X34588466Y24320500D01*
X34588465Y24320500D01*
X34131535Y24320500D01*
X34131534Y24320500D01*
X34131530Y24320499D01*
X33928580Y24280130D01*
X33902659Y24269393D01*
X33896416Y24266807D01*
X33826947Y24259338D01*
X33764467Y24290613D01*
X33761312Y24293657D01*
X32797152Y25257819D01*
X32763667Y25319142D01*
X32768651Y25388834D01*
X32810523Y25444767D01*
X32875987Y25469184D01*
X32884833Y25469500D01*
X33139564Y25469500D01*
X33206603Y25449815D01*
X33252358Y25397011D01*
X33254125Y25392953D01*
X33304058Y25272403D01*
X33419024Y25100342D01*
X33565342Y24954024D01*
X33737403Y24839058D01*
X33928579Y24759870D01*
X33928587Y24759868D01*
X34131530Y24719500D01*
X34131535Y24719500D01*
X34588469Y24719500D01*
X34791412Y24759868D01*
X34791420Y24759870D01*
X34982596Y24839058D01*
X34982598Y24839059D01*
X35091392Y24911752D01*
X35154657Y24954024D01*
X35300975Y25100342D01*
X35302073Y25101986D01*
X35415941Y25272402D01*
X35495130Y25463580D01*
X35535500Y25666535D01*
X35535500Y25873465D01*
X35495130Y26076420D01*
X35415941Y26267598D01*
X35300977Y26439655D01*
X35154655Y26585977D01*
X34982598Y26700941D01*
X34791420Y26780130D01*
X34588467Y26820499D01*
X34588466Y26820500D01*
X34588465Y26820500D01*
X34131535Y26820500D01*
X34131534Y26820500D01*
X34131530Y26820499D01*
X33928580Y26780130D01*
X33737402Y26700941D01*
X33581538Y26596797D01*
X33565342Y26585975D01*
X33419024Y26439657D01*
X33400309Y26411647D01*
X33304121Y26267690D01*
X33304058Y26267596D01*
X33294184Y26243757D01*
X33263002Y26168477D01*
X33254125Y26147047D01*
X33210284Y26092644D01*
X33143990Y26070579D01*
X33139564Y26070500D01*
X32672230Y26070500D01*
X32642789Y26079144D01*
X32612803Y26085668D01*
X32607787Y26089422D01*
X32605191Y26090185D01*
X32584549Y26106819D01*
X32451819Y26239549D01*
X32418334Y26300872D01*
X32415500Y26327230D01*
X32415500Y28924269D01*
X33184500Y28924269D01*
X33184500Y27615730D01*
X33187353Y27585300D01*
X33187353Y27585298D01*
X33232206Y27457119D01*
X33232207Y27457117D01*
X33312850Y27347850D01*
X33422117Y27267207D01*
X33422119Y27267206D01*
X33550299Y27222353D01*
X33580730Y27219500D01*
X33580734Y27219500D01*
X35139270Y27219500D01*
X35169699Y27222353D01*
X35169701Y27222353D01*
X35297880Y27267206D01*
X35297882Y27267207D01*
X35331242Y27291828D01*
X35407150Y27347850D01*
X35487793Y27457118D01*
X35499006Y27489163D01*
X35532646Y27585298D01*
X35532646Y27585300D01*
X35535500Y27615730D01*
X35535500Y28924269D01*
X35532646Y28954699D01*
X35532646Y28954701D01*
X35495745Y29060155D01*
X35487793Y29082882D01*
X35407150Y29192150D01*
X35297882Y29272793D01*
X35212426Y29302695D01*
X35169700Y29317646D01*
X35139270Y29320500D01*
X35139266Y29320500D01*
X33580734Y29320500D01*
X33580730Y29320500D01*
X33550300Y29317646D01*
X33550298Y29317646D01*
X33464097Y29287482D01*
X33422118Y29272793D01*
X33312850Y29192150D01*
X33262710Y29124212D01*
X33232207Y29082882D01*
X33232206Y29082880D01*
X33187353Y28954701D01*
X33187353Y28954699D01*
X33184500Y28924269D01*
X32415500Y28924269D01*
X32415500Y29282758D01*
X32415500Y29282760D01*
X32395021Y29359187D01*
X32355460Y29427709D01*
X32299511Y29483658D01*
X30392709Y31390460D01*
X30384577Y31395155D01*
X30324187Y31430021D01*
X30247760Y31450500D01*
X30247758Y31450500D01*
X30083334Y31450500D01*
X30016295Y31470185D01*
X29995653Y31486819D01*
X29860819Y31621653D01*
X29682012Y31800460D01*
X29665888Y31809769D01*
X29613490Y31840021D01*
X29537063Y31860500D01*
X29537061Y31860500D01*
X29252997Y31860500D01*
X29185958Y31880185D01*
X29152077Y31912450D01*
X29149200Y31916477D01*
X29149198Y31916483D01*
X29066483Y31999198D01*
X28961393Y32050573D01*
X28915971Y32057191D01*
X28893261Y32060500D01*
X28893260Y32060500D01*
X27176740Y32060500D01*
X27176739Y32060500D01*
X27142673Y32055536D01*
X27108607Y32050573D01*
X27003517Y31999198D01*
X27003515Y31999196D01*
X27003514Y31999196D01*
X26920803Y31916485D01*
X26869426Y31811391D01*
X26859500Y31743260D01*
X26859500Y31376739D01*
X26869426Y31308608D01*
X26920803Y31203514D01*
X27003514Y31120803D01*
X27108608Y31069426D01*
X27176739Y31059500D01*
X27176740Y31059500D01*
X28893261Y31059500D01*
X28961391Y31069426D01*
X29066485Y31120803D01*
X29149194Y31203512D01*
X29152077Y31207550D01*
X29156793Y31211249D01*
X29159284Y31216703D01*
X29183965Y31232564D01*
X29207051Y31250674D01*
X29214315Y31252069D01*
X29218062Y31254477D01*
X29252997Y31259500D01*
X29321668Y31259500D01*
X29388707Y31239815D01*
X29409349Y31223181D01*
X29619849Y31012681D01*
X29653334Y30951358D01*
X29648350Y30881666D01*
X29619849Y30837319D01*
X29409349Y30626819D01*
X29348026Y30593334D01*
X29321668Y30590500D01*
X29252997Y30590500D01*
X29185958Y30610185D01*
X29152077Y30642450D01*
X29149200Y30646477D01*
X29149198Y30646483D01*
X29066483Y30729198D01*
X28961393Y30780573D01*
X28900055Y30789510D01*
X28893261Y30790500D01*
X28893260Y30790500D01*
X27176740Y30790500D01*
X27176739Y30790500D01*
X27142673Y30785536D01*
X27108607Y30780573D01*
X27003517Y30729198D01*
X27003515Y30729196D01*
X27003514Y30729196D01*
X26920803Y30646485D01*
X26869426Y30541391D01*
X26859500Y30473260D01*
X26859500Y30295833D01*
X26839815Y30228794D01*
X26823181Y30208152D01*
X24759541Y28144512D01*
X24759539Y28144509D01*
X24721015Y28077785D01*
X24677668Y28036455D01*
X24678485Y28035290D01*
X24670808Y28029914D01*
X24670447Y28029570D01*
X24670010Y28029355D01*
X24669598Y28029067D01*
X24585935Y27945404D01*
X24535931Y27838171D01*
X24529500Y27789316D01*
X21823080Y27789316D01*
X21863734Y27839222D01*
X21863736Y27839225D01*
X21868658Y27849025D01*
X21868659Y27849027D01*
X21939798Y27990675D01*
X21978884Y28155591D01*
X21978884Y28325071D01*
X21961028Y28400408D01*
X21964721Y28470180D01*
X22005549Y28526880D01*
X22070550Y28552505D01*
X22136142Y28540408D01*
X22158605Y28529427D01*
X22158607Y28529426D01*
X22226739Y28519500D01*
X22226740Y28519500D01*
X23943261Y28519500D01*
X24011391Y28529426D01*
X24116485Y28580803D01*
X24199196Y28663514D01*
X24199196Y28663515D01*
X24199198Y28663517D01*
X24250573Y28768607D01*
X24260500Y28836740D01*
X24260500Y29203260D01*
X24250573Y29271393D01*
X24199198Y29376483D01*
X24116483Y29459198D01*
X24011393Y29510573D01*
X23965971Y29517191D01*
X23943261Y29520500D01*
X23943260Y29520500D01*
X22385833Y29520500D01*
X22356392Y29529144D01*
X22326406Y29535668D01*
X22321390Y29539422D01*
X22318794Y29540185D01*
X22298152Y29556819D01*
X22277152Y29577819D01*
X22243667Y29639142D01*
X22248651Y29708834D01*
X22290523Y29764767D01*
X22355987Y29789184D01*
X22364833Y29789500D01*
X23943261Y29789500D01*
X24011391Y29799426D01*
X24116485Y29850803D01*
X24163863Y29898181D01*
X24190790Y29912884D01*
X24216609Y29929477D01*
X24222809Y29930368D01*
X24225186Y29931666D01*
X24251544Y29934500D01*
X24336324Y29934500D01*
X24403363Y29914815D01*
X24424005Y29898181D01*
X24432683Y29889502D01*
X24432686Y29889500D01*
X24546812Y29823608D01*
X24674108Y29789500D01*
X24805891Y29789500D01*
X24805892Y29789500D01*
X24869539Y29806554D01*
X24933187Y29823608D01*
X24990250Y29856554D01*
X25047314Y29889500D01*
X25140500Y29982686D01*
X25206392Y30096814D01*
X25240500Y30224108D01*
X25240500Y30355892D01*
X25206392Y30483186D01*
X25140500Y30597314D01*
X25047314Y30690500D01*
X24933186Y30756392D01*
X24805892Y30790500D01*
X24674108Y30790500D01*
X24546814Y30756392D01*
X24484272Y30720283D01*
X24416374Y30703811D01*
X24350347Y30726663D01*
X24307156Y30781584D01*
X24300514Y30851137D01*
X24332529Y30913240D01*
X24334592Y30915352D01*
X24427678Y31008438D01*
X24427685Y31008447D01*
X24511281Y31149801D01*
X24557100Y31307513D01*
X24557295Y31309998D01*
X24557295Y31310000D01*
X23209000Y31310000D01*
X23141961Y31329685D01*
X23096206Y31382489D01*
X23085000Y31434000D01*
X23085000Y31686000D01*
X23104685Y31753039D01*
X23157489Y31798794D01*
X23209000Y31810000D01*
X24557295Y31810000D01*
X24557295Y31810001D01*
X24557100Y31812486D01*
X24511281Y31970198D01*
X24427685Y32111552D01*
X24427678Y32111561D01*
X24311561Y32227678D01*
X24311550Y32227687D01*
X24224075Y32279419D01*
X24176391Y32330487D01*
X24163887Y32399229D01*
X24190532Y32463818D01*
X24199070Y32473337D01*
X24199195Y32473513D01*
X24199195Y32473514D01*
X24199198Y32473517D01*
X24250573Y32578607D01*
X24258298Y32631629D01*
X24260500Y32646739D01*
X24260500Y33013260D01*
X26859500Y33013260D01*
X26859500Y32646739D01*
X26869426Y32578608D01*
X26920803Y32473514D01*
X27003514Y32390803D01*
X27108608Y32339426D01*
X27176739Y32329500D01*
X27176740Y32329500D01*
X28893261Y32329500D01*
X28961391Y32339426D01*
X29066485Y32390803D01*
X29149196Y32473514D01*
X29149196Y32473515D01*
X29149198Y32473517D01*
X29200573Y32578607D01*
X29208298Y32631629D01*
X29210500Y32646739D01*
X29210500Y33013260D01*
X29200573Y33081391D01*
X29200573Y33081393D01*
X29149198Y33186483D01*
X29066483Y33269198D01*
X28961393Y33320573D01*
X28915971Y33327191D01*
X28893261Y33330500D01*
X28893260Y33330500D01*
X28464500Y33330500D01*
X28397461Y33350185D01*
X28351706Y33402989D01*
X28340500Y33454500D01*
X28340500Y33764669D01*
X28360185Y33831708D01*
X28376819Y33852350D01*
X28434064Y33909595D01*
X28434065Y33909596D01*
X28484068Y34016827D01*
X28490500Y34065684D01*
X28490500Y34514316D01*
X28484068Y34563173D01*
X28434065Y34670404D01*
X28350404Y34754065D01*
X28243173Y34804068D01*
X28218744Y34807284D01*
X28194317Y34810500D01*
X28194316Y34810500D01*
X27845684Y34810500D01*
X27845683Y34810500D01*
X27796827Y34804068D01*
X27788002Y34801496D01*
X27718132Y34801634D01*
X27659429Y34839525D01*
X27646568Y34857426D01*
X27640735Y34867288D01*
X27640731Y34867294D01*
X27527294Y34980731D01*
X27527285Y34980738D01*
X27389194Y35062404D01*
X27250000Y35102843D01*
X27250000Y33448416D01*
X27230315Y33381377D01*
X27177511Y33335622D01*
X27143882Y33325712D01*
X27108607Y33320573D01*
X27003517Y33269198D01*
X27003515Y33269196D01*
X27003514Y33269196D01*
X26920803Y33186485D01*
X26869426Y33081391D01*
X26859500Y33013260D01*
X24260500Y33013260D01*
X24250573Y33081391D01*
X24250573Y33081393D01*
X24199198Y33186483D01*
X24116483Y33269198D01*
X24011393Y33320573D01*
X23965971Y33327191D01*
X23943261Y33330500D01*
X23943260Y33330500D01*
X22226740Y33330500D01*
X22226739Y33330500D01*
X22193871Y33325711D01*
X22158607Y33320573D01*
X22053517Y33269198D01*
X22053515Y33269196D01*
X22053514Y33269196D01*
X21970803Y33186485D01*
X21919426Y33081391D01*
X21909500Y33013260D01*
X21909500Y32805833D01*
X21889815Y32738794D01*
X21873181Y32718152D01*
X20656780Y31501751D01*
X20595457Y31468266D01*
X20525765Y31473250D01*
X20481418Y31501751D01*
X20066682Y31916487D01*
X19629031Y32354138D01*
X19599350Y32371274D01*
X19560509Y32393699D01*
X19484082Y32414178D01*
X17449389Y32414178D01*
X17382350Y32433863D01*
X17336595Y32486667D01*
X17326651Y32555825D01*
X17355676Y32619381D01*
X17384291Y32643716D01*
X17422731Y32667426D01*
X17542572Y32787267D01*
X17542575Y32787271D01*
X17631542Y32931507D01*
X17631547Y32931518D01*
X17684855Y33092393D01*
X17694999Y33191677D01*
X17695000Y33191690D01*
X17695000Y33240000D01*
X16869000Y33240000D01*
X16801961Y33259685D01*
X16756206Y33312489D01*
X16745000Y33364000D01*
X16745000Y33490000D01*
X16619000Y33490000D01*
X16551961Y33509685D01*
X16506206Y33562489D01*
X16495000Y33614000D01*
X16495000Y34464998D01*
X16995000Y34464998D01*
X16995000Y33740000D01*
X17694999Y33740000D01*
X17694999Y33788307D01*
X17694998Y33788322D01*
X17684855Y33887607D01*
X17634357Y34040000D01*
X26230069Y34040000D01*
X26232832Y34004877D01*
X26232833Y34004871D01*
X26277592Y33850811D01*
X26277593Y33850808D01*
X26359261Y33712714D01*
X26359268Y33712705D01*
X26472705Y33599268D01*
X26472714Y33599261D01*
X26610808Y33517593D01*
X26610811Y33517591D01*
X26749998Y33477153D01*
X26750000Y33477154D01*
X26750000Y34040000D01*
X26230069Y34040000D01*
X17634357Y34040000D01*
X17632588Y34045340D01*
X17632587Y34045341D01*
X17632587Y34045344D01*
X17631547Y34048480D01*
X17631542Y34048492D01*
X17542575Y34192728D01*
X17542572Y34192732D01*
X17422732Y34312572D01*
X17422728Y34312575D01*
X17278492Y34401542D01*
X17278481Y34401547D01*
X17117606Y34454855D01*
X17018316Y34464999D01*
X16995000Y34464998D01*
X16495000Y34464998D01*
X16495000Y34464999D01*
X16471692Y34464999D01*
X16471677Y34464998D01*
X16372392Y34454855D01*
X16211518Y34401547D01*
X16211507Y34401542D01*
X16067271Y34312575D01*
X16067267Y34312572D01*
X15947427Y34192732D01*
X15947424Y34192728D01*
X15885392Y34092159D01*
X15833444Y34045434D01*
X15764482Y34034213D01*
X15711376Y34053879D01*
X15700987Y34060760D01*
X15673220Y34088528D01*
X15611907Y34119768D01*
X15606022Y34123667D01*
X15587879Y34145200D01*
X15567409Y34164534D01*
X15565431Y34171843D01*
X15561003Y34177100D01*
X15558234Y34198451D01*
X15550500Y34227044D01*
X15550500Y34286385D01*
X15570185Y34353424D01*
X15586819Y34374066D01*
X16132766Y34920013D01*
X19515001Y34920013D01*
X19525494Y34817302D01*
X19580641Y34650880D01*
X19580643Y34650875D01*
X19672684Y34501654D01*
X19796654Y34377684D01*
X19945875Y34285643D01*
X19945880Y34285641D01*
X20112302Y34230494D01*
X20112309Y34230493D01*
X20215013Y34220000D01*
X20490000Y34220000D01*
X20990000Y34220000D01*
X21264970Y34220000D01*
X21264987Y34220001D01*
X21367697Y34230494D01*
X21534119Y34285641D01*
X21534124Y34285643D01*
X21683345Y34377684D01*
X21807315Y34501654D01*
X21830967Y34540000D01*
X26230069Y34540000D01*
X26750000Y34540000D01*
X26750000Y35102844D01*
X26610805Y35062404D01*
X26472714Y34980738D01*
X26472705Y34980731D01*
X26359268Y34867294D01*
X26359261Y34867285D01*
X26277593Y34729191D01*
X26277592Y34729188D01*
X26232833Y34575128D01*
X26232832Y34575122D01*
X26230069Y34540000D01*
X21830967Y34540000D01*
X21843768Y34560753D01*
X21899356Y34650875D01*
X21899358Y34650880D01*
X21954505Y34817302D01*
X21954506Y34817309D01*
X21964999Y34920013D01*
X21965000Y34920026D01*
X21965000Y34970000D01*
X20990000Y34970000D01*
X20990000Y34220000D01*
X20490000Y34220000D01*
X20490000Y34970000D01*
X19515001Y34970000D01*
X19515001Y34920013D01*
X16132766Y34920013D01*
X17302895Y36090142D01*
X17364218Y36123627D01*
X17433910Y36118643D01*
X17438028Y36117022D01*
X17503575Y36089871D01*
X17503587Y36089868D01*
X17706530Y36049500D01*
X17706535Y36049500D01*
X17913469Y36049500D01*
X18116412Y36089868D01*
X18116420Y36089870D01*
X18307596Y36169058D01*
X18307598Y36169059D01*
X18428535Y36249866D01*
X18479657Y36284024D01*
X18625975Y36430342D01*
X18635663Y36444841D01*
X18740941Y36602402D01*
X18746773Y36616482D01*
X18776378Y36687953D01*
X18820219Y36742356D01*
X18886514Y36764421D01*
X18890939Y36764500D01*
X19736650Y36764500D01*
X19803689Y36744815D01*
X19849444Y36692011D01*
X19853692Y36681453D01*
X19862205Y36657120D01*
X19862206Y36657118D01*
X19942850Y36547850D01*
X20052117Y36467207D01*
X20116033Y36444842D01*
X20172808Y36404120D01*
X20198555Y36339167D01*
X20185098Y36270605D01*
X20136711Y36220203D01*
X20114081Y36210095D01*
X19945880Y36154358D01*
X19945875Y36154356D01*
X19796654Y36062315D01*
X19672684Y35938345D01*
X19580643Y35789124D01*
X19580641Y35789119D01*
X19525494Y35622697D01*
X19525493Y35622690D01*
X19515000Y35519986D01*
X19515000Y35470000D01*
X21964999Y35470000D01*
X21964999Y35519971D01*
X21964998Y35519986D01*
X21954505Y35622697D01*
X21899358Y35789119D01*
X21899356Y35789124D01*
X21807315Y35938345D01*
X21683345Y36062315D01*
X21534124Y36154356D01*
X21534117Y36154359D01*
X21365918Y36210094D01*
X21308473Y36249866D01*
X21281649Y36314382D01*
X21293964Y36383158D01*
X21341506Y36434358D01*
X21363965Y36444841D01*
X21427882Y36467207D01*
X21508976Y36527057D01*
X21537150Y36547850D01*
X21617793Y36657118D01*
X21640754Y36722736D01*
X21662646Y36785298D01*
X21662646Y36785300D01*
X21665500Y36815730D01*
X21665500Y37424269D01*
X21662646Y37454699D01*
X21662646Y37454701D01*
X21634588Y37534885D01*
X21631037Y37545029D01*
X21622387Y37569752D01*
X25624500Y37569752D01*
X25624500Y35830247D01*
X25636131Y35771770D01*
X25636132Y35771769D01*
X25680447Y35705447D01*
X25746769Y35661132D01*
X25746770Y35661131D01*
X25805247Y35649500D01*
X25805252Y35649500D01*
X27544752Y35649500D01*
X27603229Y35661131D01*
X27603230Y35661132D01*
X27669552Y35705447D01*
X27713867Y35771769D01*
X27713868Y35771770D01*
X27725499Y35830247D01*
X27725500Y35830249D01*
X27725500Y36133951D01*
X27745185Y36200990D01*
X27797989Y36246745D01*
X27867147Y36256689D01*
X27930703Y36227664D01*
X27960938Y36185736D01*
X27961694Y36186121D01*
X28060380Y35992439D01*
X28099727Y35938282D01*
X28099728Y35938282D01*
X28732037Y36570591D01*
X28749075Y36507007D01*
X28814901Y36392993D01*
X28907993Y36299901D01*
X29022007Y36234075D01*
X29085591Y36217037D01*
X28453282Y35584728D01*
X28453282Y35584727D01*
X28507439Y35545380D01*
X28696782Y35448904D01*
X28898870Y35383242D01*
X29108754Y35350000D01*
X29321246Y35350000D01*
X29531127Y35383242D01*
X29531130Y35383242D01*
X29733217Y35448904D01*
X29922550Y35545375D01*
X29976716Y35584728D01*
X29940156Y35621288D01*
X33649500Y35621288D01*
X33649500Y35378711D01*
X33681161Y35138214D01*
X33743947Y34903895D01*
X33836773Y34679794D01*
X33836777Y34679785D01*
X33958067Y34469706D01*
X34105733Y34277263D01*
X34105739Y34277256D01*
X34277256Y34105739D01*
X34277263Y34105733D01*
X34469706Y33958067D01*
X34679785Y33836777D01*
X34679794Y33836773D01*
X34903895Y33743947D01*
X35138214Y33681161D01*
X35378711Y33649500D01*
X35378712Y33649500D01*
X35621289Y33649500D01*
X35861785Y33681161D01*
X36096104Y33743947D01*
X36320205Y33836773D01*
X36320214Y33836777D01*
X36446338Y33909595D01*
X36530289Y33958064D01*
X36541191Y33966429D01*
X36722736Y34105733D01*
X36722743Y34105739D01*
X36894260Y34277256D01*
X36894266Y34277263D01*
X36989632Y34401547D01*
X37041936Y34469711D01*
X37163224Y34679788D01*
X37256054Y34903900D01*
X37318838Y35138211D01*
X37350500Y35378712D01*
X37350500Y35621288D01*
X37318838Y35861789D01*
X37256054Y36096100D01*
X37163224Y36320212D01*
X37041936Y36530289D01*
X36894265Y36722738D01*
X36722738Y36894265D01*
X36530289Y37041936D01*
X36320212Y37163224D01*
X36096100Y37256054D01*
X35861789Y37318838D01*
X35669388Y37344167D01*
X35621289Y37350500D01*
X35621288Y37350500D01*
X35378712Y37350500D01*
X35378711Y37350500D01*
X35318586Y37342584D01*
X35138211Y37318838D01*
X34903900Y37256054D01*
X34679788Y37163224D01*
X34469711Y37041936D01*
X34436080Y37016130D01*
X34277263Y36894266D01*
X34277256Y36894260D01*
X34105739Y36722743D01*
X34105733Y36722736D01*
X34006103Y36592895D01*
X33958064Y36530289D01*
X33859533Y36359628D01*
X33836777Y36320214D01*
X33836773Y36320205D01*
X33743947Y36096104D01*
X33742277Y36089871D01*
X33683102Y35869027D01*
X33681161Y35861785D01*
X33649500Y35621288D01*
X29940156Y35621288D01*
X29344409Y36217037D01*
X29407993Y36234075D01*
X29522007Y36299901D01*
X29615099Y36392993D01*
X29680925Y36507007D01*
X29697962Y36570590D01*
X30330269Y35938282D01*
X30330270Y35938282D01*
X30369624Y35992449D01*
X30466095Y36181782D01*
X30531757Y36383869D01*
X30531757Y36383872D01*
X30565000Y36593753D01*
X30565000Y36806246D01*
X30531757Y37016127D01*
X30531757Y37016130D01*
X30466095Y37218217D01*
X30369622Y37407554D01*
X30330270Y37461716D01*
X30330270Y37461717D01*
X29697962Y36829409D01*
X29680925Y36892993D01*
X29615099Y37007007D01*
X29522007Y37100099D01*
X29407993Y37165925D01*
X29344408Y37182962D01*
X29976717Y37815270D01*
X29922554Y37854622D01*
X29733217Y37951095D01*
X29531129Y38016757D01*
X29321246Y38050000D01*
X29108754Y38050000D01*
X28898872Y38016757D01*
X28898869Y38016757D01*
X28696782Y37951095D01*
X28507449Y37854624D01*
X28453282Y37815270D01*
X28453282Y37815269D01*
X29085590Y37182962D01*
X29022007Y37165925D01*
X28907993Y37100099D01*
X28814901Y37007007D01*
X28749075Y36892993D01*
X28732037Y36829408D01*
X28099728Y37461716D01*
X28060375Y37407550D01*
X27961694Y37213879D01*
X27960678Y37214396D01*
X27920221Y37164192D01*
X27853927Y37142127D01*
X27786228Y37159406D01*
X27738617Y37210542D01*
X27725500Y37266048D01*
X27725500Y37569750D01*
X27725499Y37569752D01*
X27713868Y37628229D01*
X27713867Y37628230D01*
X27713867Y37628231D01*
X27669552Y37694552D01*
X27603231Y37738867D01*
X27603229Y37738867D01*
X27603229Y37738868D01*
X27559568Y37747552D01*
X27544751Y37750499D01*
X27544751Y37750500D01*
X27544748Y37750500D01*
X25805252Y37750500D01*
X25805249Y37750500D01*
X25805247Y37750499D01*
X25746770Y37738868D01*
X25746769Y37738867D01*
X25680447Y37694552D01*
X25636132Y37628230D01*
X25636131Y37628229D01*
X25624500Y37569752D01*
X21622387Y37569752D01*
X21617793Y37582882D01*
X21537150Y37692150D01*
X21427882Y37772793D01*
X21342426Y37802695D01*
X21299700Y37817646D01*
X21269270Y37820500D01*
X21269266Y37820500D01*
X20210734Y37820500D01*
X20210730Y37820500D01*
X20180300Y37817646D01*
X20180298Y37817646D01*
X20084163Y37784006D01*
X20052118Y37772793D01*
X19942850Y37692150D01*
X19883332Y37611506D01*
X19862206Y37582881D01*
X19862205Y37582879D01*
X19853692Y37558547D01*
X19812972Y37501771D01*
X19748019Y37476022D01*
X19736650Y37475500D01*
X18874370Y37475500D01*
X18807331Y37495185D01*
X18761576Y37547989D01*
X18759809Y37552047D01*
X18759223Y37553460D01*
X18740941Y37597598D01*
X18625977Y37769655D01*
X18479655Y37915977D01*
X18307598Y38030941D01*
X18116420Y38110130D01*
X17913467Y38150499D01*
X17913466Y38150500D01*
X17913465Y38150500D01*
X17706535Y38150500D01*
X17706534Y38150500D01*
X17706530Y38150499D01*
X17503580Y38110130D01*
X17312402Y38030941D01*
X17192903Y37951095D01*
X17140342Y37915975D01*
X16994024Y37769657D01*
X16936541Y37683626D01*
X16887474Y37610191D01*
X16879058Y37597596D01*
X16799870Y37406420D01*
X16799868Y37406412D01*
X16759500Y37203469D01*
X16759500Y36996530D01*
X16799868Y36793587D01*
X16799871Y36793575D01*
X16827022Y36728028D01*
X16834491Y36658559D01*
X16803216Y36596080D01*
X16800142Y36592895D01*
X14976718Y34769471D01*
X14910529Y34703282D01*
X14896968Y34679794D01*
X14863726Y34622219D01*
X14863726Y34622218D01*
X14841697Y34540000D01*
X14839500Y34531802D01*
X14839500Y34227044D01*
X14819815Y34160005D01*
X14793104Y34130330D01*
X14783158Y34122349D01*
X14716780Y34088528D01*
X14621472Y33993220D01*
X14620947Y33992190D01*
X14613104Y33985897D01*
X14586811Y33975070D01*
X14561858Y33961445D01*
X14554924Y33961940D01*
X14548497Y33959294D01*
X14520525Y33964400D01*
X14492166Y33966429D01*
X14486601Y33970594D01*
X14479764Y33971843D01*
X14458994Y33991261D01*
X14436233Y34008301D01*
X14433804Y34014813D01*
X14428726Y34019561D01*
X14421752Y34047124D01*
X14411816Y34073765D01*
X14411500Y34082611D01*
X14411500Y35896883D01*
X14431185Y35963922D01*
X14447819Y35984564D01*
X14616467Y36153212D01*
X14677790Y36186697D01*
X14747482Y36181713D01*
X14766939Y36171755D01*
X14767032Y36171929D01*
X14772400Y36169059D01*
X14963579Y36089870D01*
X14963587Y36089868D01*
X15166530Y36049500D01*
X15166535Y36049500D01*
X15373469Y36049500D01*
X15576412Y36089868D01*
X15576420Y36089870D01*
X15767596Y36169058D01*
X15767598Y36169059D01*
X15888535Y36249866D01*
X15939657Y36284024D01*
X16085975Y36430342D01*
X16095663Y36444841D01*
X16200941Y36602402D01*
X16280130Y36793580D01*
X16320500Y36996535D01*
X16320500Y37203465D01*
X16280130Y37406420D01*
X16200941Y37597598D01*
X16085977Y37769655D01*
X15939655Y37915977D01*
X15767598Y38030941D01*
X15576420Y38110130D01*
X15373467Y38150499D01*
X15373466Y38150500D01*
X15373465Y38150500D01*
X15166535Y38150500D01*
X15166534Y38150500D01*
X15166530Y38150499D01*
X14963580Y38110130D01*
X14772402Y38030941D01*
X14652903Y37951095D01*
X14600342Y37915975D01*
X14454024Y37769657D01*
X14396541Y37683626D01*
X14347474Y37610191D01*
X14339058Y37597596D01*
X14259870Y37406420D01*
X14259868Y37406412D01*
X14219500Y37203469D01*
X14219500Y36996530D01*
X14261058Y36787606D01*
X14259425Y36787281D01*
X14259963Y36725404D01*
X14228368Y36671623D01*
X14007681Y36450936D01*
X13999745Y36446602D01*
X13994327Y36439362D01*
X13969555Y36430118D01*
X13946358Y36417451D01*
X13937340Y36418095D01*
X13928867Y36414934D01*
X13903033Y36420549D01*
X13876666Y36422435D01*
X13867621Y36428246D01*
X13860591Y36429775D01*
X13850956Y36436987D01*
X13849991Y36437271D01*
X13842313Y36443457D01*
X13832405Y36450875D01*
X13832334Y36450921D01*
X13832319Y36450936D01*
X13725357Y36557897D01*
X13691874Y36619218D01*
X13696858Y36688910D01*
X13698450Y36692958D01*
X13740130Y36793580D01*
X13780500Y36996535D01*
X13780500Y37203465D01*
X13740130Y37406420D01*
X13660941Y37597598D01*
X13545977Y37769655D01*
X13399655Y37915977D01*
X13227598Y38030941D01*
X13036420Y38110130D01*
X12833467Y38150499D01*
X12833466Y38150500D01*
X12833465Y38150500D01*
X12626535Y38150500D01*
X12626534Y38150500D01*
X12626530Y38150499D01*
X12423580Y38110130D01*
X12232402Y38030941D01*
X12112903Y37951095D01*
X12060342Y37915975D01*
X11914024Y37769657D01*
X11914023Y37769655D01*
X11799059Y37597598D01*
X11799058Y37597596D01*
X11799057Y37597594D01*
X11778561Y37548112D01*
X11734721Y37493708D01*
X11668427Y37471643D01*
X11600727Y37488922D01*
X11553116Y37540059D01*
X11540000Y37595564D01*
X11540000Y37997827D01*
X11539999Y37997844D01*
X11533598Y38057372D01*
X11533596Y38057379D01*
X11483354Y38192086D01*
X11483350Y38192093D01*
X11397190Y38307187D01*
X11397187Y38307190D01*
X11282093Y38393350D01*
X11282086Y38393354D01*
X11147379Y38443596D01*
X11147372Y38443598D01*
X11087844Y38449999D01*
X11087828Y38450000D01*
X10440000Y38450000D01*
X10440000Y37533012D01*
X10382993Y37565925D01*
X10255826Y37600000D01*
X10124174Y37600000D01*
X9997007Y37565925D01*
X9940000Y37533012D01*
X9940000Y38450000D01*
X9292172Y38450000D01*
X9292155Y38449999D01*
X9232627Y38443598D01*
X9232620Y38443596D01*
X9097913Y38393354D01*
X9097906Y38393350D01*
X8982812Y38307190D01*
X8982809Y38307187D01*
X8896649Y38192093D01*
X8896645Y38192086D01*
X8846403Y38057379D01*
X8846401Y38057372D01*
X8840000Y37997844D01*
X8840000Y37350000D01*
X9756988Y37350000D01*
X9724075Y37292993D01*
X9690000Y37165826D01*
X9690000Y37034174D01*
X9724075Y36907007D01*
X9756988Y36850000D01*
X8840000Y36850000D01*
X8840000Y36202155D01*
X8846401Y36142627D01*
X8846403Y36142620D01*
X8896645Y36007913D01*
X8896649Y36007906D01*
X8982809Y35892812D01*
X8982812Y35892809D01*
X9097906Y35806649D01*
X9097913Y35806645D01*
X9232620Y35756403D01*
X9232627Y35756401D01*
X9292155Y35750000D01*
X9940000Y35750000D01*
X9940000Y36666988D01*
X9997007Y36634075D01*
X10124174Y36600000D01*
X10255826Y36600000D01*
X10382993Y36634075D01*
X10440000Y36666988D01*
X10440000Y35750000D01*
X11087844Y35750000D01*
X11147372Y35756401D01*
X11147379Y35756403D01*
X11282086Y35806645D01*
X11282093Y35806649D01*
X11397187Y35892809D01*
X11397190Y35892812D01*
X11483350Y36007906D01*
X11483354Y36007913D01*
X11533596Y36142620D01*
X11533598Y36142627D01*
X11539999Y36202155D01*
X11540000Y36202172D01*
X11540000Y36604435D01*
X11559685Y36671474D01*
X11612489Y36717229D01*
X11681647Y36727173D01*
X11745203Y36698148D01*
X11778561Y36651888D01*
X11799058Y36602403D01*
X11914024Y36430342D01*
X12060342Y36284024D01*
X12232403Y36169058D01*
X12423579Y36089870D01*
X12423587Y36089868D01*
X12626530Y36049500D01*
X12626535Y36049500D01*
X12833469Y36049500D01*
X13036412Y36089868D01*
X13036420Y36089870D01*
X13037077Y36090142D01*
X13136969Y36131519D01*
X13156846Y36133656D01*
X13175576Y36140642D01*
X13190872Y36137314D01*
X13206439Y36138988D01*
X13224316Y36130039D01*
X13243849Y36125790D01*
X13266137Y36109104D01*
X13268918Y36107713D01*
X13272103Y36104639D01*
X13293181Y36083561D01*
X13326666Y36022238D01*
X13329500Y35995880D01*
X13329500Y32698668D01*
X13309815Y32631629D01*
X13257011Y32585874D01*
X13187853Y32575930D01*
X13181308Y32577051D01*
X13152995Y32582683D01*
X13152992Y32582683D01*
X13050381Y32562272D01*
X13050379Y32562271D01*
X13050377Y32562271D01*
X12991312Y32522805D01*
X12985339Y32518814D01*
X12860321Y32393795D01*
X12816865Y32328759D01*
X12816864Y32328758D01*
X12813113Y32309896D01*
X12780728Y32247985D01*
X12720013Y32213411D01*
X12715720Y32212476D01*
X12696824Y32208718D01*
X12696822Y32208717D01*
X12631788Y32165263D01*
X12506768Y32040242D01*
X12463312Y31975206D01*
X12459559Y31956339D01*
X12427172Y31894429D01*
X12366456Y31859856D01*
X12362164Y31858922D01*
X12343270Y31855164D01*
X12343268Y31855163D01*
X12278234Y31811709D01*
X12153214Y31686688D01*
X12109758Y31621652D01*
X12109757Y31621651D01*
X12106006Y31602789D01*
X12073621Y31540878D01*
X12012906Y31506304D01*
X12008613Y31505369D01*
X11989717Y31501611D01*
X11989715Y31501610D01*
X11924681Y31458156D01*
X11799661Y31333135D01*
X11756205Y31268099D01*
X11756204Y31268098D01*
X11752453Y31249236D01*
X11720068Y31187325D01*
X11659353Y31152751D01*
X11655060Y31151816D01*
X11636164Y31148058D01*
X11636162Y31148057D01*
X11571128Y31104603D01*
X11446108Y30979582D01*
X11402652Y30914546D01*
X11398899Y30895679D01*
X11366512Y30833769D01*
X11305796Y30799196D01*
X11301504Y30798262D01*
X11282610Y30794504D01*
X11282608Y30794503D01*
X11217574Y30751049D01*
X11092554Y30626028D01*
X11092552Y30626025D01*
X11086474Y30616930D01*
X11032860Y30572127D01*
X10963535Y30563423D01*
X10900508Y30593580D01*
X10874713Y30626088D01*
X10794759Y30771523D01*
X10794752Y30771534D01*
X10771873Y30798319D01*
X10315132Y30341578D01*
X10253809Y30308093D01*
X10184117Y30313077D01*
X10139770Y30341578D01*
X10050674Y30430674D01*
X9961578Y30341578D01*
X9900255Y30308093D01*
X9830563Y30313077D01*
X9786216Y30341578D01*
X9299128Y30828665D01*
X9229299Y30701648D01*
X9189400Y30546253D01*
X9189400Y30385807D01*
X9192251Y30374704D01*
X9189856Y30304875D01*
X9150088Y30247426D01*
X9131788Y30235154D01*
X9123736Y30230736D01*
X9123734Y30230734D01*
X9123732Y30230734D01*
X9084637Y30200735D01*
X9084633Y30200731D01*
X9084629Y30200728D01*
X8838123Y29954222D01*
X8838119Y29954217D01*
X8838117Y29954215D01*
X8824908Y29937001D01*
X8808117Y29915119D01*
X8766036Y29799499D01*
X8724610Y29743235D01*
X8659341Y29718299D01*
X8590953Y29732609D01*
X8561839Y29754222D01*
X8417575Y29898487D01*
X8335961Y29957783D01*
X8207773Y29999434D01*
X8072987Y29999434D01*
X7944800Y29957783D01*
X7944797Y29957781D01*
X7939889Y29954215D01*
X7863186Y29898487D01*
X7863183Y29898484D01*
X7497631Y29532932D01*
X7497626Y29532926D01*
X7444060Y29459198D01*
X7438333Y29451316D01*
X7426845Y29415961D01*
X7396682Y29323130D01*
X7396682Y29296324D01*
X7376997Y29229285D01*
X7324193Y29183530D01*
X7255035Y29173586D01*
X7244085Y29175667D01*
X7129106Y29202918D01*
X6959626Y29202918D01*
X6794707Y29163831D01*
X6643263Y29087773D01*
X6643256Y29087768D01*
X6565878Y29024735D01*
X6565865Y29024723D01*
X6549389Y29008247D01*
X7238819Y28318819D01*
X7928246Y27629390D01*
X7928247Y27629390D01*
X7944730Y27645873D01*
X7944744Y27645889D01*
X8007768Y27723256D01*
X8007773Y27723263D01*
X8083831Y27874707D01*
X8122918Y28039625D01*
X8122918Y28209103D01*
X8095667Y28324086D01*
X8099361Y28393858D01*
X8140190Y28450557D01*
X8191648Y28474202D01*
X8203861Y28476682D01*
X8243129Y28476682D01*
X8308568Y28497944D01*
X8315493Y28499351D01*
X8343549Y28496953D01*
X8371693Y28497757D01*
X8378260Y28493986D01*
X8385109Y28493401D01*
X8402163Y28480261D01*
X8427850Y28465513D01*
X8477464Y28415900D01*
X8477202Y28415637D01*
X8492343Y28400497D01*
X8494501Y28397684D01*
X8587683Y28304502D01*
X8587686Y28304500D01*
X8701812Y28238608D01*
X8829108Y28204500D01*
X8841385Y28204500D01*
X8908424Y28184815D01*
X8929066Y28168181D01*
X9265631Y27831616D01*
X9265640Y27831610D01*
X9351440Y27782071D01*
X9351467Y27782066D01*
X9351522Y27782024D01*
X9353735Y27780747D01*
X9353582Y27780482D01*
X9379721Y27760915D01*
X9423006Y27717631D01*
X9456492Y27656308D01*
X9451508Y27586617D01*
X9423007Y27542268D01*
X8971238Y27090498D01*
X8971232Y27090490D01*
X8927778Y27025460D01*
X8927777Y27025458D01*
X8907367Y26922844D01*
X8907367Y26922839D01*
X8927777Y26820229D01*
X8927778Y26820226D01*
X8971235Y26755187D01*
X9096254Y26630169D01*
X9161288Y26586714D01*
X9161291Y26586713D01*
X9180157Y26582960D01*
X9242067Y26550573D01*
X9271443Y26506510D01*
X9275440Y26496289D01*
X9281332Y26466672D01*
X9295059Y26446127D01*
X9299963Y26433590D01*
X9301881Y26411647D01*
X9308461Y26390631D01*
X9304865Y26377525D01*
X9306049Y26363986D01*
X9295800Y26344489D01*
X9289973Y26323252D01*
X9279863Y26314171D01*
X9273539Y26302141D01*
X9254377Y26291281D01*
X9237992Y26276564D01*
X9224576Y26274390D01*
X9212753Y26267690D01*
X9190760Y26268913D01*
X9169021Y26265392D01*
X9156312Y26270829D01*
X9142991Y26271571D01*
X9126254Y26283691D01*
X9106161Y26292289D01*
X9083690Y26310595D01*
X9083688Y26310596D01*
X8927010Y26389282D01*
X8756409Y26429716D01*
X8581088Y26429716D01*
X8554686Y26423458D01*
X8484914Y26427150D01*
X8428214Y26467978D01*
X8405429Y26515521D01*
X8396035Y26555158D01*
X8319976Y26706603D01*
X8319971Y26706610D01*
X8256939Y26783987D01*
X8256927Y26784001D01*
X8222773Y26818154D01*
X8222772Y26818154D01*
X7727798Y26323180D01*
X7897752Y26153226D01*
X7905774Y26153226D01*
X7949426Y26177062D01*
X8019118Y26172078D01*
X8063465Y26143577D01*
X8739459Y25467583D01*
X8739460Y25467583D01*
X9340500Y26068622D01*
X9340500Y26119796D01*
X9347523Y26143715D01*
X9350455Y26168477D01*
X9357198Y26176663D01*
X9360185Y26186835D01*
X9379023Y26203158D01*
X9394878Y26222406D01*
X9404976Y26225646D01*
X9412989Y26232590D01*
X9437666Y26236138D01*
X9461406Y26243757D01*
X9474159Y26241385D01*
X9482147Y26242534D01*
X9496455Y26239608D01*
X9511000Y26235728D01*
X9514843Y26233161D01*
X9537599Y26228634D01*
X9541470Y26227602D01*
X9568055Y26211439D01*
X9595620Y26197019D01*
X9597655Y26193444D01*
X9601173Y26191306D01*
X9614802Y26163328D01*
X9630192Y26136302D01*
X9631132Y26131986D01*
X9634885Y26113120D01*
X9634885Y26113119D01*
X9678342Y26048080D01*
X9799672Y25926752D01*
X9833157Y25865429D01*
X9828173Y25795737D01*
X9786302Y25739803D01*
X9720838Y25715386D01*
X9711991Y25715070D01*
X9694052Y25715070D01*
X9003917Y25024934D01*
X8942594Y24991449D01*
X8872903Y24996433D01*
X8828554Y25024934D01*
X8739459Y25114029D01*
X8650363Y25024933D01*
X8589040Y24991448D01*
X8519348Y24996432D01*
X8475001Y25024933D01*
X8056853Y25443082D01*
X8048830Y25443082D01*
X8005178Y25419246D01*
X7935486Y25424230D01*
X7891139Y25452731D01*
X7197468Y26146403D01*
X6508039Y26835831D01*
X6491556Y26819348D01*
X6491542Y26819332D01*
X6428518Y26741965D01*
X6428513Y26741958D01*
X6352455Y26590514D01*
X6313369Y26425596D01*
X6313369Y26256118D01*
X6340620Y26141136D01*
X6336926Y26071364D01*
X6296097Y26014665D01*
X6231096Y25989041D01*
X6219962Y25988540D01*
X6193158Y25988540D01*
X6064971Y25946889D01*
X6064968Y25946887D01*
X6037255Y25926752D01*
X5983357Y25887593D01*
X5983354Y25887590D01*
X5617802Y25522038D01*
X5617797Y25522032D01*
X5560437Y25443082D01*
X5558504Y25440422D01*
X5548982Y25411116D01*
X5516853Y25312236D01*
X500500Y25312236D01*
X500500Y27293514D01*
X6567067Y27293514D01*
X6567067Y27293513D01*
X6601223Y27259358D01*
X6601233Y27259349D01*
X6678614Y27196312D01*
X6678617Y27196311D01*
X6682645Y27194288D01*
X6683428Y27194414D01*
X6743311Y27227113D01*
X6813003Y27222129D01*
X6857350Y27193628D01*
X7374244Y26676733D01*
X7374245Y26676733D01*
X7869219Y27171706D01*
X7835062Y27205864D01*
X7835045Y27205879D01*
X7757677Y27268905D01*
X7757670Y27268909D01*
X7753639Y27270932D01*
X7752857Y27270806D01*
X7692975Y27238108D01*
X7623283Y27243092D01*
X7578936Y27271593D01*
X7062041Y27788488D01*
X7062040Y27788488D01*
X6567067Y27293514D01*
X500500Y27293514D01*
X500500Y28244458D01*
X6001166Y28244458D01*
X6001166Y28074980D01*
X6040252Y27910062D01*
X6116310Y27758618D01*
X6116315Y27758611D01*
X6179342Y27681240D01*
X6179357Y27681223D01*
X6213512Y27647067D01*
X6213513Y27647067D01*
X6708488Y28142040D01*
X6708488Y28142041D01*
X6195836Y28654693D01*
X6179353Y28638210D01*
X6179339Y28638194D01*
X6116315Y28560827D01*
X6116310Y28560820D01*
X6040252Y28409376D01*
X6001166Y28244458D01*
X500500Y28244458D01*
X500500Y31182219D01*
X9652681Y31182219D01*
X10050673Y30784227D01*
X10418319Y31151873D01*
X10391534Y31174752D01*
X10391527Y31174757D01*
X10250935Y31252048D01*
X10250929Y31252050D01*
X10095541Y31291947D01*
X10095534Y31291948D01*
X9935100Y31291948D01*
X9935094Y31291947D01*
X9779705Y31252050D01*
X9779697Y31252047D01*
X9652681Y31182219D01*
X500500Y31182219D01*
X500500Y35497128D01*
X500632Y35502855D01*
X506108Y35621288D01*
X2649500Y35621288D01*
X2649500Y35378711D01*
X2681161Y35138214D01*
X2743947Y34903895D01*
X2836773Y34679794D01*
X2836777Y34679785D01*
X2958067Y34469706D01*
X3105733Y34277263D01*
X3105739Y34277256D01*
X3277256Y34105739D01*
X3277263Y34105733D01*
X3469706Y33958067D01*
X3679785Y33836777D01*
X3679794Y33836773D01*
X3903895Y33743947D01*
X4138214Y33681161D01*
X4378711Y33649500D01*
X4378712Y33649500D01*
X4621289Y33649500D01*
X4861785Y33681161D01*
X5096104Y33743947D01*
X5320205Y33836773D01*
X5320214Y33836777D01*
X5446338Y33909595D01*
X5530289Y33958064D01*
X5541191Y33966429D01*
X5722736Y34105733D01*
X5722743Y34105739D01*
X5894260Y34277256D01*
X5894266Y34277263D01*
X5989632Y34401547D01*
X6041936Y34469711D01*
X6163224Y34679788D01*
X6256054Y34903900D01*
X6318838Y35138211D01*
X6350500Y35378712D01*
X6350500Y35621288D01*
X6318838Y35861789D01*
X6256054Y36096100D01*
X6163224Y36320212D01*
X6041936Y36530289D01*
X5894265Y36722738D01*
X5851177Y36765826D01*
X5803323Y36813681D01*
X5722743Y36894260D01*
X5722738Y36894265D01*
X5530289Y37041936D01*
X5320212Y37163224D01*
X5096100Y37256054D01*
X4861789Y37318838D01*
X4669388Y37344167D01*
X4621289Y37350500D01*
X4621288Y37350500D01*
X4378712Y37350500D01*
X4378711Y37350500D01*
X4318586Y37342584D01*
X4138211Y37318838D01*
X3903900Y37256054D01*
X3679788Y37163224D01*
X3469711Y37041936D01*
X3436080Y37016130D01*
X3277263Y36894266D01*
X3277256Y36894260D01*
X3105739Y36722743D01*
X3105733Y36722736D01*
X3006103Y36592895D01*
X2958064Y36530289D01*
X2859533Y36359628D01*
X2836777Y36320214D01*
X2836773Y36320205D01*
X2743947Y36096104D01*
X2742277Y36089871D01*
X2683102Y35869027D01*
X2681161Y35861785D01*
X2649500Y35621288D01*
X506108Y35621288D01*
X506560Y35631074D01*
X513064Y35771769D01*
X517296Y35863309D01*
X518353Y35874708D01*
X520878Y35892809D01*
X567808Y36229238D01*
X569912Y36240490D01*
X571383Y36246745D01*
X651867Y36588944D01*
X654994Y36599934D01*
X768761Y36939368D01*
X772889Y36950022D01*
X917482Y37277496D01*
X922581Y37287735D01*
X1079662Y37569750D01*
X1096764Y37600453D01*
X1102793Y37610191D01*
X1270233Y37854624D01*
X1305096Y37905517D01*
X1311983Y37914637D01*
X1540671Y38190036D01*
X1548386Y38198499D01*
X1801500Y38451613D01*
X1809964Y38459329D01*
X2085346Y38688003D01*
X2094486Y38694906D01*
X2389808Y38897206D01*
X2399546Y38903235D01*
X2643130Y39038911D01*
X2712268Y39077420D01*
X2722511Y39082520D01*
X3049965Y39227105D01*
X3060644Y39231243D01*
X3400052Y39345001D01*
X3411068Y39348135D01*
X3759509Y39430087D01*
X3770768Y39432192D01*
X4125291Y39481646D01*
X4136695Y39482703D01*
X4497145Y39499368D01*
X4502872Y39499500D01*
X4565892Y39499500D01*
X35434108Y39499500D01*
X35497128Y39499500D01*
X35502855Y39499368D01*
G37*
%TD.AperFunction*%
%TD*%
D52*
X24510000Y18820000D03*
X25330000Y13420000D03*
X10990000Y19600000D03*
X11620000Y18960000D03*
X12340000Y18340000D03*
X13100000Y14460000D03*
X13100000Y15570000D03*
X13100000Y16670000D03*
X13110000Y17720000D03*
X18330000Y11610000D03*
X25370000Y11670000D03*
X33780000Y14690000D03*
X20230000Y21200000D03*
X15670000Y16390000D03*
X19160000Y21220000D03*
X33790000Y13750000D03*
X16590000Y13220000D03*
X21690000Y20020000D03*
X18780000Y26270000D03*
X18340000Y17230000D03*
X27625309Y12103319D03*
X21810000Y24740000D03*
X19180000Y20310000D03*
X18224293Y25675707D03*
X8895000Y28705000D03*
X15190000Y32460000D03*
X24740000Y30290000D03*
X13610000Y18580000D03*
X19520000Y29020000D03*
X18135744Y30400253D03*
X17338014Y30340000D03*
X18802116Y29724088D03*
X24790000Y10550000D03*
X30920000Y10550000D03*
X19360000Y10550000D03*
X35880000Y17470000D03*
X23710000Y9550000D03*
X20310000Y9550000D03*
D53*
X5660000Y11700000D03*
X5660000Y14200000D03*
X5660000Y16700000D03*
X5660000Y19200000D03*
X4500000Y4500000D03*
X34360000Y28270000D03*
X34360000Y25770000D03*
X34360000Y23270000D03*
X34360000Y20770000D03*
X28590000Y25215000D03*
X26050000Y25215000D03*
X35500000Y4500000D03*
X4500000Y35500000D03*
X26675000Y36700000D03*
X29215000Y36700000D03*
X23830000Y5632500D03*
X21330000Y5632500D03*
X18830000Y5632500D03*
X16330000Y5632500D03*
X10190000Y37100000D03*
X12730000Y37100000D03*
X15270000Y37100000D03*
X17810000Y37100000D03*
X35500000Y35500000D03*
M02*
