%TF.GenerationSoftware,KiCad,Pcbnew,9.0.2-9.0.2-0~ubuntu22.04.1*%
%TF.CreationDate,2025-05-11T10:39:50+03:00*%
%TF.ProjectId,steper-motor-unit,73746570-6572-42d6-9d6f-746f722d756e,rev?*%
%TF.SameCoordinates,Original*%
%TF.FileFunction,Legend,Bot*%
%TF.FilePolarity,Positive*%
%FSLAX46Y46*%
G04 Gerber Fmt 4.6, Leading zero omitted, Abs format (unit mm)*
G04 Created by KiCad (PCBNEW 9.0.2-9.0.2-0~ubuntu22.04.1) date 2025-05-11 10:39:50*
%MOMM*%
%LPD*%
G01*
G04 APERTURE LIST*
%ADD10C,0.100000*%
%ADD11C,0.150000*%
%ADD12C,0.120000*%
%ADD13C,0.350000*%
G04 APERTURE END LIST*
D10*
X37611904Y12852580D02*
X37611904Y12043057D01*
X37611904Y12043057D02*
X37564285Y11947819D01*
X37564285Y11947819D02*
X37516666Y11900200D01*
X37516666Y11900200D02*
X37421428Y11852580D01*
X37421428Y11852580D02*
X37230952Y11852580D01*
X37230952Y11852580D02*
X37135714Y11900200D01*
X37135714Y11900200D02*
X37088095Y11947819D01*
X37088095Y11947819D02*
X37040476Y12043057D01*
X37040476Y12043057D02*
X37040476Y12852580D01*
X36040476Y11852580D02*
X36611904Y11852580D01*
X36326190Y11852580D02*
X36326190Y12852580D01*
X36326190Y12852580D02*
X36421428Y12709723D01*
X36421428Y12709723D02*
X36516666Y12614485D01*
X36516666Y12614485D02*
X36611904Y12566866D01*
D11*
X26709580Y14326666D02*
X26757200Y14374285D01*
X26757200Y14374285D02*
X26804819Y14517142D01*
X26804819Y14517142D02*
X26804819Y14612380D01*
X26804819Y14612380D02*
X26757200Y14755237D01*
X26757200Y14755237D02*
X26661961Y14850475D01*
X26661961Y14850475D02*
X26566723Y14898094D01*
X26566723Y14898094D02*
X26376247Y14945713D01*
X26376247Y14945713D02*
X26233390Y14945713D01*
X26233390Y14945713D02*
X26042914Y14898094D01*
X26042914Y14898094D02*
X25947676Y14850475D01*
X25947676Y14850475D02*
X25852438Y14755237D01*
X25852438Y14755237D02*
X25804819Y14612380D01*
X25804819Y14612380D02*
X25804819Y14517142D01*
X25804819Y14517142D02*
X25852438Y14374285D01*
X25852438Y14374285D02*
X25900057Y14326666D01*
X25804819Y13993332D02*
X25804819Y13374285D01*
X25804819Y13374285D02*
X26185771Y13707618D01*
X26185771Y13707618D02*
X26185771Y13564761D01*
X26185771Y13564761D02*
X26233390Y13469523D01*
X26233390Y13469523D02*
X26281009Y13421904D01*
X26281009Y13421904D02*
X26376247Y13374285D01*
X26376247Y13374285D02*
X26614342Y13374285D01*
X26614342Y13374285D02*
X26709580Y13421904D01*
X26709580Y13421904D02*
X26757200Y13469523D01*
X26757200Y13469523D02*
X26804819Y13564761D01*
X26804819Y13564761D02*
X26804819Y13850475D01*
X26804819Y13850475D02*
X26757200Y13945713D01*
X26757200Y13945713D02*
X26709580Y13993332D01*
X24729580Y25252857D02*
X24777200Y25300476D01*
X24777200Y25300476D02*
X24824819Y25443333D01*
X24824819Y25443333D02*
X24824819Y25538571D01*
X24824819Y25538571D02*
X24777200Y25681428D01*
X24777200Y25681428D02*
X24681961Y25776666D01*
X24681961Y25776666D02*
X24586723Y25824285D01*
X24586723Y25824285D02*
X24396247Y25871904D01*
X24396247Y25871904D02*
X24253390Y25871904D01*
X24253390Y25871904D02*
X24062914Y25824285D01*
X24062914Y25824285D02*
X23967676Y25776666D01*
X23967676Y25776666D02*
X23872438Y25681428D01*
X23872438Y25681428D02*
X23824819Y25538571D01*
X23824819Y25538571D02*
X23824819Y25443333D01*
X23824819Y25443333D02*
X23872438Y25300476D01*
X23872438Y25300476D02*
X23920057Y25252857D01*
X24824819Y24300476D02*
X24824819Y24871904D01*
X24824819Y24586190D02*
X23824819Y24586190D01*
X23824819Y24586190D02*
X23967676Y24681428D01*
X23967676Y24681428D02*
X24062914Y24776666D01*
X24062914Y24776666D02*
X24110533Y24871904D01*
X23920057Y23919523D02*
X23872438Y23871904D01*
X23872438Y23871904D02*
X23824819Y23776666D01*
X23824819Y23776666D02*
X23824819Y23538571D01*
X23824819Y23538571D02*
X23872438Y23443333D01*
X23872438Y23443333D02*
X23920057Y23395714D01*
X23920057Y23395714D02*
X24015295Y23348095D01*
X24015295Y23348095D02*
X24110533Y23348095D01*
X24110533Y23348095D02*
X24253390Y23395714D01*
X24253390Y23395714D02*
X24824819Y23967142D01*
X24824819Y23967142D02*
X24824819Y23348095D01*
X24619580Y16387857D02*
X24667200Y16435476D01*
X24667200Y16435476D02*
X24714819Y16578333D01*
X24714819Y16578333D02*
X24714819Y16673571D01*
X24714819Y16673571D02*
X24667200Y16816428D01*
X24667200Y16816428D02*
X24571961Y16911666D01*
X24571961Y16911666D02*
X24476723Y16959285D01*
X24476723Y16959285D02*
X24286247Y17006904D01*
X24286247Y17006904D02*
X24143390Y17006904D01*
X24143390Y17006904D02*
X23952914Y16959285D01*
X23952914Y16959285D02*
X23857676Y16911666D01*
X23857676Y16911666D02*
X23762438Y16816428D01*
X23762438Y16816428D02*
X23714819Y16673571D01*
X23714819Y16673571D02*
X23714819Y16578333D01*
X23714819Y16578333D02*
X23762438Y16435476D01*
X23762438Y16435476D02*
X23810057Y16387857D01*
X24714819Y15435476D02*
X24714819Y16006904D01*
X24714819Y15721190D02*
X23714819Y15721190D01*
X23714819Y15721190D02*
X23857676Y15816428D01*
X23857676Y15816428D02*
X23952914Y15911666D01*
X23952914Y15911666D02*
X24000533Y16006904D01*
X23714819Y15102142D02*
X23714819Y14435476D01*
X23714819Y14435476D02*
X24714819Y14864047D01*
D10*
X20761904Y24042580D02*
X20761904Y23233057D01*
X20761904Y23233057D02*
X20714285Y23137819D01*
X20714285Y23137819D02*
X20666666Y23090200D01*
X20666666Y23090200D02*
X20571428Y23042580D01*
X20571428Y23042580D02*
X20380952Y23042580D01*
X20380952Y23042580D02*
X20285714Y23090200D01*
X20285714Y23090200D02*
X20238095Y23137819D01*
X20238095Y23137819D02*
X20190476Y23233057D01*
X20190476Y23233057D02*
X20190476Y24042580D01*
X19285714Y23709247D02*
X19285714Y23042580D01*
X19523809Y24090200D02*
X19761904Y23375914D01*
X19761904Y23375914D02*
X19142857Y23375914D01*
D11*
X28044819Y14146666D02*
X27568628Y14479999D01*
X28044819Y14718094D02*
X27044819Y14718094D01*
X27044819Y14718094D02*
X27044819Y14337142D01*
X27044819Y14337142D02*
X27092438Y14241904D01*
X27092438Y14241904D02*
X27140057Y14194285D01*
X27140057Y14194285D02*
X27235295Y14146666D01*
X27235295Y14146666D02*
X27378152Y14146666D01*
X27378152Y14146666D02*
X27473390Y14194285D01*
X27473390Y14194285D02*
X27521009Y14241904D01*
X27521009Y14241904D02*
X27568628Y14337142D01*
X27568628Y14337142D02*
X27568628Y14718094D01*
X28044819Y13194285D02*
X28044819Y13765713D01*
X28044819Y13479999D02*
X27044819Y13479999D01*
X27044819Y13479999D02*
X27187676Y13575237D01*
X27187676Y13575237D02*
X27282914Y13670475D01*
X27282914Y13670475D02*
X27330533Y13765713D01*
D10*
X30803333Y8287419D02*
X30327143Y8287419D01*
X30327143Y8287419D02*
X30327143Y7287419D01*
X31660476Y8287419D02*
X31089048Y8287419D01*
X31374762Y8287419D02*
X31374762Y7287419D01*
X31374762Y7287419D02*
X31279524Y7430276D01*
X31279524Y7430276D02*
X31184286Y7525514D01*
X31184286Y7525514D02*
X31089048Y7573133D01*
D11*
X38949580Y13756666D02*
X38997200Y13804285D01*
X38997200Y13804285D02*
X39044819Y13947142D01*
X39044819Y13947142D02*
X39044819Y14042380D01*
X39044819Y14042380D02*
X38997200Y14185237D01*
X38997200Y14185237D02*
X38901961Y14280475D01*
X38901961Y14280475D02*
X38806723Y14328094D01*
X38806723Y14328094D02*
X38616247Y14375713D01*
X38616247Y14375713D02*
X38473390Y14375713D01*
X38473390Y14375713D02*
X38282914Y14328094D01*
X38282914Y14328094D02*
X38187676Y14280475D01*
X38187676Y14280475D02*
X38092438Y14185237D01*
X38092438Y14185237D02*
X38044819Y14042380D01*
X38044819Y14042380D02*
X38044819Y13947142D01*
X38044819Y13947142D02*
X38092438Y13804285D01*
X38092438Y13804285D02*
X38140057Y13756666D01*
X38140057Y13375713D02*
X38092438Y13328094D01*
X38092438Y13328094D02*
X38044819Y13232856D01*
X38044819Y13232856D02*
X38044819Y12994761D01*
X38044819Y12994761D02*
X38092438Y12899523D01*
X38092438Y12899523D02*
X38140057Y12851904D01*
X38140057Y12851904D02*
X38235295Y12804285D01*
X38235295Y12804285D02*
X38330533Y12804285D01*
X38330533Y12804285D02*
X38473390Y12851904D01*
X38473390Y12851904D02*
X39044819Y13423332D01*
X39044819Y13423332D02*
X39044819Y12804285D01*
X19819580Y16417857D02*
X19867200Y16465476D01*
X19867200Y16465476D02*
X19914819Y16608333D01*
X19914819Y16608333D02*
X19914819Y16703571D01*
X19914819Y16703571D02*
X19867200Y16846428D01*
X19867200Y16846428D02*
X19771961Y16941666D01*
X19771961Y16941666D02*
X19676723Y16989285D01*
X19676723Y16989285D02*
X19486247Y17036904D01*
X19486247Y17036904D02*
X19343390Y17036904D01*
X19343390Y17036904D02*
X19152914Y16989285D01*
X19152914Y16989285D02*
X19057676Y16941666D01*
X19057676Y16941666D02*
X18962438Y16846428D01*
X18962438Y16846428D02*
X18914819Y16703571D01*
X18914819Y16703571D02*
X18914819Y16608333D01*
X18914819Y16608333D02*
X18962438Y16465476D01*
X18962438Y16465476D02*
X19010057Y16417857D01*
X19914819Y15465476D02*
X19914819Y16036904D01*
X19914819Y15751190D02*
X18914819Y15751190D01*
X18914819Y15751190D02*
X19057676Y15846428D01*
X19057676Y15846428D02*
X19152914Y15941666D01*
X19152914Y15941666D02*
X19200533Y16036904D01*
X19343390Y14894047D02*
X19295771Y14989285D01*
X19295771Y14989285D02*
X19248152Y15036904D01*
X19248152Y15036904D02*
X19152914Y15084523D01*
X19152914Y15084523D02*
X19105295Y15084523D01*
X19105295Y15084523D02*
X19010057Y15036904D01*
X19010057Y15036904D02*
X18962438Y14989285D01*
X18962438Y14989285D02*
X18914819Y14894047D01*
X18914819Y14894047D02*
X18914819Y14703571D01*
X18914819Y14703571D02*
X18962438Y14608333D01*
X18962438Y14608333D02*
X19010057Y14560714D01*
X19010057Y14560714D02*
X19105295Y14513095D01*
X19105295Y14513095D02*
X19152914Y14513095D01*
X19152914Y14513095D02*
X19248152Y14560714D01*
X19248152Y14560714D02*
X19295771Y14608333D01*
X19295771Y14608333D02*
X19343390Y14703571D01*
X19343390Y14703571D02*
X19343390Y14894047D01*
X19343390Y14894047D02*
X19391009Y14989285D01*
X19391009Y14989285D02*
X19438628Y15036904D01*
X19438628Y15036904D02*
X19533866Y15084523D01*
X19533866Y15084523D02*
X19724342Y15084523D01*
X19724342Y15084523D02*
X19819580Y15036904D01*
X19819580Y15036904D02*
X19867200Y14989285D01*
X19867200Y14989285D02*
X19914819Y14894047D01*
X19914819Y14894047D02*
X19914819Y14703571D01*
X19914819Y14703571D02*
X19867200Y14608333D01*
X19867200Y14608333D02*
X19819580Y14560714D01*
X19819580Y14560714D02*
X19724342Y14513095D01*
X19724342Y14513095D02*
X19533866Y14513095D01*
X19533866Y14513095D02*
X19438628Y14560714D01*
X19438628Y14560714D02*
X19391009Y14608333D01*
X19391009Y14608333D02*
X19343390Y14703571D01*
X23184819Y16487857D02*
X22708628Y16821190D01*
X23184819Y17059285D02*
X22184819Y17059285D01*
X22184819Y17059285D02*
X22184819Y16678333D01*
X22184819Y16678333D02*
X22232438Y16583095D01*
X22232438Y16583095D02*
X22280057Y16535476D01*
X22280057Y16535476D02*
X22375295Y16487857D01*
X22375295Y16487857D02*
X22518152Y16487857D01*
X22518152Y16487857D02*
X22613390Y16535476D01*
X22613390Y16535476D02*
X22661009Y16583095D01*
X22661009Y16583095D02*
X22708628Y16678333D01*
X22708628Y16678333D02*
X22708628Y17059285D01*
X23184819Y15535476D02*
X23184819Y16106904D01*
X23184819Y15821190D02*
X22184819Y15821190D01*
X22184819Y15821190D02*
X22327676Y15916428D01*
X22327676Y15916428D02*
X22422914Y16011666D01*
X22422914Y16011666D02*
X22470533Y16106904D01*
X22280057Y15154523D02*
X22232438Y15106904D01*
X22232438Y15106904D02*
X22184819Y15011666D01*
X22184819Y15011666D02*
X22184819Y14773571D01*
X22184819Y14773571D02*
X22232438Y14678333D01*
X22232438Y14678333D02*
X22280057Y14630714D01*
X22280057Y14630714D02*
X22375295Y14583095D01*
X22375295Y14583095D02*
X22470533Y14583095D01*
X22470533Y14583095D02*
X22613390Y14630714D01*
X22613390Y14630714D02*
X23184819Y15202142D01*
X23184819Y15202142D02*
X23184819Y14583095D01*
X21504819Y16442857D02*
X21028628Y16776190D01*
X21504819Y17014285D02*
X20504819Y17014285D01*
X20504819Y17014285D02*
X20504819Y16633333D01*
X20504819Y16633333D02*
X20552438Y16538095D01*
X20552438Y16538095D02*
X20600057Y16490476D01*
X20600057Y16490476D02*
X20695295Y16442857D01*
X20695295Y16442857D02*
X20838152Y16442857D01*
X20838152Y16442857D02*
X20933390Y16490476D01*
X20933390Y16490476D02*
X20981009Y16538095D01*
X20981009Y16538095D02*
X21028628Y16633333D01*
X21028628Y16633333D02*
X21028628Y17014285D01*
X21504819Y15490476D02*
X21504819Y16061904D01*
X21504819Y15776190D02*
X20504819Y15776190D01*
X20504819Y15776190D02*
X20647676Y15871428D01*
X20647676Y15871428D02*
X20742914Y15966666D01*
X20742914Y15966666D02*
X20790533Y16061904D01*
X20504819Y15157142D02*
X20504819Y14538095D01*
X20504819Y14538095D02*
X20885771Y14871428D01*
X20885771Y14871428D02*
X20885771Y14728571D01*
X20885771Y14728571D02*
X20933390Y14633333D01*
X20933390Y14633333D02*
X20981009Y14585714D01*
X20981009Y14585714D02*
X21076247Y14538095D01*
X21076247Y14538095D02*
X21314342Y14538095D01*
X21314342Y14538095D02*
X21409580Y14585714D01*
X21409580Y14585714D02*
X21457200Y14633333D01*
X21457200Y14633333D02*
X21504819Y14728571D01*
X21504819Y14728571D02*
X21504819Y15014285D01*
X21504819Y15014285D02*
X21457200Y15109523D01*
X21457200Y15109523D02*
X21409580Y15157142D01*
X36936666Y10760419D02*
X36984285Y10712800D01*
X36984285Y10712800D02*
X37127142Y10665180D01*
X37127142Y10665180D02*
X37222380Y10665180D01*
X37222380Y10665180D02*
X37365237Y10712800D01*
X37365237Y10712800D02*
X37460475Y10808038D01*
X37460475Y10808038D02*
X37508094Y10903276D01*
X37508094Y10903276D02*
X37555713Y11093752D01*
X37555713Y11093752D02*
X37555713Y11236609D01*
X37555713Y11236609D02*
X37508094Y11427085D01*
X37508094Y11427085D02*
X37460475Y11522323D01*
X37460475Y11522323D02*
X37365237Y11617561D01*
X37365237Y11617561D02*
X37222380Y11665180D01*
X37222380Y11665180D02*
X37127142Y11665180D01*
X37127142Y11665180D02*
X36984285Y11617561D01*
X36984285Y11617561D02*
X36936666Y11569942D01*
X35984285Y10665180D02*
X36555713Y10665180D01*
X36269999Y10665180D02*
X36269999Y11665180D01*
X36269999Y11665180D02*
X36365237Y11522323D01*
X36365237Y11522323D02*
X36460475Y11427085D01*
X36460475Y11427085D02*
X36555713Y11379466D01*
X14394819Y21656666D02*
X13918628Y21989999D01*
X14394819Y22228094D02*
X13394819Y22228094D01*
X13394819Y22228094D02*
X13394819Y21847142D01*
X13394819Y21847142D02*
X13442438Y21751904D01*
X13442438Y21751904D02*
X13490057Y21704285D01*
X13490057Y21704285D02*
X13585295Y21656666D01*
X13585295Y21656666D02*
X13728152Y21656666D01*
X13728152Y21656666D02*
X13823390Y21704285D01*
X13823390Y21704285D02*
X13871009Y21751904D01*
X13871009Y21751904D02*
X13918628Y21847142D01*
X13918628Y21847142D02*
X13918628Y22228094D01*
X13394819Y21323332D02*
X13394819Y20656666D01*
X13394819Y20656666D02*
X14394819Y21085237D01*
X17254819Y18621666D02*
X16778628Y18954999D01*
X17254819Y19193094D02*
X16254819Y19193094D01*
X16254819Y19193094D02*
X16254819Y18812142D01*
X16254819Y18812142D02*
X16302438Y18716904D01*
X16302438Y18716904D02*
X16350057Y18669285D01*
X16350057Y18669285D02*
X16445295Y18621666D01*
X16445295Y18621666D02*
X16588152Y18621666D01*
X16588152Y18621666D02*
X16683390Y18669285D01*
X16683390Y18669285D02*
X16731009Y18716904D01*
X16731009Y18716904D02*
X16778628Y18812142D01*
X16778628Y18812142D02*
X16778628Y19193094D01*
X16683390Y18050237D02*
X16635771Y18145475D01*
X16635771Y18145475D02*
X16588152Y18193094D01*
X16588152Y18193094D02*
X16492914Y18240713D01*
X16492914Y18240713D02*
X16445295Y18240713D01*
X16445295Y18240713D02*
X16350057Y18193094D01*
X16350057Y18193094D02*
X16302438Y18145475D01*
X16302438Y18145475D02*
X16254819Y18050237D01*
X16254819Y18050237D02*
X16254819Y17859761D01*
X16254819Y17859761D02*
X16302438Y17764523D01*
X16302438Y17764523D02*
X16350057Y17716904D01*
X16350057Y17716904D02*
X16445295Y17669285D01*
X16445295Y17669285D02*
X16492914Y17669285D01*
X16492914Y17669285D02*
X16588152Y17716904D01*
X16588152Y17716904D02*
X16635771Y17764523D01*
X16635771Y17764523D02*
X16683390Y17859761D01*
X16683390Y17859761D02*
X16683390Y18050237D01*
X16683390Y18050237D02*
X16731009Y18145475D01*
X16731009Y18145475D02*
X16778628Y18193094D01*
X16778628Y18193094D02*
X16873866Y18240713D01*
X16873866Y18240713D02*
X17064342Y18240713D01*
X17064342Y18240713D02*
X17159580Y18193094D01*
X17159580Y18193094D02*
X17207200Y18145475D01*
X17207200Y18145475D02*
X17254819Y18050237D01*
X17254819Y18050237D02*
X17254819Y17859761D01*
X17254819Y17859761D02*
X17207200Y17764523D01*
X17207200Y17764523D02*
X17159580Y17716904D01*
X17159580Y17716904D02*
X17064342Y17669285D01*
X17064342Y17669285D02*
X16873866Y17669285D01*
X16873866Y17669285D02*
X16778628Y17716904D01*
X16778628Y17716904D02*
X16731009Y17764523D01*
X16731009Y17764523D02*
X16683390Y17859761D01*
X34074819Y16426666D02*
X33598628Y16759999D01*
X34074819Y16998094D02*
X33074819Y16998094D01*
X33074819Y16998094D02*
X33074819Y16617142D01*
X33074819Y16617142D02*
X33122438Y16521904D01*
X33122438Y16521904D02*
X33170057Y16474285D01*
X33170057Y16474285D02*
X33265295Y16426666D01*
X33265295Y16426666D02*
X33408152Y16426666D01*
X33408152Y16426666D02*
X33503390Y16474285D01*
X33503390Y16474285D02*
X33551009Y16521904D01*
X33551009Y16521904D02*
X33598628Y16617142D01*
X33598628Y16617142D02*
X33598628Y16998094D01*
X33170057Y16045713D02*
X33122438Y15998094D01*
X33122438Y15998094D02*
X33074819Y15902856D01*
X33074819Y15902856D02*
X33074819Y15664761D01*
X33074819Y15664761D02*
X33122438Y15569523D01*
X33122438Y15569523D02*
X33170057Y15521904D01*
X33170057Y15521904D02*
X33265295Y15474285D01*
X33265295Y15474285D02*
X33360533Y15474285D01*
X33360533Y15474285D02*
X33503390Y15521904D01*
X33503390Y15521904D02*
X34074819Y16093332D01*
X34074819Y16093332D02*
X34074819Y15474285D01*
X31231666Y17465180D02*
X31564999Y17941371D01*
X31803094Y17465180D02*
X31803094Y18465180D01*
X31803094Y18465180D02*
X31422142Y18465180D01*
X31422142Y18465180D02*
X31326904Y18417561D01*
X31326904Y18417561D02*
X31279285Y18369942D01*
X31279285Y18369942D02*
X31231666Y18274704D01*
X31231666Y18274704D02*
X31231666Y18131847D01*
X31231666Y18131847D02*
X31279285Y18036609D01*
X31279285Y18036609D02*
X31326904Y17988990D01*
X31326904Y17988990D02*
X31422142Y17941371D01*
X31422142Y17941371D02*
X31803094Y17941371D01*
X30898332Y18465180D02*
X30279285Y18465180D01*
X30279285Y18465180D02*
X30612618Y18084228D01*
X30612618Y18084228D02*
X30469761Y18084228D01*
X30469761Y18084228D02*
X30374523Y18036609D01*
X30374523Y18036609D02*
X30326904Y17988990D01*
X30326904Y17988990D02*
X30279285Y17893752D01*
X30279285Y17893752D02*
X30279285Y17655657D01*
X30279285Y17655657D02*
X30326904Y17560419D01*
X30326904Y17560419D02*
X30374523Y17512800D01*
X30374523Y17512800D02*
X30469761Y17465180D01*
X30469761Y17465180D02*
X30755475Y17465180D01*
X30755475Y17465180D02*
X30850713Y17512800D01*
X30850713Y17512800D02*
X30898332Y17560419D01*
D12*
%TO.C,C3*%
X28315000Y13708748D02*
X28315000Y14231252D01*
X29785000Y13708748D02*
X29785000Y14231252D01*
%TO.C,C12*%
X22310000Y24419420D02*
X22310000Y24700580D01*
X23330000Y24419420D02*
X23330000Y24700580D01*
%TO.C,C17*%
X23830000Y12955580D02*
X23830000Y12674420D01*
X24850000Y12955580D02*
X24850000Y12674420D01*
%TO.C,R1*%
X30150000Y15385000D02*
X31750000Y15385000D01*
X30150000Y12385000D02*
X30150000Y15385000D01*
X31750000Y15385000D02*
X31750000Y12385000D01*
X31750000Y12385000D02*
X30150000Y12385000D01*
%TO.C,C2*%
X36045000Y13871252D02*
X36045000Y13348748D01*
X37515000Y13871252D02*
X37515000Y13348748D01*
%TO.C,C18*%
X18890000Y12945580D02*
X18890000Y12664420D01*
X19910000Y12945580D02*
X19910000Y12664420D01*
%TO.C,R12*%
X21930000Y14320000D02*
X23530000Y14320000D01*
X21930000Y11320000D02*
X21930000Y14320000D01*
X23530000Y14320000D02*
X23530000Y11320000D01*
X23530000Y11320000D02*
X21930000Y11320000D01*
%TO.C,R13*%
X20210000Y14320000D02*
X21810000Y14320000D01*
X20210000Y11320000D02*
X20210000Y14320000D01*
X21810000Y14320000D02*
X21810000Y11320000D01*
X21810000Y11320000D02*
X20210000Y11320000D01*
%TO.C,C1*%
X34440580Y11740000D02*
X34159420Y11740000D01*
X34440580Y10720000D02*
X34159420Y10720000D01*
%TO.C,R7*%
X14847500Y21727258D02*
X14847500Y21252742D01*
X15892500Y21727258D02*
X15892500Y21252742D01*
%TO.C,R8*%
X14847500Y18217742D02*
X14847500Y18692258D01*
X15892500Y18217742D02*
X15892500Y18692258D01*
%TO.C,R2*%
X34350000Y17120000D02*
X37350000Y17120000D01*
X34350000Y15520000D02*
X34350000Y17120000D01*
X37350000Y17120000D02*
X37350000Y15520000D01*
X37350000Y15520000D02*
X34350000Y15520000D01*
%TO.C,R3*%
X29565000Y17220000D02*
X32565000Y17220000D01*
X29565000Y15620000D02*
X29565000Y17220000D01*
X32565000Y17220000D02*
X32565000Y15620000D01*
X32565000Y15620000D02*
X29565000Y15620000D01*
%TD*%
D13*
X5660000Y11700000D03*
X5660000Y14200000D03*
X5660000Y16700000D03*
X5660000Y19200000D03*
X4500000Y4500000D03*
X34360000Y28270000D03*
X34360000Y25770000D03*
X34360000Y23270000D03*
X34360000Y20770000D03*
X28590000Y25215000D03*
X26050000Y25215000D03*
X35500000Y4500000D03*
X4500000Y35500000D03*
X26675000Y36700000D03*
X29215000Y36700000D03*
X23830000Y5632500D03*
X21330000Y5632500D03*
X18830000Y5632500D03*
X16330000Y5632500D03*
X10190000Y37100000D03*
X12730000Y37100000D03*
X15270000Y37100000D03*
X17810000Y37100000D03*
X35500000Y35500000D03*
M02*
