%TF.GenerationSoftware,KiCad,Pcbnew,9.0.2-9.0.2-0~ubuntu22.04.1*%
%TF.CreationDate,2025-05-11T10:39:50+03:00*%
%TF.ProjectId,steper-motor-unit,73746570-6572-42d6-9d6f-746f722d756e,rev?*%
%TF.SameCoordinates,Original*%
%TF.FileFunction,Paste,Bot*%
%TF.FilePolarity,Positive*%
%FSLAX46Y46*%
G04 Gerber Fmt 4.6, Leading zero omitted, Abs format (unit mm)*
G04 Created by KiCad (PCBNEW 9.0.2-9.0.2-0~ubuntu22.04.1) date 2025-05-11 10:39:50*
%MOMM*%
%LPD*%
G01*
G04 APERTURE LIST*
G04 Aperture macros list*
%AMRoundRect*
0 Rectangle with rounded corners*
0 $1 Rounding radius*
0 $2 $3 $4 $5 $6 $7 $8 $9 X,Y pos of 4 corners*
0 Add a 4 corners polygon primitive as box body*
4,1,4,$2,$3,$4,$5,$6,$7,$8,$9,$2,$3,0*
0 Add four circle primitives for the rounded corners*
1,1,$1+$1,$2,$3*
1,1,$1+$1,$4,$5*
1,1,$1+$1,$6,$7*
1,1,$1+$1,$8,$9*
0 Add four rect primitives between the rounded corners*
20,1,$1+$1,$2,$3,$4,$5,0*
20,1,$1+$1,$4,$5,$6,$7,0*
20,1,$1+$1,$6,$7,$8,$9,0*
20,1,$1+$1,$8,$9,$2,$3,0*%
G04 Aperture macros list end*
%ADD10R,1.000000X0.800000*%
%ADD11RoundRect,0.250000X0.475000X-0.250000X0.475000X0.250000X-0.475000X0.250000X-0.475000X-0.250000X0*%
%ADD12RoundRect,0.225000X0.250000X-0.225000X0.250000X0.225000X-0.250000X0.225000X-0.250000X-0.225000X0*%
%ADD13RoundRect,0.225000X-0.250000X0.225000X-0.250000X-0.225000X0.250000X-0.225000X0.250000X0.225000X0*%
%ADD14RoundRect,0.090000X0.760000X-0.210000X0.760000X0.210000X-0.760000X0.210000X-0.760000X-0.210000X0*%
%ADD15RoundRect,0.200000X0.275000X-0.200000X0.275000X0.200000X-0.275000X0.200000X-0.275000X-0.200000X0*%
%ADD16RoundRect,0.120000X-1.230000X-0.280000X1.230000X-0.280000X1.230000X0.280000X-1.230000X0.280000X0*%
%ADD17RoundRect,0.250000X-0.475000X0.250000X-0.475000X-0.250000X0.475000X-0.250000X0.475000X0.250000X0*%
%ADD18RoundRect,0.225000X0.225000X0.250000X-0.225000X0.250000X-0.225000X-0.250000X0.225000X-0.250000X0*%
%ADD19RoundRect,0.200000X-0.275000X0.200000X-0.275000X-0.200000X0.275000X-0.200000X0.275000X0.200000X0*%
%ADD20RoundRect,0.200000X0.200000X0.275000X-0.200000X0.275000X-0.200000X-0.275000X0.200000X-0.275000X0*%
G04 APERTURE END LIST*
D10*
%TO.C,U1*%
X32540000Y12800000D03*
X32540000Y13750000D03*
X32540000Y14700000D03*
X35040000Y14750000D03*
X35040000Y13750000D03*
X35040000Y12800000D03*
%TD*%
D11*
%TO.C,C3*%
X29050000Y13020000D03*
X29050000Y14920000D03*
%TD*%
D12*
%TO.C,C12*%
X22820000Y23785000D03*
X22820000Y25335000D03*
%TD*%
D13*
%TO.C,C17*%
X24340000Y13590000D03*
X24340000Y12040000D03*
%TD*%
D14*
%TO.C,U4*%
X22810000Y21905000D03*
X22810000Y20635000D03*
X22810000Y19365000D03*
X22810000Y18095000D03*
X17190000Y18095000D03*
X17190000Y19365000D03*
X17190000Y20635000D03*
X17190000Y21905000D03*
%TD*%
D15*
%TO.C,R1*%
X30950000Y13060000D03*
X30950000Y14710000D03*
%TD*%
D16*
%TO.C,L1*%
X30950000Y11580000D03*
X30950000Y9280000D03*
%TD*%
D17*
%TO.C,C2*%
X36780000Y14560000D03*
X36780000Y12660000D03*
%TD*%
D13*
%TO.C,C18*%
X19400000Y13580000D03*
X19400000Y12030000D03*
%TD*%
D15*
%TO.C,R12*%
X22730000Y11995000D03*
X22730000Y13645000D03*
%TD*%
%TO.C,R13*%
X21010000Y11995000D03*
X21010000Y13645000D03*
%TD*%
D18*
%TO.C,C1*%
X35075000Y11230000D03*
X33525000Y11230000D03*
%TD*%
D19*
%TO.C,R7*%
X15370000Y22315000D03*
X15370000Y20665000D03*
%TD*%
D15*
%TO.C,R8*%
X15370000Y17630000D03*
X15370000Y19280000D03*
%TD*%
D20*
%TO.C,R2*%
X36675000Y16320000D03*
X35025000Y16320000D03*
%TD*%
%TO.C,R3*%
X31890000Y16420000D03*
X30240000Y16420000D03*
%TD*%
M02*
