%TF.GenerationSoftware,KiCad,Pcbnew,9.0.2-9.0.2-0~ubuntu22.04.1*%
%TF.CreationDate,2025-05-11T10:39:50+03:00*%
%TF.ProjectId,steper-motor-unit,73746570-6572-42d6-9d6f-746f722d756e,rev?*%
%TF.SameCoordinates,Original*%
%TF.FileFunction,Soldermask,Top*%
%TF.FilePolarity,Negative*%
%FSLAX46Y46*%
G04 Gerber Fmt 4.6, Leading zero omitted, Abs format (unit mm)*
G04 Created by KiCad (PCBNEW 9.0.2-9.0.2-0~ubuntu22.04.1) date 2025-05-11 10:39:50*
%MOMM*%
%LPD*%
G01*
G04 APERTURE LIST*
G04 Aperture macros list*
%AMRoundRect*
0 Rectangle with rounded corners*
0 $1 Rounding radius*
0 $2 $3 $4 $5 $6 $7 $8 $9 X,Y pos of 4 corners*
0 Add a 4 corners polygon primitive as box body*
4,1,4,$2,$3,$4,$5,$6,$7,$8,$9,$2,$3,0*
0 Add four circle primitives for the rounded corners*
1,1,$1+$1,$2,$3*
1,1,$1+$1,$4,$5*
1,1,$1+$1,$6,$7*
1,1,$1+$1,$8,$9*
0 Add four rect primitives between the rounded corners*
20,1,$1+$1,$2,$3,$4,$5,0*
20,1,$1+$1,$4,$5,$6,$7,0*
20,1,$1+$1,$6,$7,$8,$9,0*
20,1,$1+$1,$8,$9,$2,$3,0*%
%AMRotRect*
0 Rectangle, with rotation*
0 The origin of the aperture is its center*
0 $1 length*
0 $2 width*
0 $3 Rotation angle, in degrees counterclockwise*
0 Add horizontal line*
21,1,$1,$2,0,0,$3*%
G04 Aperture macros list end*
%ADD10RoundRect,0.250000X-0.475000X0.250000X-0.475000X-0.250000X0.475000X-0.250000X0.475000X0.250000X0*%
%ADD11RoundRect,0.135000X-0.185000X0.135000X-0.185000X-0.135000X0.185000X-0.135000X0.185000X0.135000X0*%
%ADD12RoundRect,0.225000X0.017678X-0.335876X0.335876X-0.017678X-0.017678X0.335876X-0.335876X0.017678X0*%
%ADD13RoundRect,0.250000X-0.350000X0.350000X-0.350000X-0.350000X0.350000X-0.350000X0.350000X0.350000X0*%
%ADD14RoundRect,0.250000X-0.550000X0.500000X-0.550000X-0.500000X0.550000X-0.500000X0.550000X0.500000X0*%
%ADD15RoundRect,0.250000X0.725000X-0.600000X0.725000X0.600000X-0.725000X0.600000X-0.725000X-0.600000X0*%
%ADD16O,1.950000X1.700000*%
%ADD17C,3.200000*%
%ADD18RoundRect,0.225000X-0.017678X0.335876X-0.335876X0.017678X0.017678X-0.335876X0.335876X-0.017678X0*%
%ADD19RoundRect,0.225000X-0.225000X-0.250000X0.225000X-0.250000X0.225000X0.250000X-0.225000X0.250000X0*%
%ADD20RoundRect,0.135000X0.185000X-0.135000X0.185000X0.135000X-0.185000X0.135000X-0.185000X-0.135000X0*%
%ADD21RoundRect,0.135000X-0.135000X-0.185000X0.135000X-0.185000X0.135000X0.185000X-0.135000X0.185000X0*%
%ADD22RoundRect,0.250000X-1.500000X-0.550000X1.500000X-0.550000X1.500000X0.550000X-1.500000X0.550000X0*%
%ADD23RoundRect,0.135000X0.035355X-0.226274X0.226274X-0.035355X-0.035355X0.226274X-0.226274X0.035355X0*%
%ADD24RoundRect,0.250000X-0.725000X0.600000X-0.725000X-0.600000X0.725000X-0.600000X0.725000X0.600000X0*%
%ADD25R,1.700000X1.700000*%
%ADD26C,1.700000*%
%ADD27RoundRect,0.250000X-0.565685X0.070711X0.070711X-0.565685X0.565685X-0.070711X-0.070711X0.565685X0*%
%ADD28RoundRect,0.135000X0.135000X0.185000X-0.135000X0.185000X-0.135000X-0.185000X0.135000X-0.185000X0*%
%ADD29RoundRect,0.250000X0.600000X0.725000X-0.600000X0.725000X-0.600000X-0.725000X0.600000X-0.725000X0*%
%ADD30O,1.700000X1.950000*%
%ADD31RoundRect,0.062500X-0.220971X-0.309359X0.309359X0.220971X0.220971X0.309359X-0.309359X-0.220971X0*%
%ADD32RoundRect,0.062500X0.220971X-0.309359X0.309359X-0.220971X-0.220971X0.309359X-0.309359X0.220971X0*%
%ADD33RotRect,5.600000X5.600000X45.000000*%
%ADD34RoundRect,0.200000X0.053033X-0.335876X0.335876X-0.053033X-0.053033X0.335876X-0.335876X0.053033X0*%
%ADD35RoundRect,0.225000X0.250000X-0.225000X0.250000X0.225000X-0.250000X0.225000X-0.250000X-0.225000X0*%
%ADD36RoundRect,0.045000X0.405000X-0.105000X0.405000X0.105000X-0.405000X0.105000X-0.405000X-0.105000X0*%
%ADD37RoundRect,0.045000X-0.405000X0.105000X-0.405000X-0.105000X0.405000X-0.105000X0.405000X0.105000X0*%
%ADD38RoundRect,0.045000X-0.105000X-0.405000X0.105000X-0.405000X0.105000X0.405000X-0.105000X0.405000X0*%
%ADD39RoundRect,0.045000X0.105000X0.405000X-0.105000X0.405000X-0.105000X-0.405000X0.105000X-0.405000X0*%
%ADD40RoundRect,0.472500X1.102500X1.102500X-1.102500X1.102500X-1.102500X-1.102500X1.102500X-1.102500X0*%
%ADD41RoundRect,0.150000X-0.825000X-0.150000X0.825000X-0.150000X0.825000X0.150000X-0.825000X0.150000X0*%
G04 APERTURE END LIST*
D10*
%TO.C,C8*%
X20740000Y37120000D03*
X20740000Y35220000D03*
%TD*%
D11*
%TO.C,R14*%
X19210000Y19440000D03*
X19210000Y18420000D03*
%TD*%
D12*
%TO.C,C5*%
X19821992Y27161992D03*
X20918008Y28258008D03*
%TD*%
D13*
%TO.C,PT1*%
X16670000Y18190000D03*
D14*
X15670000Y14940000D03*
D13*
X14670000Y18190000D03*
%TD*%
D15*
%TO.C,J2*%
X5660000Y11700000D03*
D16*
X5660000Y14200000D03*
X5660000Y16700000D03*
X5660000Y19200000D03*
%TD*%
D12*
%TO.C,C4*%
X19621992Y24871992D03*
X20718008Y25968008D03*
%TD*%
D11*
%TO.C,R10*%
X20240000Y19430000D03*
X20240000Y18410000D03*
%TD*%
D12*
%TO.C,C11*%
X10388229Y21137164D03*
X11484245Y22233180D03*
%TD*%
D17*
%TO.C,H1*%
X4500000Y4500000D03*
%TD*%
D18*
%TO.C,C9*%
X12998008Y21468008D03*
X11901992Y20371992D03*
%TD*%
D19*
%TO.C,C16*%
X25975000Y18360000D03*
X27525000Y18360000D03*
%TD*%
D20*
%TO.C,R9*%
X18330000Y15410000D03*
X18330000Y16430000D03*
%TD*%
D21*
%TO.C,R16*%
X17280000Y13200000D03*
X18300000Y13200000D03*
%TD*%
D22*
%TO.C,C14*%
X30950000Y12620000D03*
X36350000Y12620000D03*
%TD*%
D23*
%TO.C,R11*%
X9329426Y29709426D03*
X10050674Y30430674D03*
%TD*%
D24*
%TO.C,J3*%
X34360000Y28270000D03*
D16*
X34360000Y25770000D03*
X34360000Y23270000D03*
X34360000Y20770000D03*
%TD*%
D25*
%TO.C,J4*%
X28590000Y25215000D03*
D26*
X26050000Y25215000D03*
%TD*%
D27*
%TO.C,X1*%
X7537379Y23911949D03*
X9093014Y22356314D03*
X10295095Y23558395D03*
X8739460Y25114030D03*
%TD*%
D17*
%TO.C,H2*%
X35500000Y4500000D03*
%TD*%
%TO.C,H3*%
X4500000Y35500000D03*
%TD*%
D28*
%TO.C,R5*%
X28020000Y34290000D03*
X27000000Y34290000D03*
%TD*%
D19*
%TO.C,C13*%
X25965000Y16870000D03*
X27515000Y16870000D03*
%TD*%
D25*
%TO.C,J6*%
X26675000Y36700000D03*
D26*
X29215000Y36700000D03*
%TD*%
D29*
%TO.C,J5*%
X23830000Y5632500D03*
D30*
X21330000Y5632500D03*
X18830000Y5632500D03*
X16330000Y5632500D03*
%TD*%
D12*
%TO.C,C10*%
X6278229Y25227164D03*
X7374245Y26323180D03*
%TD*%
D11*
%TO.C,R15*%
X21260000Y19440000D03*
X21260000Y18420000D03*
%TD*%
D19*
%TO.C,C6*%
X15195000Y33490000D03*
X16745000Y33490000D03*
%TD*%
D31*
%TO.C,U2*%
X9484878Y27143813D03*
X9838431Y26790260D03*
X10191985Y26436706D03*
X10545538Y26083153D03*
X10899091Y25729600D03*
X11252645Y25376046D03*
X11606198Y25022493D03*
X11959752Y24668939D03*
X12313305Y24315386D03*
X12666858Y23961833D03*
X13020412Y23608279D03*
X13373965Y23254726D03*
D32*
X14346237Y23254726D03*
X14699790Y23608279D03*
X15053344Y23961833D03*
X15406897Y24315386D03*
X15760450Y24668939D03*
X16114004Y25022493D03*
X16467557Y25376046D03*
X16821111Y25729600D03*
X17174664Y26083153D03*
X17528217Y26436706D03*
X17881771Y26790260D03*
X18235324Y27143813D03*
D31*
X18235324Y28116085D03*
X17881771Y28469638D03*
X17528217Y28823192D03*
X17174664Y29176745D03*
X16821111Y29530298D03*
X16467557Y29883852D03*
X16114004Y30237405D03*
X15760450Y30590959D03*
X15406897Y30944512D03*
X15053344Y31298065D03*
X14699790Y31651619D03*
X14346237Y32005172D03*
D32*
X13373965Y32005172D03*
X13020412Y31651619D03*
X12666858Y31298065D03*
X12313305Y30944512D03*
X11959752Y30590959D03*
X11606198Y30237405D03*
X11252645Y29883852D03*
X10899091Y29530298D03*
X10545538Y29176745D03*
X10191985Y28823192D03*
X9838431Y28469638D03*
X9484878Y28116085D03*
D33*
X13860101Y27629949D03*
%TD*%
D18*
%TO.C,C7*%
X8158058Y29238058D03*
X7062042Y28142042D03*
%TD*%
D34*
%TO.C,R4*%
X12956637Y19256637D03*
X14123363Y20423363D03*
%TD*%
D25*
%TO.C,J1*%
X10190000Y37100000D03*
D26*
X12730000Y37100000D03*
X15270000Y37100000D03*
X17810000Y37100000D03*
%TD*%
D35*
%TO.C,C15*%
X26640000Y13835000D03*
X26640000Y15385000D03*
%TD*%
D28*
%TO.C,R6*%
X26020000Y27565000D03*
X25000000Y27565000D03*
%TD*%
D17*
%TO.C,H4*%
X35500000Y35500000D03*
%TD*%
D21*
%TO.C,R18*%
X25900000Y12550000D03*
X26920000Y12550000D03*
%TD*%
D36*
%TO.C,U5*%
X24370000Y12920000D03*
X24370000Y13420000D03*
X24370000Y13920000D03*
D37*
X24370000Y14420000D03*
X24370000Y14920000D03*
D36*
X24370000Y15420000D03*
D37*
X24370000Y15920000D03*
D38*
X23470000Y16820000D03*
X22970000Y16820000D03*
X22470000Y16820000D03*
X21970000Y16820000D03*
X21470000Y16820000D03*
X20970000Y16820000D03*
X20470000Y16820000D03*
D37*
X19570000Y15920000D03*
D36*
X19570000Y15420000D03*
X19570000Y14920000D03*
X19570000Y14420000D03*
X19570000Y13920000D03*
D37*
X19570000Y13420000D03*
D36*
X19570000Y12920000D03*
D39*
X20470000Y12020000D03*
X20970000Y12020000D03*
X21470000Y12020000D03*
X21970000Y12020000D03*
X22470000Y12020000D03*
X22970000Y12020000D03*
X23470000Y12020000D03*
D40*
X21970000Y14420000D03*
%TD*%
D41*
%TO.C,U3*%
X23085000Y32830000D03*
X23085000Y31560000D03*
X23085000Y30290000D03*
X23085000Y29020000D03*
X28035000Y29020000D03*
X28035000Y30290000D03*
X28035000Y31560000D03*
X28035000Y32830000D03*
%TD*%
M02*
